%TF.GenerationSoftware,KiCad,Pcbnew,9.0.0*%
%TF.CreationDate,2025-03-11T12:59:44+05:30*%
%TF.ProjectId,LiteWingV2.5C,4c697465-5769-46e6-9756-322e35432e6b,rev?*%
%TF.SameCoordinates,Original*%
%TF.FileFunction,Drillmap*%
%TF.FilePolarity,Positive*%
%FSLAX45Y45*%
G04 Gerber Fmt 4.5, Leading zero omitted, Abs format (unit mm)*
G04 Created by KiCad (PCBNEW 9.0.0) date 2025-03-11 12:59:44*
%MOMM*%
%LPD*%
G01*
G04 APERTURE LIST*
%ADD10C,0.025400*%
%ADD11C,0.025000*%
%ADD12C,0.200000*%
%ADD13C,0.100000*%
%ADD14C,0.119880*%
G04 APERTURE END LIST*
D10*
X10630039Y-5860798D02*
G75*
G02*
X10807188Y-5924924I28521J-197962D01*
G01*
X10167175Y-14417398D02*
X10268293Y-14316281D01*
X10807179Y-12909857D02*
G75*
G02*
X10630041Y-12973973I-148619J133847D01*
G01*
X16998650Y-10037100D02*
G75*
G02*
X16987851Y-9966900I188640J64950D01*
G01*
X10439971Y-4574796D02*
G75*
G02*
X10268286Y-4518517I-30251J197726D01*
G01*
X11045888Y-12997602D02*
G75*
G02*
X11044065Y-12962351I16812J18542D01*
G01*
X18641809Y-4638652D02*
X18802007Y-4798850D01*
X18075712Y-6214991D02*
G75*
G02*
X18040452Y-6213167I-16712J18662D01*
G01*
X11245253Y-5486860D02*
G75*
G02*
X11181132Y-5309722I133807J148610D01*
G01*
D11*
X11245253Y-13347931D02*
G75*
G02*
X14152750Y-11667400I5103267J-5473789D01*
G01*
X18668236Y-12909869D02*
G75*
G02*
X16998650Y-10037100I5315111J5010564D01*
G01*
D10*
X19555048Y-14130206D02*
G75*
G02*
X19591234Y-14129326I18513J-16804D01*
G01*
X18230177Y-13347931D02*
G75*
G02*
X18294299Y-13525069I-133827J-148619D01*
G01*
X9766868Y-4588146D02*
X9737712Y-4617392D01*
X9768466Y-14248242D02*
X9885788Y-14130919D01*
D11*
X12477150Y-10036400D02*
G75*
G02*
X10807179Y-12909857I-7143563J2229637D01*
G01*
D10*
X9737712Y-4617392D02*
X9737712Y-4846856D01*
X10956252Y-13753112D02*
X11116449Y-13913310D01*
X18519254Y-13753366D02*
G75*
G02*
X18802463Y-14036096I418466J135966D01*
G01*
D11*
X16785695Y-8917400D02*
G75*
G02*
X16837597Y-8967645I-175J-52110D01*
G01*
D10*
X18424524Y-5833103D02*
G75*
G02*
X18426352Y-5868358I-16814J-18547D01*
G01*
X19450526Y-4600062D02*
G75*
G02*
X19553443Y-4702987I-1040406J-1143248D01*
G01*
X18802007Y-14035941D02*
X18641809Y-14196139D01*
X19537718Y-4417393D02*
X19308254Y-4417393D01*
X9884190Y-4705469D02*
X9766868Y-4588146D01*
X9906868Y-4448146D02*
X10024191Y-4565468D01*
X16987850Y-8866900D02*
G75*
G02*
X16998849Y-8797700I210850J1960D01*
G01*
X19737717Y-4617392D02*
X19706964Y-4586549D01*
D11*
X12691861Y-9917400D02*
X12789805Y-9917400D01*
X16987850Y-8866900D02*
X16987850Y-9966900D01*
D10*
X18044911Y-12616474D02*
G75*
G02*
X18080159Y-12614654I18539J-16816D01*
G01*
X11394690Y-12615713D02*
G75*
G02*
X11429959Y-12617553I16710J-18647D01*
G01*
X11185712Y-13103991D02*
X11536348Y-12757354D01*
X18845390Y-12973992D02*
G75*
G02*
X18668236Y-12909869I-28520J197982D01*
G01*
X18284690Y-5726713D02*
G75*
G02*
X18319959Y-5728553I16710J-18647D01*
G01*
X18294362Y-5310101D02*
G75*
G02*
X18230177Y-5486861I-197992J-28139D01*
G01*
X17935888Y-6108602D02*
G75*
G02*
X17934065Y-6073351I16812J18542D01*
G01*
X11429213Y-6219367D02*
G75*
G02*
X11393962Y-6221191I-18543J16828D01*
G01*
D11*
X18230177Y-5486860D02*
G75*
G02*
X15322750Y-7167391I-5103403J5473931D01*
G01*
X12837750Y-9867155D02*
G75*
G02*
X12789805Y-9917403I-47950J-2245D01*
G01*
D10*
X19449641Y-4563871D02*
X19566964Y-4446549D01*
X18424524Y-5833103D02*
X18319964Y-5728549D01*
X19636600Y-13886817D02*
G75*
G02*
X19580238Y-13715723I141420J141417D01*
G01*
X19591239Y-14129321D02*
X19708561Y-14246644D01*
X19566964Y-4446549D02*
X19537718Y-4417393D01*
X19737717Y-4846856D02*
X19737717Y-4617392D01*
X9737712Y-13987935D02*
X9737712Y-14217398D01*
D11*
X15322750Y-11667400D02*
G75*
G02*
X18230178Y-13347930I-2195970J-7154460D01*
G01*
D10*
X10024904Y-14234729D02*
G75*
G02*
X10025793Y-14270924I-16804J-18521D01*
G01*
X17938521Y-12756297D02*
X18285158Y-13106933D01*
X19706964Y-4586549D02*
X19589642Y-4703872D01*
X19034899Y-14260096D02*
G75*
G02*
X18641809Y-14196139I-97189J642636D01*
G01*
X9838829Y-4947973D02*
G75*
G02*
X9895108Y-5119651I-141429J-141427D01*
G01*
X10832808Y-14196545D02*
G75*
G02*
X10439388Y-14259911I-295098J579175D01*
G01*
D11*
X14152750Y-7167391D02*
G75*
G02*
X11245253Y-5486860I2195766J7154314D01*
G01*
X16837250Y-9867400D02*
G75*
G02*
X16787250Y-9917400I-50000J0D01*
G01*
D10*
X19737717Y-13987935D02*
X19636600Y-13886817D01*
X19308254Y-14417398D02*
X19537718Y-14417398D01*
X18320410Y-13105109D02*
X18424964Y-13000549D01*
X11047325Y-5870555D02*
G75*
G02*
X11049147Y-5835293I18635J16716D01*
G01*
X19308254Y-4417393D02*
X19207137Y-4518510D01*
D11*
X12636950Y-8967400D02*
G75*
G02*
X12689005Y-8917637I52060J-2350D01*
G01*
D10*
X11153714Y-5730732D02*
G75*
G02*
X11049149Y-5835295I-976204J871662D01*
G01*
D11*
X16687750Y-8917400D02*
X16785695Y-8917400D01*
D10*
X10024191Y-4565468D02*
G75*
G02*
X10023309Y-4601671I-17671J-17682D01*
G01*
X10440505Y-4574695D02*
G75*
G02*
X10833620Y-4638652I97205J-642655D01*
G01*
X10167175Y-4417393D02*
X9937712Y-4417393D01*
X9908466Y-14388242D02*
X9937712Y-14417398D01*
D11*
X16837605Y-8967645D02*
X16837250Y-9867400D01*
D10*
X19568561Y-14386644D02*
X19451238Y-14269322D01*
X9838829Y-13886817D02*
X9737712Y-13987935D01*
X18358980Y-13913310D02*
G75*
G02*
X18294360Y-13524690I578770J295920D01*
G01*
X9895014Y-13714605D02*
G75*
G02*
X10630420Y-12974040I642692J97209D01*
G01*
X10673423Y-4798850D02*
X10833620Y-4638652D01*
X11185712Y-13103991D02*
G75*
G02*
X11150452Y-13102167I-16712J18662D01*
G01*
X9920381Y-4704584D02*
G75*
G02*
X10023305Y-4601667I1143249J-1040406D01*
G01*
D11*
X12636950Y-8967400D02*
X12637750Y-9867155D01*
D10*
X19555048Y-14130206D02*
G75*
G02*
X19452123Y-14233123I-1143248J1040406D01*
G01*
D11*
X12691861Y-9917400D02*
G75*
G02*
X12637749Y-9867155I-261J53980D01*
G01*
D10*
X18802007Y-4798850D02*
G75*
G02*
X18519015Y-5082166I135693J-418530D01*
G01*
X19450526Y-4600062D02*
G75*
G02*
X19449636Y-4563866I16804J18522D01*
G01*
X10629303Y-5860925D02*
G75*
G02*
X9895169Y-5119065I-91593J643535D01*
G01*
X18294362Y-5310101D02*
G75*
G02*
X18359074Y-4921299I643328J92711D01*
G01*
X10024904Y-14234729D02*
G75*
G02*
X9921987Y-14131804I1040407J1143249D01*
G01*
X19580415Y-5120211D02*
G75*
G02*
X18845009Y-5860744I-642695J-97179D01*
G01*
X19207137Y-14316281D02*
X19308254Y-14417398D01*
X18044911Y-12616474D02*
G75*
G02*
X17940345Y-12721036I-975981J871444D01*
G01*
D11*
X12689805Y-8917400D02*
X12786950Y-8917400D01*
D10*
X11394690Y-12615713D02*
X11044065Y-12962350D01*
X19580314Y-5119652D02*
G75*
G02*
X19636595Y-4947968I197716J30252D01*
G01*
X10673423Y-14035941D02*
G75*
G02*
X10956413Y-13752632I-135700J418538D01*
G01*
X19708561Y-14246644D02*
X19737717Y-14217398D01*
D11*
X16689305Y-9917400D02*
G75*
G02*
X16637252Y-9867400I-245J51840D01*
G01*
D10*
X9937712Y-14417398D02*
X10167175Y-14417398D01*
D11*
X16998850Y-8797700D02*
G75*
G02*
X18668250Y-5924934I7140490J-2227990D01*
G01*
D10*
X15322750Y-7167391D02*
X14152750Y-7167391D01*
X10025789Y-14270920D02*
X9908466Y-14388242D01*
X19537718Y-14417397D02*
X19568561Y-14386644D01*
X18426800Y-12965276D02*
X18080162Y-12614650D01*
D11*
X10807179Y-5924933D02*
G75*
G02*
X12477050Y-8798400I-5472889J-5102429D01*
G01*
D10*
X11429213Y-6219367D02*
X11533767Y-6114807D01*
X11535603Y-6079534D02*
X11188966Y-5728908D01*
X12477050Y-8798400D02*
G75*
G02*
X12487549Y-8868200I-204040J-66380D01*
G01*
X19035458Y-14259994D02*
G75*
G02*
X19207140Y-14316277I30262J-197676D01*
G01*
X19636600Y-4947973D02*
X19737717Y-4846856D01*
X9885788Y-14130919D02*
G75*
G02*
X9921992Y-14131800I17682J-17681D01*
G01*
X19737717Y-14217398D02*
X19737717Y-13987935D01*
X18668250Y-5924933D02*
G75*
G02*
X18845387Y-5860817I148630J-133877D01*
G01*
X19589642Y-4703872D02*
G75*
G02*
X19553439Y-4702990I-17682J17652D01*
G01*
D11*
X12487550Y-8868200D02*
X12487950Y-9967100D01*
D10*
X12487950Y-9967100D02*
G75*
G02*
X12477149Y-10036400I-308890J12650D01*
G01*
X11116449Y-4921506D02*
X10956252Y-5081679D01*
X18519152Y-5081679D02*
X18358980Y-4921506D01*
X14152750Y-11667400D02*
X15322750Y-11667400D01*
X18426800Y-12965276D02*
G75*
G02*
X18424964Y-13000550I-18650J-16714D01*
G01*
X17938521Y-12756297D02*
G75*
G02*
X17940341Y-12721032I18649J16717D01*
G01*
X11181118Y-13525071D02*
G75*
G02*
X11245240Y-13347917I197982J28521D01*
G01*
X19207137Y-4518510D02*
G75*
G02*
X19035458Y-4574792I-141417J141390D01*
G01*
X10833620Y-14196139D02*
X10673423Y-14035941D01*
D11*
X16787250Y-9917400D02*
X16689805Y-9917400D01*
D10*
X9895014Y-13714605D02*
G75*
G02*
X9838832Y-13886821I-197584J-30815D01*
G01*
D11*
X12786950Y-8917400D02*
G75*
G02*
X12836950Y-8967400I0J-50000D01*
G01*
D10*
X11534524Y-12722103D02*
G75*
G02*
X11536352Y-12757358I-16814J-18547D01*
G01*
D11*
X12836950Y-8967400D02*
X12837750Y-9867155D01*
D10*
X11153714Y-5730732D02*
G75*
G02*
X11188968Y-5728906I18546J-16828D01*
G01*
X11116348Y-4921303D02*
G75*
G02*
X11181056Y-5310099I-578638J-296087D01*
G01*
X11047325Y-5870555D02*
X11393962Y-6221191D01*
X17935888Y-6108602D02*
G75*
G02*
X18040451Y-6213167I-871458J-975998D01*
G01*
X18358980Y-13913310D02*
X18519254Y-13753366D01*
X11181118Y-13525071D02*
G75*
G02*
X11116449Y-13913310I-643438J-92329D01*
G01*
X18284690Y-5726713D02*
X17934065Y-6073350D01*
X11535603Y-6079534D02*
G75*
G02*
X11533769Y-6114809I-18643J-16716D01*
G01*
X10956252Y-5081679D02*
G75*
G02*
X10672942Y-4798689I-418538J-135700D01*
G01*
X18642622Y-4638246D02*
G75*
G02*
X19036041Y-4574875I295108J-579194D01*
G01*
X19451238Y-14269322D02*
G75*
G02*
X19452120Y-14233120I17642J17682D01*
G01*
X10268293Y-14316281D02*
G75*
G02*
X10439970Y-14259998I141427J-141419D01*
G01*
D11*
X16637605Y-8967645D02*
G75*
G02*
X16687605Y-8917645I49985J15D01*
G01*
D10*
X18075712Y-6214991D02*
X18426348Y-5868354D01*
X9920381Y-4704584D02*
G75*
G02*
X9884186Y-4705472I-18521J16804D01*
G01*
X10268293Y-4518510D02*
X10167175Y-4417393D01*
X9937711Y-4417393D02*
X9906868Y-4448146D01*
X11534524Y-12722103D02*
X11429964Y-12617549D01*
X9737712Y-4846856D02*
X9838829Y-4947973D01*
D11*
X16637605Y-8967645D02*
X16637250Y-9867400D01*
D10*
X18846127Y-12973891D02*
G75*
G02*
X19580235Y-13715723I91603J-643499D01*
G01*
X9737713Y-14217399D02*
X9768466Y-14248242D01*
X11045888Y-12997602D02*
G75*
G02*
X11150451Y-13102167I-871618J-976158D01*
G01*
X18320410Y-13105109D02*
G75*
G02*
X18285162Y-13106929I-18540J16829D01*
G01*
D12*
D13*
X11394540Y-6446095D02*
X11424540Y-6476095D01*
X11424540Y-6446095D02*
X11394540Y-6476095D01*
X11422886Y-12337660D02*
X11452886Y-12367660D01*
X11452886Y-12337660D02*
X11422886Y-12367660D01*
X11466293Y-6569793D02*
X11496293Y-6599793D01*
X11496293Y-6569793D02*
X11466293Y-6599793D01*
X11532384Y-12164286D02*
X11562384Y-12194286D01*
X11562384Y-12164286D02*
X11532384Y-12194286D01*
X11541148Y-6331789D02*
X11571148Y-6361789D01*
X11571148Y-6331789D02*
X11541148Y-6361789D01*
X11554741Y-6695012D02*
X11584741Y-6725012D01*
X11584741Y-6695012D02*
X11554741Y-6725012D01*
X11557729Y-12433479D02*
X11587729Y-12463479D01*
X11587729Y-12433479D02*
X11557729Y-12463479D01*
X11643189Y-6820230D02*
X11673189Y-6850230D01*
X11673189Y-6820230D02*
X11643189Y-6850230D01*
X11651868Y-6437826D02*
X11681868Y-6467826D01*
X11681868Y-6437826D02*
X11651868Y-6467826D01*
X11654417Y-11989793D02*
X11684417Y-12019793D01*
X11684417Y-11989793D02*
X11654417Y-12019793D01*
X11659012Y-12579912D02*
X11689012Y-12609912D01*
X11689012Y-12579912D02*
X11659012Y-12609912D01*
X11661238Y-12332995D02*
X11691238Y-12362995D01*
X11691238Y-12332995D02*
X11661238Y-12362995D01*
X11662450Y-6199200D02*
X11692450Y-6229200D01*
X11692450Y-6199200D02*
X11662450Y-6229200D01*
X11696188Y-12658677D02*
X11726188Y-12688677D01*
X11726188Y-12658677D02*
X11696188Y-12688677D01*
X11731637Y-6945448D02*
X11761637Y-6975448D01*
X11761637Y-6945448D02*
X11731637Y-6975448D01*
X11761458Y-6545030D02*
X11791458Y-6575030D01*
X11791458Y-6545030D02*
X11761458Y-6575030D01*
X11761854Y-12725648D02*
X11791854Y-12755648D01*
X11791854Y-12725648D02*
X11761854Y-12755648D01*
X11765146Y-12469286D02*
X11795146Y-12499286D01*
X11795146Y-12469286D02*
X11765146Y-12499286D01*
X11766165Y-6069192D02*
X11796165Y-6099192D01*
X11796165Y-6069192D02*
X11766165Y-6099192D01*
X11794350Y-6326400D02*
X11824350Y-6356400D01*
X11824350Y-6326400D02*
X11794350Y-6356400D01*
X11811622Y-12182248D02*
X11841622Y-12212248D01*
X11841622Y-12182248D02*
X11811622Y-12212248D01*
X11822650Y-7052200D02*
X11852650Y-7082200D01*
X11852650Y-7052200D02*
X11822650Y-7082200D01*
X11825423Y-11711689D02*
X11855423Y-11741689D01*
X11855423Y-11711689D02*
X11825423Y-11741689D01*
X11871048Y-6652233D02*
X11901048Y-6682233D01*
X11901048Y-6652233D02*
X11871048Y-6682233D01*
X11872350Y-12359697D02*
X11902350Y-12389697D01*
X11902350Y-12359697D02*
X11872350Y-12389697D01*
X11923340Y-6791832D02*
X11953340Y-6821832D01*
X11953340Y-6791832D02*
X11923340Y-6821832D01*
X11954850Y-6474800D02*
X11984850Y-6504800D01*
X11984850Y-6474800D02*
X11954850Y-6504800D01*
X11965250Y-12036300D02*
X11995250Y-12066300D01*
X11995250Y-12036300D02*
X11965250Y-12066300D01*
X11977814Y-11860406D02*
X12007814Y-11890406D01*
X12007814Y-11860406D02*
X11977814Y-11890406D01*
X11979553Y-12250107D02*
X12009553Y-12280107D01*
X12009553Y-12250107D02*
X11979553Y-12280107D01*
X11988250Y-6908200D02*
X12018250Y-6938200D01*
X12018250Y-6908200D02*
X11988250Y-6938200D01*
X12009268Y-12581952D02*
X12039268Y-12611952D01*
X12039268Y-12581952D02*
X12009268Y-12611952D01*
X12039872Y-6255758D02*
X12069872Y-6285758D01*
X12069872Y-6255758D02*
X12039872Y-6285758D01*
X12066550Y-7390600D02*
X12096550Y-7420600D01*
X12096550Y-7390600D02*
X12066550Y-7420600D01*
X12069650Y-6670700D02*
X12099650Y-6700700D01*
X12099650Y-6670700D02*
X12069650Y-6700700D01*
X12122650Y-12204000D02*
X12152650Y-12234000D01*
X12152650Y-12204000D02*
X12122650Y-12234000D01*
X12153660Y-6754245D02*
X12183660Y-6784245D01*
X12183660Y-6754245D02*
X12153660Y-6784245D01*
X12174850Y-7387500D02*
X12204850Y-7417500D01*
X12204850Y-7387500D02*
X12174850Y-7417500D01*
X12190924Y-7633368D02*
X12220924Y-7663368D01*
X12220924Y-7633368D02*
X12190924Y-7663368D01*
X12190924Y-11189368D02*
X12220924Y-11219368D01*
X12220924Y-11189368D02*
X12190924Y-11219368D01*
X12190924Y-11443368D02*
X12220924Y-11473368D01*
X12220924Y-11443368D02*
X12190924Y-11473368D01*
X12212561Y-6376529D02*
X12242561Y-6406529D01*
X12242561Y-6376529D02*
X12212561Y-6406529D01*
X12234617Y-12151973D02*
X12264617Y-12181973D01*
X12264617Y-12151973D02*
X12234617Y-12181973D01*
X12259704Y-12405057D02*
X12289704Y-12435057D01*
X12289704Y-12405057D02*
X12259704Y-12435057D01*
X12292450Y-7384400D02*
X12322450Y-7414400D01*
X12322450Y-7384400D02*
X12292450Y-7414400D01*
X12330083Y-12240007D02*
X12360083Y-12270007D01*
X12360083Y-12240007D02*
X12330083Y-12270007D01*
X12367450Y-6760100D02*
X12397450Y-6790100D01*
X12397450Y-6760100D02*
X12367450Y-6790100D01*
X12375550Y-11124900D02*
X12405550Y-11154900D01*
X12405550Y-11124900D02*
X12375550Y-11154900D01*
X12384922Y-12316609D02*
X12414922Y-12346609D01*
X12414922Y-12316609D02*
X12384922Y-12346609D01*
X12385250Y-6497300D02*
X12415250Y-6527300D01*
X12415250Y-6497300D02*
X12385250Y-6527300D01*
X12417850Y-6705500D02*
X12447850Y-6735500D01*
X12447850Y-6705500D02*
X12417850Y-6735500D01*
X12432550Y-6818900D02*
X12462550Y-6848900D01*
X12462550Y-6818900D02*
X12432550Y-6848900D01*
X12444924Y-7633368D02*
X12474924Y-7663368D01*
X12474924Y-7633368D02*
X12444924Y-7663368D01*
X12444924Y-7887368D02*
X12474924Y-7917368D01*
X12474924Y-7887368D02*
X12444924Y-7917368D01*
X12444924Y-8141368D02*
X12474924Y-8171368D01*
X12474924Y-8141368D02*
X12444924Y-8171368D01*
X12444924Y-8395368D02*
X12474924Y-8425368D01*
X12474924Y-8395368D02*
X12444924Y-8425368D01*
X12444924Y-10427368D02*
X12474924Y-10457368D01*
X12474924Y-10427368D02*
X12444924Y-10457368D01*
X12444924Y-10681368D02*
X12474924Y-10711368D01*
X12474924Y-10681368D02*
X12444924Y-10711368D01*
X12470350Y-6640500D02*
X12500350Y-6670500D01*
X12500350Y-6640500D02*
X12470350Y-6670500D01*
X12491350Y-6768500D02*
X12521350Y-6798500D01*
X12521350Y-6768500D02*
X12491350Y-6798500D01*
X12527050Y-6577500D02*
X12557050Y-6607500D01*
X12557050Y-6577500D02*
X12527050Y-6607500D01*
X12543750Y-6705500D02*
X12573750Y-6735500D01*
X12573750Y-6705500D02*
X12543750Y-6735500D01*
X12596250Y-6625800D02*
X12626250Y-6655800D01*
X12626250Y-6625800D02*
X12596250Y-6655800D01*
X12747450Y-8778100D02*
X12777450Y-8808100D01*
X12777450Y-8778100D02*
X12747450Y-8808100D01*
X12756450Y-10058100D02*
X12786450Y-10088100D01*
X12786450Y-10058100D02*
X12756450Y-10088100D01*
X12756450Y-10126200D02*
X12786450Y-10156200D01*
X12786450Y-10126200D02*
X12756450Y-10156200D01*
X12821750Y-10787500D02*
X12851750Y-10817500D01*
X12851750Y-10787500D02*
X12821750Y-10817500D01*
X12833850Y-8779900D02*
X12863850Y-8809900D01*
X12863850Y-8779900D02*
X12833850Y-8809900D01*
X12834465Y-10124763D02*
X12864465Y-10154763D01*
X12864465Y-10124763D02*
X12834465Y-10154763D01*
X12836750Y-10054800D02*
X12866750Y-10084800D01*
X12866750Y-10054800D02*
X12836750Y-10084800D01*
X12882950Y-10736800D02*
X12912950Y-10766800D01*
X12912950Y-10736800D02*
X12882950Y-10766800D01*
X12894050Y-11143200D02*
X12924050Y-11173200D01*
X12924050Y-11143200D02*
X12894050Y-11173200D01*
X12968050Y-11056900D02*
X12998050Y-11086900D01*
X12998050Y-11056900D02*
X12968050Y-11086900D01*
X12977150Y-11146900D02*
X13007150Y-11176900D01*
X13007150Y-11146900D02*
X12977150Y-11176900D01*
X12982750Y-10306600D02*
X13012750Y-10336600D01*
X13012750Y-10306600D02*
X12982750Y-10336600D01*
X12989550Y-7721300D02*
X13019550Y-7751300D01*
X13019550Y-7721300D02*
X12989550Y-7751300D01*
X13007950Y-11274970D02*
X13037950Y-11304970D01*
X13037950Y-11274970D02*
X13007950Y-11304970D01*
X13060250Y-11095500D02*
X13090250Y-11125500D01*
X13090250Y-11095500D02*
X13060250Y-11125500D01*
X13061550Y-10051200D02*
X13091550Y-10081200D01*
X13091550Y-10051200D02*
X13061550Y-10081200D01*
X13069250Y-8206000D02*
X13099250Y-8236000D01*
X13099250Y-8206000D02*
X13069250Y-8236000D01*
X13072550Y-10251300D02*
X13102550Y-10281300D01*
X13102550Y-10251300D02*
X13072550Y-10281300D01*
X13076350Y-8346300D02*
X13106350Y-8376300D01*
X13106350Y-8346300D02*
X13076350Y-8376300D01*
X13119450Y-10893900D02*
X13149450Y-10923900D01*
X13149450Y-10893900D02*
X13119450Y-10923900D01*
X13124850Y-11887100D02*
X13154850Y-11917100D01*
X13154850Y-11887100D02*
X13124850Y-11917100D01*
X13167150Y-8440800D02*
X13197150Y-8470800D01*
X13197150Y-8440800D02*
X13167150Y-8470800D01*
X13173150Y-8362300D02*
X13203150Y-8392300D01*
X13203150Y-8362300D02*
X13173150Y-8392300D01*
X13186050Y-10833500D02*
X13216050Y-10863500D01*
X13216050Y-10833500D02*
X13186050Y-10863500D01*
X13193350Y-7480700D02*
X13223350Y-7510700D01*
X13223350Y-7480700D02*
X13193350Y-7510700D01*
X13194150Y-7306300D02*
X13224150Y-7336300D01*
X13224150Y-7306300D02*
X13194150Y-7336300D01*
X13194750Y-7653700D02*
X13224750Y-7683700D01*
X13224750Y-7653700D02*
X13194750Y-7683700D01*
X13196250Y-7563600D02*
X13226250Y-7593600D01*
X13226250Y-7563600D02*
X13196250Y-7593600D01*
X13230450Y-11657300D02*
X13260450Y-11687300D01*
X13260450Y-11657300D02*
X13230450Y-11687300D01*
X13231650Y-11773900D02*
X13261650Y-11803900D01*
X13261650Y-11773900D02*
X13231650Y-11803900D01*
X13258150Y-10014000D02*
X13288150Y-10044000D01*
X13288150Y-10014000D02*
X13258150Y-10044000D01*
X13258250Y-8439000D02*
X13288250Y-8469000D01*
X13288250Y-8439000D02*
X13258250Y-8469000D01*
X13259350Y-9009200D02*
X13289350Y-9039200D01*
X13289350Y-9009200D02*
X13259350Y-9039200D01*
X13260550Y-9075900D02*
X13290550Y-9105900D01*
X13290550Y-9075900D02*
X13260550Y-9105900D01*
X13260950Y-10240400D02*
X13290950Y-10270400D01*
X13290950Y-10240400D02*
X13260950Y-10270400D01*
X13296350Y-8532900D02*
X13326350Y-8562900D01*
X13326350Y-8532900D02*
X13296350Y-8562900D01*
X13303450Y-7664200D02*
X13333450Y-7694200D01*
X13333450Y-7664200D02*
X13303450Y-7694200D01*
X13309050Y-7472500D02*
X13339050Y-7502500D01*
X13339050Y-7472500D02*
X13309050Y-7502500D01*
X13350250Y-9485400D02*
X13380250Y-9515400D01*
X13380250Y-9485400D02*
X13350250Y-9515400D01*
X13351750Y-9806000D02*
X13381750Y-9836000D01*
X13381750Y-9806000D02*
X13351750Y-9836000D01*
X13352950Y-9587500D02*
X13382950Y-9617500D01*
X13382950Y-9587500D02*
X13352950Y-9617500D01*
X13354150Y-9903100D02*
X13384150Y-9933100D01*
X13384150Y-9903100D02*
X13354150Y-9933100D01*
X13355450Y-9680800D02*
X13385450Y-9710800D01*
X13385450Y-9680800D02*
X13355450Y-9710800D01*
X13357850Y-9991400D02*
X13387850Y-10021400D01*
X13387850Y-9991400D02*
X13357850Y-10021400D01*
X13361650Y-10070200D02*
X13391650Y-10100200D01*
X13391650Y-10070200D02*
X13361650Y-10100200D01*
X13366850Y-9261900D02*
X13396850Y-9291900D01*
X13396850Y-9261900D02*
X13366850Y-9291900D01*
X13427150Y-11439500D02*
X13457150Y-11469500D01*
X13457150Y-11439500D02*
X13427150Y-11469500D01*
X13430950Y-7811100D02*
X13460950Y-7841100D01*
X13460950Y-7811100D02*
X13430950Y-7841100D01*
X13451550Y-11499300D02*
X13481550Y-11529300D01*
X13481550Y-11499300D02*
X13451550Y-11529300D01*
X13502350Y-11427300D02*
X13532350Y-11457300D01*
X13532350Y-11427300D02*
X13502350Y-11457300D01*
X13519050Y-8022300D02*
X13549050Y-8052300D01*
X13549050Y-8022300D02*
X13519050Y-8052300D01*
X13526150Y-8715100D02*
X13556150Y-8745100D01*
X13556150Y-8715100D02*
X13526150Y-8745100D01*
X13542350Y-8186000D02*
X13572350Y-8216000D01*
X13572350Y-8186000D02*
X13542350Y-8216000D01*
X13565650Y-10518500D02*
X13595650Y-10548500D01*
X13595650Y-10518500D02*
X13565650Y-10548500D01*
X13566550Y-8774000D02*
X13596550Y-8804000D01*
X13596550Y-8774000D02*
X13566550Y-8804000D01*
X13603350Y-8715100D02*
X13633350Y-8745100D01*
X13633350Y-8715100D02*
X13603350Y-8745100D01*
X13636950Y-10516800D02*
X13666950Y-10546800D01*
X13666950Y-10516800D02*
X13636950Y-10546800D01*
X13638022Y-8779548D02*
X13668022Y-8809548D01*
X13668022Y-8779548D02*
X13638022Y-8809548D01*
X13669450Y-8717000D02*
X13699450Y-8747000D01*
X13699450Y-8717000D02*
X13669450Y-8747000D01*
X13692350Y-8963200D02*
X13722350Y-8993200D01*
X13722350Y-8963200D02*
X13692350Y-8993200D01*
X13696150Y-9886500D02*
X13726150Y-9916500D01*
X13726150Y-9886500D02*
X13696150Y-9916500D01*
X13710250Y-9261000D02*
X13740250Y-9291000D01*
X13740250Y-9261000D02*
X13710250Y-9291000D01*
X13761950Y-8034800D02*
X13791950Y-8064800D01*
X13791950Y-8034800D02*
X13761950Y-8064800D01*
X13836750Y-8032400D02*
X13866750Y-8062400D01*
X13866750Y-8032400D02*
X13836750Y-8062400D01*
X13841650Y-9259200D02*
X13871650Y-9289200D01*
X13871650Y-9259200D02*
X13841650Y-9289200D01*
X13931350Y-8340900D02*
X13961350Y-8370900D01*
X13961350Y-8340900D02*
X13931350Y-8370900D01*
X13966250Y-9110100D02*
X13996250Y-9140100D01*
X13996250Y-9110100D02*
X13966250Y-9140100D01*
X13976250Y-9254400D02*
X14006250Y-9284400D01*
X14006250Y-9254400D02*
X13976250Y-9284400D01*
X13976250Y-9329300D02*
X14006250Y-9359300D01*
X14006250Y-9329300D02*
X13976250Y-9359300D01*
X13989750Y-10879700D02*
X14019750Y-10909700D01*
X14019750Y-10879700D02*
X13989750Y-10909700D01*
X13990250Y-9018700D02*
X14020250Y-9048700D01*
X14020250Y-9018700D02*
X13990250Y-9048700D01*
X13992750Y-8849200D02*
X14022750Y-8879200D01*
X14022750Y-8849200D02*
X13992750Y-8879200D01*
X14089250Y-8508600D02*
X14119250Y-8538600D01*
X14119250Y-8508600D02*
X14089250Y-8538600D01*
X14163178Y-8837872D02*
X14193178Y-8867872D01*
X14193178Y-8837872D02*
X14163178Y-8867872D01*
X14174250Y-7441700D02*
X14204250Y-7471700D01*
X14204250Y-7441700D02*
X14174250Y-7471700D01*
X14210126Y-7981186D02*
X14240126Y-8011186D01*
X14240126Y-7981186D02*
X14210126Y-8011186D01*
X14289850Y-9268800D02*
X14319850Y-9298800D01*
X14319850Y-9268800D02*
X14289850Y-9298800D01*
X14300950Y-8080600D02*
X14330950Y-8110600D01*
X14330950Y-8080600D02*
X14300950Y-8110600D01*
X14321350Y-8746400D02*
X14351350Y-8776400D01*
X14351350Y-8746400D02*
X14321350Y-8776400D01*
X14323050Y-10126200D02*
X14353050Y-10156200D01*
X14353050Y-10126200D02*
X14323050Y-10156200D01*
X14348350Y-11443368D02*
X14378350Y-11473368D01*
X14378350Y-11443368D02*
X14348350Y-11473368D01*
X14373650Y-10679200D02*
X14403650Y-10709200D01*
X14403650Y-10679200D02*
X14373650Y-10709200D01*
X14383250Y-8791000D02*
X14413250Y-8821000D01*
X14413250Y-8791000D02*
X14383250Y-8821000D01*
X14403650Y-10850500D02*
X14433650Y-10880500D01*
X14433650Y-10850500D02*
X14403650Y-10880500D01*
X14408050Y-8170400D02*
X14438050Y-8200400D01*
X14438050Y-8170400D02*
X14408050Y-8200400D01*
X14408050Y-8245000D02*
X14438050Y-8275000D01*
X14438050Y-8245000D02*
X14408050Y-8275000D01*
X14408850Y-8320100D02*
X14438850Y-8350100D01*
X14438850Y-8320100D02*
X14408850Y-8350100D01*
X14414250Y-9537700D02*
X14444250Y-9567700D01*
X14444250Y-9537700D02*
X14414250Y-9567700D01*
X14429650Y-9243000D02*
X14459650Y-9273000D01*
X14459650Y-9243000D02*
X14429650Y-9273000D01*
X14436250Y-9011570D02*
X14466250Y-9041570D01*
X14466250Y-9011570D02*
X14436250Y-9041570D01*
X14436550Y-8409700D02*
X14466550Y-8439700D01*
X14466550Y-8409700D02*
X14436550Y-8439700D01*
X14446350Y-8822000D02*
X14476350Y-8852000D01*
X14476350Y-8822000D02*
X14446350Y-8852000D01*
X14450950Y-9865390D02*
X14480950Y-9895390D01*
X14480950Y-9865390D02*
X14450950Y-9895390D01*
X14454350Y-7427000D02*
X14484350Y-7457000D01*
X14484350Y-7427000D02*
X14454350Y-7457000D01*
X14476550Y-8172200D02*
X14506550Y-8202200D01*
X14506550Y-8172200D02*
X14476550Y-8202200D01*
X14476924Y-11443368D02*
X14506924Y-11473368D01*
X14506924Y-11443368D02*
X14476924Y-11473368D01*
X14477450Y-8242400D02*
X14507450Y-8272400D01*
X14507450Y-8242400D02*
X14477450Y-8272400D01*
X14478350Y-8319600D02*
X14508350Y-8349600D01*
X14508350Y-8319600D02*
X14478350Y-8349600D01*
X14525150Y-9355300D02*
X14555150Y-9385300D01*
X14555150Y-9355300D02*
X14525150Y-9385300D01*
X14526671Y-9865390D02*
X14556671Y-9895390D01*
X14556671Y-9865390D02*
X14526671Y-9895390D01*
X14545950Y-8242400D02*
X14575950Y-8272400D01*
X14575950Y-8242400D02*
X14545950Y-8272400D01*
X14547650Y-8318700D02*
X14577650Y-8348700D01*
X14577650Y-8318700D02*
X14547650Y-8348700D01*
X14572450Y-9980100D02*
X14602450Y-10010100D01*
X14602450Y-9980100D02*
X14572450Y-10010100D01*
X14573050Y-8053500D02*
X14603050Y-8083500D01*
X14603050Y-8053500D02*
X14573050Y-8083500D01*
X14573350Y-7422900D02*
X14603350Y-7452900D01*
X14603350Y-7422900D02*
X14573350Y-7452900D01*
X14599950Y-9518800D02*
X14629950Y-9548800D01*
X14629950Y-9518800D02*
X14599950Y-9548800D01*
X14616150Y-8243300D02*
X14646150Y-8273300D01*
X14646150Y-8243300D02*
X14616150Y-8273300D01*
X14647450Y-7633400D02*
X14677450Y-7663400D01*
X14677450Y-7633400D02*
X14647450Y-7663400D01*
X14649150Y-8057400D02*
X14679150Y-8087400D01*
X14679150Y-8057400D02*
X14649150Y-8087400D01*
X14662200Y-9588750D02*
X14692200Y-9618750D01*
X14692200Y-9588750D02*
X14662200Y-9618750D01*
X14665550Y-11131400D02*
X14695550Y-11161400D01*
X14695550Y-11131400D02*
X14665550Y-11161400D01*
X14712250Y-9981270D02*
X14742250Y-10011270D01*
X14742250Y-9981270D02*
X14712250Y-10011270D01*
X14712350Y-8477800D02*
X14742350Y-8507800D01*
X14742350Y-8477800D02*
X14712350Y-8507800D01*
X14750050Y-8565900D02*
X14780050Y-8595900D01*
X14780050Y-8565900D02*
X14750050Y-8595900D01*
X14784950Y-9457000D02*
X14814950Y-9487000D01*
X14814950Y-9457000D02*
X14784950Y-9487000D01*
X14811450Y-7812000D02*
X14841450Y-7842000D01*
X14841450Y-7812000D02*
X14811450Y-7842000D01*
X14827150Y-11064500D02*
X14857150Y-11094500D01*
X14857150Y-11064500D02*
X14827150Y-11094500D01*
X14835350Y-8057800D02*
X14865350Y-8087800D01*
X14865350Y-8057800D02*
X14835350Y-8087800D01*
X14857950Y-9834300D02*
X14887950Y-9864300D01*
X14887950Y-9834300D02*
X14857950Y-9864300D01*
X14910150Y-8957400D02*
X14940150Y-8987400D01*
X14940150Y-8957400D02*
X14910150Y-8987400D01*
X14923350Y-9365500D02*
X14953350Y-9395500D01*
X14953350Y-9365500D02*
X14923350Y-9395500D01*
X14932050Y-9433100D02*
X14962050Y-9463100D01*
X14962050Y-9433100D02*
X14932050Y-9463100D01*
X14969920Y-9564600D02*
X14999920Y-9594600D01*
X14999920Y-9564600D02*
X14969920Y-9594600D01*
X14984924Y-11443368D02*
X15014924Y-11473368D01*
X15014924Y-11443368D02*
X14984924Y-11473368D01*
X14993050Y-9430900D02*
X15023050Y-9460900D01*
X15023050Y-9430900D02*
X14993050Y-9460900D01*
X15004450Y-9000000D02*
X15034450Y-9030000D01*
X15034450Y-9000000D02*
X15004450Y-9030000D01*
X15006550Y-9355400D02*
X15036550Y-9385400D01*
X15036550Y-9355400D02*
X15006550Y-9385400D01*
X15016950Y-9154200D02*
X15046950Y-9184200D01*
X15046950Y-9154200D02*
X15016950Y-9184200D01*
X15024550Y-9221800D02*
X15054550Y-9251800D01*
X15054550Y-9221800D02*
X15024550Y-9251800D01*
X15143100Y-8163150D02*
X15173100Y-8193150D01*
X15173100Y-8163150D02*
X15143100Y-8193150D01*
X15156150Y-11134400D02*
X15186150Y-11164400D01*
X15186150Y-11134400D02*
X15156150Y-11164400D01*
X15167850Y-9858860D02*
X15197850Y-9888860D01*
X15197850Y-9858860D02*
X15167850Y-9888860D01*
X15238924Y-10681368D02*
X15268924Y-10711368D01*
X15268924Y-10681368D02*
X15238924Y-10711368D01*
X15238924Y-10935368D02*
X15268924Y-10965368D01*
X15268924Y-10935368D02*
X15238924Y-10965368D01*
X15255150Y-7837700D02*
X15285150Y-7867700D01*
X15285150Y-7837700D02*
X15255150Y-7867700D01*
X15292850Y-7401600D02*
X15322850Y-7431600D01*
X15322850Y-7401600D02*
X15292850Y-7431600D01*
X15299750Y-9151100D02*
X15329750Y-9181100D01*
X15329750Y-9151100D02*
X15299750Y-9181100D01*
X15304450Y-9053600D02*
X15334450Y-9083600D01*
X15334450Y-9053600D02*
X15304450Y-9083600D01*
X15355050Y-7890000D02*
X15385050Y-7920000D01*
X15385050Y-7890000D02*
X15355050Y-7920000D01*
X15367350Y-9824500D02*
X15397350Y-9854500D01*
X15397350Y-9824500D02*
X15367350Y-9854500D01*
X15440050Y-8045000D02*
X15470050Y-8075000D01*
X15470050Y-8045000D02*
X15440050Y-8075000D01*
X15490550Y-8567900D02*
X15520550Y-8597900D01*
X15520550Y-8567900D02*
X15490550Y-8597900D01*
X15491450Y-8496300D02*
X15521450Y-8526300D01*
X15521450Y-8496300D02*
X15491450Y-8526300D01*
X15491850Y-8426800D02*
X15521850Y-8456800D01*
X15521850Y-8426800D02*
X15491850Y-8456800D01*
X15493450Y-9058100D02*
X15523450Y-9088100D01*
X15523450Y-9058100D02*
X15493450Y-9088100D01*
X15496450Y-9148300D02*
X15526450Y-9178300D01*
X15526450Y-9148300D02*
X15496450Y-9178300D01*
X15498450Y-9229300D02*
X15528450Y-9259300D01*
X15528450Y-9229300D02*
X15498450Y-9259300D01*
X15540550Y-9645070D02*
X15570550Y-9675070D01*
X15570550Y-9645070D02*
X15540550Y-9675070D01*
X15562550Y-8568300D02*
X15592550Y-8598300D01*
X15592550Y-8568300D02*
X15562550Y-8598300D01*
X15563450Y-8496700D02*
X15593450Y-8526700D01*
X15593450Y-8496700D02*
X15563450Y-8526700D01*
X15563450Y-8907870D02*
X15593450Y-8937870D01*
X15593450Y-8907870D02*
X15563450Y-8937870D01*
X15563850Y-8427200D02*
X15593850Y-8457200D01*
X15593850Y-8427200D02*
X15563850Y-8457200D01*
X15585150Y-8264000D02*
X15615150Y-8294000D01*
X15615150Y-8264000D02*
X15585150Y-8294000D01*
X15588950Y-8132600D02*
X15618950Y-8162600D01*
X15618950Y-8132600D02*
X15588950Y-8162600D01*
X15589650Y-8200100D02*
X15619650Y-8230100D01*
X15619650Y-8200100D02*
X15589650Y-8230100D01*
X15589950Y-7850600D02*
X15619950Y-7880600D01*
X15619950Y-7850600D02*
X15589950Y-7880600D01*
X15599650Y-9123200D02*
X15629650Y-9153200D01*
X15629650Y-9123200D02*
X15599650Y-9153200D01*
X15599650Y-9185100D02*
X15629650Y-9215100D01*
X15629650Y-9185100D02*
X15599650Y-9215100D01*
X15601250Y-9059700D02*
X15631250Y-9089700D01*
X15631250Y-9059700D02*
X15601250Y-9089700D01*
X15601250Y-9254900D02*
X15631250Y-9284900D01*
X15631250Y-9254900D02*
X15601250Y-9284900D01*
X15602850Y-8996200D02*
X15632850Y-9026200D01*
X15632850Y-8996200D02*
X15602850Y-9026200D01*
X15632050Y-8568300D02*
X15662050Y-8598300D01*
X15662050Y-8568300D02*
X15632050Y-8598300D01*
X15632950Y-8496700D02*
X15662950Y-8526700D01*
X15662950Y-8496700D02*
X15632950Y-8526700D01*
X15633350Y-8427200D02*
X15663350Y-8457200D01*
X15663350Y-8427200D02*
X15633350Y-8457200D01*
X15638550Y-7318700D02*
X15668550Y-7348700D01*
X15668550Y-7318700D02*
X15638550Y-7348700D01*
X15645550Y-9301300D02*
X15675550Y-9331300D01*
X15675550Y-9301300D02*
X15645550Y-9331300D01*
X15654350Y-7850600D02*
X15684350Y-7880600D01*
X15684350Y-7850600D02*
X15654350Y-7880600D01*
X15662450Y-9085000D02*
X15692450Y-9115000D01*
X15692450Y-9085000D02*
X15662450Y-9115000D01*
X15673750Y-9243500D02*
X15703750Y-9273500D01*
X15703750Y-9243500D02*
X15673750Y-9273500D01*
X15677950Y-11354600D02*
X15707950Y-11384600D01*
X15707950Y-11354600D02*
X15677950Y-11384600D01*
X15680750Y-8135600D02*
X15710750Y-8165600D01*
X15710750Y-8135600D02*
X15680750Y-8165600D01*
X15683150Y-8264000D02*
X15713150Y-8294000D01*
X15713150Y-8264000D02*
X15683150Y-8294000D01*
X15684450Y-8200100D02*
X15714450Y-8230100D01*
X15714450Y-8200100D02*
X15684450Y-8230100D01*
X15710650Y-9301300D02*
X15740650Y-9331300D01*
X15740650Y-9301300D02*
X15710650Y-9331300D01*
X15725350Y-7318700D02*
X15755350Y-7348700D01*
X15755350Y-7318700D02*
X15725350Y-7348700D01*
X15729850Y-11099300D02*
X15759850Y-11129300D01*
X15759850Y-11099300D02*
X15729850Y-11129300D01*
X15731550Y-9083700D02*
X15761550Y-9113700D01*
X15761550Y-9083700D02*
X15731550Y-9113700D01*
X15735550Y-9241500D02*
X15765550Y-9271500D01*
X15765550Y-9241500D02*
X15735550Y-9271500D01*
X15744150Y-10016400D02*
X15774150Y-10046400D01*
X15774150Y-10016400D02*
X15744150Y-10046400D01*
X15746924Y-10681368D02*
X15776924Y-10711368D01*
X15776924Y-10681368D02*
X15746924Y-10711368D01*
X15755250Y-11032400D02*
X15785250Y-11062400D01*
X15785250Y-11032400D02*
X15755250Y-11062400D01*
X15769550Y-8135600D02*
X15799550Y-8165600D01*
X15799550Y-8135600D02*
X15769550Y-8165600D01*
X15770750Y-8198000D02*
X15800750Y-8228000D01*
X15800750Y-8198000D02*
X15770750Y-8228000D01*
X15770750Y-8262600D02*
X15800750Y-8292600D01*
X15800750Y-8262600D02*
X15770750Y-8292600D01*
X15773350Y-11352500D02*
X15803350Y-11382500D01*
X15803350Y-11352500D02*
X15773350Y-11382500D01*
X15801050Y-9327000D02*
X15831050Y-9357000D01*
X15831050Y-9327000D02*
X15801050Y-9357000D01*
X15865550Y-8198000D02*
X15895550Y-8228000D01*
X15895550Y-8198000D02*
X15865550Y-8228000D01*
X15866550Y-8261100D02*
X15896550Y-8291100D01*
X15896550Y-8261100D02*
X15866550Y-8291100D01*
X15949750Y-8198700D02*
X15979750Y-8228700D01*
X15979750Y-8198700D02*
X15949750Y-8228700D01*
X15951250Y-8264000D02*
X15981250Y-8294000D01*
X15981250Y-8264000D02*
X15951250Y-8294000D01*
X16000924Y-11697368D02*
X16030924Y-11727368D01*
X16030924Y-11697368D02*
X16000924Y-11727368D01*
X16010650Y-7026200D02*
X16040650Y-7056200D01*
X16040650Y-7026200D02*
X16010650Y-7056200D01*
X16134850Y-6983400D02*
X16164850Y-7013400D01*
X16164850Y-6983400D02*
X16134850Y-7013400D01*
X16182550Y-7427300D02*
X16212550Y-7457300D01*
X16212550Y-7427300D02*
X16182550Y-7457300D01*
X16184550Y-7316700D02*
X16214550Y-7346700D01*
X16214550Y-7316700D02*
X16184550Y-7346700D01*
X16202950Y-8643900D02*
X16232950Y-8673900D01*
X16232950Y-8643900D02*
X16202950Y-8673900D01*
X16238750Y-7040500D02*
X16268750Y-7070500D01*
X16268750Y-7040500D02*
X16238750Y-7070500D01*
X16253150Y-10434000D02*
X16283150Y-10464000D01*
X16283150Y-10434000D02*
X16253150Y-10464000D01*
X16274050Y-11058300D02*
X16304050Y-11088300D01*
X16304050Y-11058300D02*
X16274050Y-11088300D01*
X16289650Y-9605200D02*
X16319650Y-9635200D01*
X16319650Y-9605200D02*
X16289650Y-9635200D01*
X16289750Y-9674800D02*
X16319750Y-9704800D01*
X16319750Y-9674800D02*
X16289750Y-9704800D01*
X16291150Y-8081300D02*
X16321150Y-8111300D01*
X16321150Y-8081300D02*
X16291150Y-8111300D01*
X16324350Y-11251000D02*
X16354350Y-11281000D01*
X16354350Y-11251000D02*
X16324350Y-11281000D01*
X16328850Y-11325500D02*
X16358850Y-11355500D01*
X16358850Y-11325500D02*
X16328850Y-11355500D01*
X16334650Y-7399800D02*
X16364650Y-7429800D01*
X16364650Y-7399800D02*
X16334650Y-7429800D01*
X16338450Y-7154500D02*
X16368450Y-7184500D01*
X16368450Y-7154500D02*
X16338450Y-7184500D01*
X16344650Y-6997700D02*
X16374650Y-7027700D01*
X16374650Y-6997700D02*
X16344650Y-7027700D01*
X16364050Y-8054200D02*
X16394050Y-8084200D01*
X16394050Y-8054200D02*
X16364050Y-8084200D01*
X16371050Y-6891800D02*
X16401050Y-6921800D01*
X16401050Y-6891800D02*
X16371050Y-6921800D01*
X16401850Y-11278046D02*
X16431850Y-11308046D01*
X16431850Y-11278046D02*
X16401850Y-11308046D01*
X16426050Y-6961000D02*
X16456050Y-6991000D01*
X16456050Y-6961000D02*
X16426050Y-6991000D01*
X16458650Y-6842900D02*
X16488650Y-6872900D01*
X16488650Y-6842900D02*
X16458650Y-6872900D01*
X16469350Y-11379500D02*
X16499350Y-11409500D01*
X16499350Y-11379500D02*
X16469350Y-11409500D01*
X16469350Y-11449200D02*
X16499350Y-11479200D01*
X16499350Y-11449200D02*
X16469350Y-11479200D01*
X16469550Y-9973700D02*
X16499550Y-10003700D01*
X16499550Y-9973700D02*
X16469550Y-10003700D01*
X16471450Y-11521000D02*
X16501450Y-11551000D01*
X16501450Y-11521000D02*
X16471450Y-11551000D01*
X16475950Y-9586000D02*
X16505950Y-9616000D01*
X16505950Y-9586000D02*
X16475950Y-9616000D01*
X16480450Y-9756500D02*
X16510450Y-9786500D01*
X16510450Y-9756500D02*
X16480450Y-9786500D01*
X16596450Y-10045700D02*
X16626450Y-10075700D01*
X16626450Y-10045700D02*
X16596450Y-10075700D01*
X16673950Y-10045700D02*
X16703950Y-10075700D01*
X16703950Y-10045700D02*
X16673950Y-10075700D01*
X16681750Y-7500800D02*
X16711750Y-7530800D01*
X16711750Y-7500800D02*
X16681750Y-7530800D01*
X16701750Y-8774700D02*
X16731750Y-8804700D01*
X16731750Y-8774700D02*
X16701750Y-8804700D01*
X16706450Y-8569000D02*
X16736450Y-8599000D01*
X16736450Y-8569000D02*
X16706450Y-8599000D01*
X16801150Y-7049700D02*
X16831150Y-7079700D01*
X16831150Y-7049700D02*
X16801150Y-7079700D01*
X16801150Y-7118000D02*
X16831150Y-7148000D01*
X16831150Y-7118000D02*
X16801150Y-7148000D01*
X16803050Y-7185000D02*
X16833050Y-7215000D01*
X16833050Y-7185000D02*
X16803050Y-7215000D01*
X16803050Y-7253800D02*
X16833050Y-7283800D01*
X16833050Y-7253800D02*
X16803050Y-7283800D01*
X16862550Y-7080800D02*
X16892550Y-7110800D01*
X16892550Y-7080800D02*
X16862550Y-7110800D01*
X16864450Y-7149600D02*
X16894450Y-7179600D01*
X16894450Y-7149600D02*
X16864450Y-7179600D01*
X16864450Y-7224000D02*
X16894450Y-7254000D01*
X16894450Y-7224000D02*
X16864450Y-7254000D01*
X16964150Y-7052300D02*
X16994150Y-7082300D01*
X16994150Y-7052300D02*
X16964150Y-7082300D01*
X17016924Y-7633368D02*
X17046924Y-7663368D01*
X17046924Y-7633368D02*
X17016924Y-7663368D01*
X17016924Y-7887368D02*
X17046924Y-7917368D01*
X17046924Y-7887368D02*
X17016924Y-7917368D01*
X17016924Y-8141368D02*
X17046924Y-8171368D01*
X17046924Y-8141368D02*
X17016924Y-8171368D01*
X17016924Y-10681368D02*
X17046924Y-10711368D01*
X17046924Y-10681368D02*
X17016924Y-10711368D01*
X17016924Y-10935368D02*
X17046924Y-10965368D01*
X17046924Y-10935368D02*
X17016924Y-10965368D01*
X17016924Y-11189368D02*
X17046924Y-11219368D01*
X17046924Y-11189368D02*
X17016924Y-11219368D01*
X17016924Y-11443368D02*
X17046924Y-11473368D01*
X17046924Y-11443368D02*
X17016924Y-11473368D01*
X17060022Y-6477400D02*
X17090022Y-6507400D01*
X17090022Y-6477400D02*
X17060022Y-6507400D01*
X17099770Y-12334201D02*
X17129770Y-12364201D01*
X17129770Y-12334201D02*
X17099770Y-12364201D01*
X17156384Y-6596635D02*
X17186384Y-6626635D01*
X17186384Y-6596635D02*
X17156384Y-6626635D01*
X17237866Y-12093124D02*
X17267866Y-12123124D01*
X17267866Y-12093124D02*
X17237866Y-12123124D01*
X17254277Y-6689040D02*
X17284277Y-6719040D01*
X17284277Y-6689040D02*
X17254277Y-6719040D01*
X17270924Y-7125368D02*
X17300924Y-7155368D01*
X17300924Y-7125368D02*
X17270924Y-7155368D01*
X17270924Y-7379368D02*
X17300924Y-7409368D01*
X17300924Y-7379368D02*
X17270924Y-7409368D01*
X17270924Y-7633368D02*
X17300924Y-7663368D01*
X17300924Y-7633368D02*
X17270924Y-7663368D01*
X17270924Y-11189368D02*
X17300924Y-11219368D01*
X17300924Y-11189368D02*
X17270924Y-11219368D01*
X17270924Y-11443368D02*
X17300924Y-11473368D01*
X17300924Y-11443368D02*
X17270924Y-11473368D01*
X17274264Y-12456234D02*
X17304264Y-12486234D01*
X17304264Y-12456234D02*
X17274264Y-12486234D01*
X17281332Y-6334848D02*
X17311332Y-6364848D01*
X17311332Y-6334848D02*
X17281332Y-6364848D01*
X17360650Y-12217400D02*
X17390650Y-12247400D01*
X17390650Y-12217400D02*
X17360650Y-12247400D01*
X17378981Y-6809236D02*
X17408981Y-6839236D01*
X17408981Y-6809236D02*
X17378981Y-6839236D01*
X17382416Y-6586701D02*
X17412416Y-6616701D01*
X17412416Y-6586701D02*
X17382416Y-6616701D01*
X17443164Y-11898474D02*
X17473164Y-11928474D01*
X17473164Y-11898474D02*
X17443164Y-11928474D01*
X17448757Y-12578267D02*
X17478757Y-12608267D01*
X17478757Y-12578267D02*
X17448757Y-12608267D01*
X17498450Y-12295600D02*
X17528450Y-12325600D01*
X17528450Y-12295600D02*
X17498450Y-12325600D01*
X17511908Y-6516533D02*
X17541908Y-6546533D01*
X17541908Y-6516533D02*
X17511908Y-6546533D01*
X17521106Y-12019293D02*
X17551106Y-12049293D01*
X17551106Y-12019293D02*
X17521106Y-12049293D01*
X17531768Y-6157952D02*
X17561768Y-6187952D01*
X17561768Y-6157952D02*
X17531768Y-6187952D01*
X17565914Y-6718135D02*
X17595914Y-6748135D01*
X17595914Y-6718135D02*
X17565914Y-6748135D01*
X17579655Y-12155354D02*
X17609655Y-12185354D01*
X17609655Y-12155354D02*
X17579655Y-12185354D01*
X17604550Y-11755753D02*
X17634550Y-11785753D01*
X17634550Y-11755753D02*
X17604550Y-11785753D01*
X17619112Y-6406943D02*
X17649112Y-6436943D01*
X17649112Y-6406943D02*
X17619112Y-6436943D01*
X17619829Y-7073482D02*
X17649829Y-7103482D01*
X17649829Y-7073482D02*
X17619829Y-7103482D01*
X17623250Y-12700300D02*
X17653250Y-12730300D01*
X17653250Y-12700300D02*
X17623250Y-12730300D01*
X17640950Y-6626100D02*
X17670950Y-6656100D01*
X17670950Y-6626100D02*
X17640950Y-6656100D01*
X17644650Y-12477500D02*
X17674650Y-12507500D01*
X17674650Y-12477500D02*
X17644650Y-12507500D01*
X17656986Y-6069505D02*
X17686986Y-6099505D01*
X17686986Y-6069505D02*
X17656986Y-6099505D01*
X17689245Y-12262558D02*
X17719245Y-12292558D01*
X17719245Y-12262558D02*
X17689245Y-12292558D01*
X17724297Y-6103786D02*
X17754297Y-6133786D01*
X17754297Y-6103786D02*
X17724297Y-6133786D01*
X17726035Y-6297081D02*
X17756035Y-6327081D01*
X17756035Y-6297081D02*
X17726035Y-6327081D01*
X17778476Y-12536876D02*
X17808476Y-12566876D01*
X17808476Y-12536876D02*
X17778476Y-12566876D01*
X17784850Y-6784000D02*
X17814850Y-6814000D01*
X17814850Y-6784000D02*
X17784850Y-6814000D01*
X17786607Y-11969045D02*
X17816607Y-11999045D01*
X17816607Y-11969045D02*
X17786607Y-11999045D01*
X17791150Y-6449300D02*
X17821150Y-6479300D01*
X17821150Y-6449300D02*
X17791150Y-6479300D01*
X17798930Y-12369664D02*
X17828930Y-12399664D01*
X17828930Y-12369664D02*
X17798930Y-12399664D01*
X17832071Y-6186361D02*
X17862071Y-6216361D01*
X17862071Y-6186361D02*
X17832071Y-6216361D01*
X17875054Y-12094263D02*
X17905054Y-12124263D01*
X17905054Y-12094263D02*
X17875054Y-12124263D01*
X17906883Y-6609507D02*
X17936883Y-6639507D01*
X17936883Y-6609507D02*
X17906883Y-6639507D01*
X17909650Y-12475700D02*
X17939650Y-12505700D01*
X17939650Y-12475700D02*
X17909650Y-12505700D01*
X17963502Y-12219481D02*
X17993502Y-12249481D01*
X17993502Y-12219481D02*
X17963502Y-12249481D01*
X17968403Y-6347547D02*
X17998403Y-6377547D01*
X17998403Y-6347547D02*
X17968403Y-6377547D01*
X17993408Y-12413124D02*
X18023408Y-12443124D01*
X18023408Y-12413124D02*
X17993408Y-12443124D01*
X18018950Y-6498500D02*
X18048950Y-6528500D01*
X18048950Y-6498500D02*
X18018950Y-6528500D01*
X18051950Y-12344700D02*
X18081950Y-12374700D01*
X18081950Y-12344700D02*
X18051950Y-12374700D01*
X14762750Y-10649400D02*
G75*
G02*
X14732750Y-10649400I-15000J0D01*
G01*
X14732750Y-10649400D02*
G75*
G02*
X14762750Y-10649400I15000J0D01*
G01*
X14762750Y-10789400D02*
G75*
G02*
X14732750Y-10789400I-15000J0D01*
G01*
X14732750Y-10789400D02*
G75*
G02*
X14762750Y-10789400I15000J0D01*
G01*
X14832750Y-10579400D02*
G75*
G02*
X14802750Y-10579400I-15000J0D01*
G01*
X14802750Y-10579400D02*
G75*
G02*
X14832750Y-10579400I15000J0D01*
G01*
X14832750Y-10719400D02*
G75*
G02*
X14802750Y-10719400I-15000J0D01*
G01*
X14802750Y-10719400D02*
G75*
G02*
X14832750Y-10719400I15000J0D01*
G01*
X14832750Y-10859400D02*
G75*
G02*
X14802750Y-10859400I-15000J0D01*
G01*
X14802750Y-10859400D02*
G75*
G02*
X14832750Y-10859400I15000J0D01*
G01*
X14902750Y-10649400D02*
G75*
G02*
X14872750Y-10649400I-15000J0D01*
G01*
X14872750Y-10649400D02*
G75*
G02*
X14902750Y-10649400I15000J0D01*
G01*
X14902750Y-10789400D02*
G75*
G02*
X14872750Y-10789400I-15000J0D01*
G01*
X14872750Y-10789400D02*
G75*
G02*
X14902750Y-10789400I15000J0D01*
G01*
X14972750Y-10579400D02*
G75*
G02*
X14942750Y-10579400I-15000J0D01*
G01*
X14942750Y-10579400D02*
G75*
G02*
X14972750Y-10579400I15000J0D01*
G01*
X14972750Y-10719400D02*
G75*
G02*
X14942750Y-10719400I-15000J0D01*
G01*
X14942750Y-10719400D02*
G75*
G02*
X14972750Y-10719400I15000J0D01*
G01*
X14972750Y-10859400D02*
G75*
G02*
X14942750Y-10859400I-15000J0D01*
G01*
X14942750Y-10859400D02*
G75*
G02*
X14972750Y-10859400I15000J0D01*
G01*
X15042750Y-10649400D02*
G75*
G02*
X15012750Y-10649400I-15000J0D01*
G01*
X15012750Y-10649400D02*
G75*
G02*
X15042750Y-10649400I15000J0D01*
G01*
X15042750Y-10789400D02*
G75*
G02*
X15012750Y-10789400I-15000J0D01*
G01*
X15012750Y-10789400D02*
G75*
G02*
X15042750Y-10789400I15000J0D01*
G01*
X13606150Y-10270485D02*
X13606150Y-10330485D01*
X13576150Y-10300485D02*
X13636150Y-10300485D01*
X13606150Y-10395505D02*
X13606150Y-10455505D01*
X13576150Y-10425505D02*
X13636150Y-10425505D01*
X14305750Y-7410900D02*
X14305750Y-7470900D01*
X14275750Y-7440900D02*
X14335750Y-7440900D01*
X14335750Y-7470900D02*
X14335750Y-7410900D01*
X14275750Y-7410900D02*
G75*
G02*
X14335750Y-7410900I30000J0D01*
G01*
X14275750Y-7410900D02*
X14275750Y-7470900D01*
X14275750Y-7470900D02*
G75*
G03*
X14335750Y-7470900I30000J0D01*
G01*
X14305750Y-7828900D02*
X14305750Y-7888900D01*
X14275750Y-7858900D02*
X14335750Y-7858900D01*
X14335750Y-7913900D02*
X14335750Y-7803900D01*
X14275750Y-7803900D02*
G75*
G02*
X14335750Y-7803900I30000J0D01*
G01*
X14275750Y-7803900D02*
X14275750Y-7913900D01*
X14275750Y-7913900D02*
G75*
G03*
X14335750Y-7913900I30000J0D01*
G01*
X15169750Y-7410900D02*
X15169750Y-7470900D01*
X15139750Y-7440900D02*
X15199750Y-7440900D01*
X15199750Y-7470900D02*
X15199750Y-7410900D01*
X15139750Y-7410900D02*
G75*
G02*
X15199750Y-7410900I30000J0D01*
G01*
X15139750Y-7410900D02*
X15139750Y-7470900D01*
X15139750Y-7470900D02*
G75*
G03*
X15199750Y-7470900I30000J0D01*
G01*
X15169750Y-7828900D02*
X15169750Y-7888900D01*
X15139750Y-7858900D02*
X15199750Y-7858900D01*
X15199750Y-7913900D02*
X15199750Y-7803900D01*
X15139750Y-7803900D02*
G75*
G02*
X15199750Y-7803900I30000J0D01*
G01*
X15139750Y-7803900D02*
X15139750Y-7913900D01*
X15139750Y-7913900D02*
G75*
G03*
X15199750Y-7913900I30000J0D01*
G01*
X12663006Y-7455756D02*
X12663006Y-7385044D01*
X12592294Y-7385044D01*
X12592294Y-7455756D01*
X12663006Y-7455756D01*
X12663006Y-7709756D02*
X12663006Y-7639044D01*
X12592294Y-7639044D01*
X12592294Y-7709756D01*
X12663006Y-7709756D01*
X12663006Y-7963756D02*
X12663006Y-7893044D01*
X12592294Y-7893044D01*
X12592294Y-7963756D01*
X12663006Y-7963756D01*
X12663006Y-8217756D02*
X12663006Y-8147044D01*
X12592294Y-8147044D01*
X12592294Y-8217756D01*
X12663006Y-8217756D01*
X12663006Y-8471756D02*
X12663006Y-8401044D01*
X12592294Y-8401044D01*
X12592294Y-8471756D01*
X12663006Y-8471756D01*
X12663006Y-8725756D02*
X12663006Y-8655044D01*
X12592294Y-8655044D01*
X12592294Y-8725756D01*
X12663006Y-8725756D01*
X12663006Y-10173756D02*
X12663006Y-10103044D01*
X12592294Y-10103044D01*
X12592294Y-10173756D01*
X12663006Y-10173756D01*
X12663006Y-10427756D02*
X12663006Y-10357044D01*
X12592294Y-10357044D01*
X12592294Y-10427756D01*
X12663006Y-10427756D01*
X12663006Y-10681756D02*
X12663006Y-10611044D01*
X12592294Y-10611044D01*
X12592294Y-10681756D01*
X12663006Y-10681756D01*
X12663006Y-10935756D02*
X12663006Y-10865044D01*
X12592294Y-10865044D01*
X12592294Y-10935756D01*
X12663006Y-10935756D01*
X12663006Y-11189756D02*
X12663006Y-11119044D01*
X12592294Y-11119044D01*
X12592294Y-11189756D01*
X12663006Y-11189756D01*
X12663006Y-11443756D02*
X12663006Y-11373044D01*
X12592294Y-11373044D01*
X12592294Y-11443756D01*
X12663006Y-11443756D01*
X16883106Y-7455756D02*
X16883106Y-7385044D01*
X16812394Y-7385044D01*
X16812394Y-7455756D01*
X16883106Y-7455756D01*
X16883106Y-7709756D02*
X16883106Y-7639044D01*
X16812394Y-7639044D01*
X16812394Y-7709756D01*
X16883106Y-7709756D01*
X16883106Y-7963756D02*
X16883106Y-7893044D01*
X16812394Y-7893044D01*
X16812394Y-7963756D01*
X16883106Y-7963756D01*
X16883106Y-8217756D02*
X16883106Y-8147044D01*
X16812394Y-8147044D01*
X16812394Y-8217756D01*
X16883106Y-8217756D01*
X16883106Y-8471756D02*
X16883106Y-8401044D01*
X16812394Y-8401044D01*
X16812394Y-8471756D01*
X16883106Y-8471756D01*
X16883106Y-8725756D02*
X16883106Y-8655044D01*
X16812394Y-8655044D01*
X16812394Y-8725756D01*
X16883106Y-8725756D01*
X16883106Y-10173756D02*
X16883106Y-10103044D01*
X16812394Y-10103044D01*
X16812394Y-10173756D01*
X16883106Y-10173756D01*
X16883106Y-10427756D02*
X16883106Y-10357044D01*
X16812394Y-10357044D01*
X16812394Y-10427756D01*
X16883106Y-10427756D01*
X16883106Y-10681756D02*
X16883106Y-10611044D01*
X16812394Y-10611044D01*
X16812394Y-10681756D01*
X16883106Y-10681756D01*
X16883106Y-10935756D02*
X16883106Y-10865044D01*
X16812394Y-10865044D01*
X16812394Y-10935756D01*
X16883106Y-10935756D01*
X16883106Y-11189756D02*
X16883106Y-11119044D01*
X16812394Y-11119044D01*
X16812394Y-11189756D01*
X16883106Y-11189756D01*
X16883106Y-11443756D02*
X16883106Y-11373044D01*
X16812394Y-11373044D01*
X16812394Y-11443756D01*
X16883106Y-11443756D01*
D14*
X15865650Y-8064500D02*
X15925590Y-8004560D01*
X15865650Y-7944620D01*
X15805710Y-8004560D01*
X15865650Y-8064500D01*
X16115850Y-8064500D02*
X16175790Y-8004560D01*
X16115850Y-7944620D01*
X16055910Y-8004560D01*
X16115850Y-8064500D01*
D12*
X9997218Y-14730152D02*
X9997218Y-14530152D01*
X9997218Y-14530152D02*
X10044837Y-14530152D01*
X10044837Y-14530152D02*
X10073409Y-14539676D01*
X10073409Y-14539676D02*
X10092457Y-14558723D01*
X10092457Y-14558723D02*
X10101980Y-14577771D01*
X10101980Y-14577771D02*
X10111504Y-14615866D01*
X10111504Y-14615866D02*
X10111504Y-14644437D01*
X10111504Y-14644437D02*
X10101980Y-14682533D01*
X10101980Y-14682533D02*
X10092457Y-14701580D01*
X10092457Y-14701580D02*
X10073409Y-14720628D01*
X10073409Y-14720628D02*
X10044837Y-14730152D01*
X10044837Y-14730152D02*
X9997218Y-14730152D01*
X10197218Y-14730152D02*
X10197218Y-14596818D01*
X10197218Y-14634914D02*
X10206742Y-14615866D01*
X10206742Y-14615866D02*
X10216266Y-14606342D01*
X10216266Y-14606342D02*
X10235314Y-14596818D01*
X10235314Y-14596818D02*
X10254361Y-14596818D01*
X10321028Y-14730152D02*
X10321028Y-14596818D01*
X10321028Y-14530152D02*
X10311504Y-14539676D01*
X10311504Y-14539676D02*
X10321028Y-14549199D01*
X10321028Y-14549199D02*
X10330552Y-14539676D01*
X10330552Y-14539676D02*
X10321028Y-14530152D01*
X10321028Y-14530152D02*
X10321028Y-14549199D01*
X10444837Y-14730152D02*
X10425790Y-14720628D01*
X10425790Y-14720628D02*
X10416266Y-14701580D01*
X10416266Y-14701580D02*
X10416266Y-14530152D01*
X10549599Y-14730152D02*
X10530552Y-14720628D01*
X10530552Y-14720628D02*
X10521028Y-14701580D01*
X10521028Y-14701580D02*
X10521028Y-14530152D01*
X10778171Y-14730152D02*
X10778171Y-14530152D01*
X10778171Y-14530152D02*
X10844838Y-14673009D01*
X10844838Y-14673009D02*
X10911504Y-14530152D01*
X10911504Y-14530152D02*
X10911504Y-14730152D01*
X11092457Y-14730152D02*
X11092457Y-14625390D01*
X11092457Y-14625390D02*
X11082933Y-14606342D01*
X11082933Y-14606342D02*
X11063885Y-14596818D01*
X11063885Y-14596818D02*
X11025790Y-14596818D01*
X11025790Y-14596818D02*
X11006742Y-14606342D01*
X11092457Y-14720628D02*
X11073409Y-14730152D01*
X11073409Y-14730152D02*
X11025790Y-14730152D01*
X11025790Y-14730152D02*
X11006742Y-14720628D01*
X11006742Y-14720628D02*
X10997218Y-14701580D01*
X10997218Y-14701580D02*
X10997218Y-14682533D01*
X10997218Y-14682533D02*
X11006742Y-14663485D01*
X11006742Y-14663485D02*
X11025790Y-14653961D01*
X11025790Y-14653961D02*
X11073409Y-14653961D01*
X11073409Y-14653961D02*
X11092457Y-14644437D01*
X11187695Y-14596818D02*
X11187695Y-14796818D01*
X11187695Y-14606342D02*
X11206742Y-14596818D01*
X11206742Y-14596818D02*
X11244837Y-14596818D01*
X11244837Y-14596818D02*
X11263885Y-14606342D01*
X11263885Y-14606342D02*
X11273409Y-14615866D01*
X11273409Y-14615866D02*
X11282933Y-14634914D01*
X11282933Y-14634914D02*
X11282933Y-14692056D01*
X11282933Y-14692056D02*
X11273409Y-14711104D01*
X11273409Y-14711104D02*
X11263885Y-14720628D01*
X11263885Y-14720628D02*
X11244837Y-14730152D01*
X11244837Y-14730152D02*
X11206742Y-14730152D01*
X11206742Y-14730152D02*
X11187695Y-14720628D01*
X11368647Y-14711104D02*
X11378171Y-14720628D01*
X11378171Y-14720628D02*
X11368647Y-14730152D01*
X11368647Y-14730152D02*
X11359123Y-14720628D01*
X11359123Y-14720628D02*
X11368647Y-14711104D01*
X11368647Y-14711104D02*
X11368647Y-14730152D01*
X11368647Y-14606342D02*
X11378171Y-14615866D01*
X11378171Y-14615866D02*
X11368647Y-14625390D01*
X11368647Y-14625390D02*
X11359123Y-14615866D01*
X11359123Y-14615866D02*
X11368647Y-14606342D01*
X11368647Y-14606342D02*
X11368647Y-14625390D01*
D13*
X9706442Y-15043668D02*
X9736442Y-15073668D01*
X9736442Y-15043668D02*
X9706442Y-15073668D01*
D12*
X10035314Y-14950152D02*
X10054361Y-14950152D01*
X10054361Y-14950152D02*
X10073409Y-14959676D01*
X10073409Y-14959676D02*
X10082933Y-14969199D01*
X10082933Y-14969199D02*
X10092457Y-14988247D01*
X10092457Y-14988247D02*
X10101980Y-15026342D01*
X10101980Y-15026342D02*
X10101980Y-15073961D01*
X10101980Y-15073961D02*
X10092457Y-15112056D01*
X10092457Y-15112056D02*
X10082933Y-15131104D01*
X10082933Y-15131104D02*
X10073409Y-15140628D01*
X10073409Y-15140628D02*
X10054361Y-15150152D01*
X10054361Y-15150152D02*
X10035314Y-15150152D01*
X10035314Y-15150152D02*
X10016266Y-15140628D01*
X10016266Y-15140628D02*
X10006742Y-15131104D01*
X10006742Y-15131104D02*
X9997218Y-15112056D01*
X9997218Y-15112056D02*
X9987695Y-15073961D01*
X9987695Y-15073961D02*
X9987695Y-15026342D01*
X9987695Y-15026342D02*
X9997218Y-14988247D01*
X9997218Y-14988247D02*
X10006742Y-14969199D01*
X10006742Y-14969199D02*
X10016266Y-14959676D01*
X10016266Y-14959676D02*
X10035314Y-14950152D01*
X10187695Y-15131104D02*
X10197218Y-15140628D01*
X10197218Y-15140628D02*
X10187695Y-15150152D01*
X10187695Y-15150152D02*
X10178171Y-15140628D01*
X10178171Y-15140628D02*
X10187695Y-15131104D01*
X10187695Y-15131104D02*
X10187695Y-15150152D01*
X10263885Y-14950152D02*
X10387695Y-14950152D01*
X10387695Y-14950152D02*
X10321028Y-15026342D01*
X10321028Y-15026342D02*
X10349599Y-15026342D01*
X10349599Y-15026342D02*
X10368647Y-15035866D01*
X10368647Y-15035866D02*
X10378171Y-15045390D01*
X10378171Y-15045390D02*
X10387695Y-15064437D01*
X10387695Y-15064437D02*
X10387695Y-15112056D01*
X10387695Y-15112056D02*
X10378171Y-15131104D01*
X10378171Y-15131104D02*
X10368647Y-15140628D01*
X10368647Y-15140628D02*
X10349599Y-15150152D01*
X10349599Y-15150152D02*
X10292457Y-15150152D01*
X10292457Y-15150152D02*
X10273409Y-15140628D01*
X10273409Y-15140628D02*
X10263885Y-15131104D01*
X10511504Y-14950152D02*
X10530552Y-14950152D01*
X10530552Y-14950152D02*
X10549599Y-14959676D01*
X10549599Y-14959676D02*
X10559123Y-14969199D01*
X10559123Y-14969199D02*
X10568647Y-14988247D01*
X10568647Y-14988247D02*
X10578171Y-15026342D01*
X10578171Y-15026342D02*
X10578171Y-15073961D01*
X10578171Y-15073961D02*
X10568647Y-15112056D01*
X10568647Y-15112056D02*
X10559123Y-15131104D01*
X10559123Y-15131104D02*
X10549599Y-15140628D01*
X10549599Y-15140628D02*
X10530552Y-15150152D01*
X10530552Y-15150152D02*
X10511504Y-15150152D01*
X10511504Y-15150152D02*
X10492457Y-15140628D01*
X10492457Y-15140628D02*
X10482933Y-15131104D01*
X10482933Y-15131104D02*
X10473409Y-15112056D01*
X10473409Y-15112056D02*
X10463885Y-15073961D01*
X10463885Y-15073961D02*
X10463885Y-15026342D01*
X10463885Y-15026342D02*
X10473409Y-14988247D01*
X10473409Y-14988247D02*
X10482933Y-14969199D01*
X10482933Y-14969199D02*
X10492457Y-14959676D01*
X10492457Y-14959676D02*
X10511504Y-14950152D01*
X10701980Y-14950152D02*
X10721028Y-14950152D01*
X10721028Y-14950152D02*
X10740076Y-14959676D01*
X10740076Y-14959676D02*
X10749599Y-14969199D01*
X10749599Y-14969199D02*
X10759123Y-14988247D01*
X10759123Y-14988247D02*
X10768647Y-15026342D01*
X10768647Y-15026342D02*
X10768647Y-15073961D01*
X10768647Y-15073961D02*
X10759123Y-15112056D01*
X10759123Y-15112056D02*
X10749599Y-15131104D01*
X10749599Y-15131104D02*
X10740076Y-15140628D01*
X10740076Y-15140628D02*
X10721028Y-15150152D01*
X10721028Y-15150152D02*
X10701980Y-15150152D01*
X10701980Y-15150152D02*
X10682933Y-15140628D01*
X10682933Y-15140628D02*
X10673409Y-15131104D01*
X10673409Y-15131104D02*
X10663885Y-15112056D01*
X10663885Y-15112056D02*
X10654361Y-15073961D01*
X10654361Y-15073961D02*
X10654361Y-15026342D01*
X10654361Y-15026342D02*
X10663885Y-14988247D01*
X10663885Y-14988247D02*
X10673409Y-14969199D01*
X10673409Y-14969199D02*
X10682933Y-14959676D01*
X10682933Y-14959676D02*
X10701980Y-14950152D01*
X10854361Y-15150152D02*
X10854361Y-15016818D01*
X10854361Y-15035866D02*
X10863885Y-15026342D01*
X10863885Y-15026342D02*
X10882933Y-15016818D01*
X10882933Y-15016818D02*
X10911504Y-15016818D01*
X10911504Y-15016818D02*
X10930552Y-15026342D01*
X10930552Y-15026342D02*
X10940076Y-15045390D01*
X10940076Y-15045390D02*
X10940076Y-15150152D01*
X10940076Y-15045390D02*
X10949599Y-15026342D01*
X10949599Y-15026342D02*
X10968647Y-15016818D01*
X10968647Y-15016818D02*
X10997218Y-15016818D01*
X10997218Y-15016818D02*
X11016266Y-15026342D01*
X11016266Y-15026342D02*
X11025790Y-15045390D01*
X11025790Y-15045390D02*
X11025790Y-15150152D01*
X11121028Y-15150152D02*
X11121028Y-15016818D01*
X11121028Y-15035866D02*
X11130552Y-15026342D01*
X11130552Y-15026342D02*
X11149599Y-15016818D01*
X11149599Y-15016818D02*
X11178171Y-15016818D01*
X11178171Y-15016818D02*
X11197218Y-15026342D01*
X11197218Y-15026342D02*
X11206742Y-15045390D01*
X11206742Y-15045390D02*
X11206742Y-15150152D01*
X11206742Y-15045390D02*
X11216266Y-15026342D01*
X11216266Y-15026342D02*
X11235314Y-15016818D01*
X11235314Y-15016818D02*
X11263885Y-15016818D01*
X11263885Y-15016818D02*
X11282933Y-15026342D01*
X11282933Y-15026342D02*
X11292457Y-15045390D01*
X11292457Y-15045390D02*
X11292457Y-15150152D01*
X11682933Y-14940628D02*
X11511504Y-15197771D01*
X11940076Y-14950152D02*
X11959123Y-14950152D01*
X11959123Y-14950152D02*
X11978171Y-14959676D01*
X11978171Y-14959676D02*
X11987695Y-14969199D01*
X11987695Y-14969199D02*
X11997219Y-14988247D01*
X11997219Y-14988247D02*
X12006742Y-15026342D01*
X12006742Y-15026342D02*
X12006742Y-15073961D01*
X12006742Y-15073961D02*
X11997219Y-15112056D01*
X11997219Y-15112056D02*
X11987695Y-15131104D01*
X11987695Y-15131104D02*
X11978171Y-15140628D01*
X11978171Y-15140628D02*
X11959123Y-15150152D01*
X11959123Y-15150152D02*
X11940076Y-15150152D01*
X11940076Y-15150152D02*
X11921028Y-15140628D01*
X11921028Y-15140628D02*
X11911504Y-15131104D01*
X11911504Y-15131104D02*
X11901980Y-15112056D01*
X11901980Y-15112056D02*
X11892457Y-15073961D01*
X11892457Y-15073961D02*
X11892457Y-15026342D01*
X11892457Y-15026342D02*
X11901980Y-14988247D01*
X11901980Y-14988247D02*
X11911504Y-14969199D01*
X11911504Y-14969199D02*
X11921028Y-14959676D01*
X11921028Y-14959676D02*
X11940076Y-14950152D01*
X12092457Y-15131104D02*
X12101980Y-15140628D01*
X12101980Y-15140628D02*
X12092457Y-15150152D01*
X12092457Y-15150152D02*
X12082933Y-15140628D01*
X12082933Y-15140628D02*
X12092457Y-15131104D01*
X12092457Y-15131104D02*
X12092457Y-15150152D01*
X12225790Y-14950152D02*
X12244838Y-14950152D01*
X12244838Y-14950152D02*
X12263885Y-14959676D01*
X12263885Y-14959676D02*
X12273409Y-14969199D01*
X12273409Y-14969199D02*
X12282933Y-14988247D01*
X12282933Y-14988247D02*
X12292457Y-15026342D01*
X12292457Y-15026342D02*
X12292457Y-15073961D01*
X12292457Y-15073961D02*
X12282933Y-15112056D01*
X12282933Y-15112056D02*
X12273409Y-15131104D01*
X12273409Y-15131104D02*
X12263885Y-15140628D01*
X12263885Y-15140628D02*
X12244838Y-15150152D01*
X12244838Y-15150152D02*
X12225790Y-15150152D01*
X12225790Y-15150152D02*
X12206742Y-15140628D01*
X12206742Y-15140628D02*
X12197219Y-15131104D01*
X12197219Y-15131104D02*
X12187695Y-15112056D01*
X12187695Y-15112056D02*
X12178171Y-15073961D01*
X12178171Y-15073961D02*
X12178171Y-15026342D01*
X12178171Y-15026342D02*
X12187695Y-14988247D01*
X12187695Y-14988247D02*
X12197219Y-14969199D01*
X12197219Y-14969199D02*
X12206742Y-14959676D01*
X12206742Y-14959676D02*
X12225790Y-14950152D01*
X12482933Y-15150152D02*
X12368647Y-15150152D01*
X12425790Y-15150152D02*
X12425790Y-14950152D01*
X12425790Y-14950152D02*
X12406742Y-14978723D01*
X12406742Y-14978723D02*
X12387695Y-14997771D01*
X12387695Y-14997771D02*
X12368647Y-15007295D01*
X12673409Y-15150152D02*
X12559123Y-15150152D01*
X12616266Y-15150152D02*
X12616266Y-14950152D01*
X12616266Y-14950152D02*
X12597219Y-14978723D01*
X12597219Y-14978723D02*
X12578171Y-14997771D01*
X12578171Y-14997771D02*
X12559123Y-15007295D01*
X12787695Y-15035866D02*
X12768647Y-15026342D01*
X12768647Y-15026342D02*
X12759123Y-15016818D01*
X12759123Y-15016818D02*
X12749600Y-14997771D01*
X12749600Y-14997771D02*
X12749600Y-14988247D01*
X12749600Y-14988247D02*
X12759123Y-14969199D01*
X12759123Y-14969199D02*
X12768647Y-14959676D01*
X12768647Y-14959676D02*
X12787695Y-14950152D01*
X12787695Y-14950152D02*
X12825790Y-14950152D01*
X12825790Y-14950152D02*
X12844838Y-14959676D01*
X12844838Y-14959676D02*
X12854361Y-14969199D01*
X12854361Y-14969199D02*
X12863885Y-14988247D01*
X12863885Y-14988247D02*
X12863885Y-14997771D01*
X12863885Y-14997771D02*
X12854361Y-15016818D01*
X12854361Y-15016818D02*
X12844838Y-15026342D01*
X12844838Y-15026342D02*
X12825790Y-15035866D01*
X12825790Y-15035866D02*
X12787695Y-15035866D01*
X12787695Y-15035866D02*
X12768647Y-15045390D01*
X12768647Y-15045390D02*
X12759123Y-15054914D01*
X12759123Y-15054914D02*
X12749600Y-15073961D01*
X12749600Y-15073961D02*
X12749600Y-15112056D01*
X12749600Y-15112056D02*
X12759123Y-15131104D01*
X12759123Y-15131104D02*
X12768647Y-15140628D01*
X12768647Y-15140628D02*
X12787695Y-15150152D01*
X12787695Y-15150152D02*
X12825790Y-15150152D01*
X12825790Y-15150152D02*
X12844838Y-15140628D01*
X12844838Y-15140628D02*
X12854361Y-15131104D01*
X12854361Y-15131104D02*
X12863885Y-15112056D01*
X12863885Y-15112056D02*
X12863885Y-15073961D01*
X12863885Y-15073961D02*
X12854361Y-15054914D01*
X12854361Y-15054914D02*
X12844838Y-15045390D01*
X12844838Y-15045390D02*
X12825790Y-15035866D01*
X12940076Y-14950152D02*
X12940076Y-14988247D01*
X13016266Y-14950152D02*
X13016266Y-14988247D01*
X13311504Y-15226342D02*
X13301981Y-15216818D01*
X13301981Y-15216818D02*
X13282933Y-15188247D01*
X13282933Y-15188247D02*
X13273409Y-15169199D01*
X13273409Y-15169199D02*
X13263885Y-15140628D01*
X13263885Y-15140628D02*
X13254362Y-15093009D01*
X13254362Y-15093009D02*
X13254362Y-15054914D01*
X13254362Y-15054914D02*
X13263885Y-15007295D01*
X13263885Y-15007295D02*
X13273409Y-14978723D01*
X13273409Y-14978723D02*
X13282933Y-14959676D01*
X13282933Y-14959676D02*
X13301981Y-14931104D01*
X13301981Y-14931104D02*
X13311504Y-14921580D01*
X13368647Y-14950152D02*
X13492457Y-14950152D01*
X13492457Y-14950152D02*
X13425790Y-15026342D01*
X13425790Y-15026342D02*
X13454362Y-15026342D01*
X13454362Y-15026342D02*
X13473409Y-15035866D01*
X13473409Y-15035866D02*
X13482933Y-15045390D01*
X13482933Y-15045390D02*
X13492457Y-15064437D01*
X13492457Y-15064437D02*
X13492457Y-15112056D01*
X13492457Y-15112056D02*
X13482933Y-15131104D01*
X13482933Y-15131104D02*
X13473409Y-15140628D01*
X13473409Y-15140628D02*
X13454362Y-15150152D01*
X13454362Y-15150152D02*
X13397219Y-15150152D01*
X13397219Y-15150152D02*
X13378171Y-15140628D01*
X13378171Y-15140628D02*
X13368647Y-15131104D01*
X13663885Y-15016818D02*
X13663885Y-15150152D01*
X13616266Y-14940628D02*
X13568647Y-15083485D01*
X13568647Y-15083485D02*
X13692457Y-15083485D01*
X13797219Y-15035866D02*
X13778171Y-15026342D01*
X13778171Y-15026342D02*
X13768647Y-15016818D01*
X13768647Y-15016818D02*
X13759123Y-14997771D01*
X13759123Y-14997771D02*
X13759123Y-14988247D01*
X13759123Y-14988247D02*
X13768647Y-14969199D01*
X13768647Y-14969199D02*
X13778171Y-14959676D01*
X13778171Y-14959676D02*
X13797219Y-14950152D01*
X13797219Y-14950152D02*
X13835314Y-14950152D01*
X13835314Y-14950152D02*
X13854362Y-14959676D01*
X13854362Y-14959676D02*
X13863885Y-14969199D01*
X13863885Y-14969199D02*
X13873409Y-14988247D01*
X13873409Y-14988247D02*
X13873409Y-14997771D01*
X13873409Y-14997771D02*
X13863885Y-15016818D01*
X13863885Y-15016818D02*
X13854362Y-15026342D01*
X13854362Y-15026342D02*
X13835314Y-15035866D01*
X13835314Y-15035866D02*
X13797219Y-15035866D01*
X13797219Y-15035866D02*
X13778171Y-15045390D01*
X13778171Y-15045390D02*
X13768647Y-15054914D01*
X13768647Y-15054914D02*
X13759123Y-15073961D01*
X13759123Y-15073961D02*
X13759123Y-15112056D01*
X13759123Y-15112056D02*
X13768647Y-15131104D01*
X13768647Y-15131104D02*
X13778171Y-15140628D01*
X13778171Y-15140628D02*
X13797219Y-15150152D01*
X13797219Y-15150152D02*
X13835314Y-15150152D01*
X13835314Y-15150152D02*
X13854362Y-15140628D01*
X13854362Y-15140628D02*
X13863885Y-15131104D01*
X13863885Y-15131104D02*
X13873409Y-15112056D01*
X13873409Y-15112056D02*
X13873409Y-15073961D01*
X13873409Y-15073961D02*
X13863885Y-15054914D01*
X13863885Y-15054914D02*
X13854362Y-15045390D01*
X13854362Y-15045390D02*
X13835314Y-15035866D01*
X14111504Y-15150152D02*
X14111504Y-14950152D01*
X14197219Y-15150152D02*
X14197219Y-15045390D01*
X14197219Y-15045390D02*
X14187695Y-15026342D01*
X14187695Y-15026342D02*
X14168647Y-15016818D01*
X14168647Y-15016818D02*
X14140076Y-15016818D01*
X14140076Y-15016818D02*
X14121028Y-15026342D01*
X14121028Y-15026342D02*
X14111504Y-15035866D01*
X14321028Y-15150152D02*
X14301981Y-15140628D01*
X14301981Y-15140628D02*
X14292457Y-15131104D01*
X14292457Y-15131104D02*
X14282933Y-15112056D01*
X14282933Y-15112056D02*
X14282933Y-15054914D01*
X14282933Y-15054914D02*
X14292457Y-15035866D01*
X14292457Y-15035866D02*
X14301981Y-15026342D01*
X14301981Y-15026342D02*
X14321028Y-15016818D01*
X14321028Y-15016818D02*
X14349600Y-15016818D01*
X14349600Y-15016818D02*
X14368647Y-15026342D01*
X14368647Y-15026342D02*
X14378171Y-15035866D01*
X14378171Y-15035866D02*
X14387695Y-15054914D01*
X14387695Y-15054914D02*
X14387695Y-15112056D01*
X14387695Y-15112056D02*
X14378171Y-15131104D01*
X14378171Y-15131104D02*
X14368647Y-15140628D01*
X14368647Y-15140628D02*
X14349600Y-15150152D01*
X14349600Y-15150152D02*
X14321028Y-15150152D01*
X14501981Y-15150152D02*
X14482933Y-15140628D01*
X14482933Y-15140628D02*
X14473409Y-15121580D01*
X14473409Y-15121580D02*
X14473409Y-14950152D01*
X14654362Y-15140628D02*
X14635314Y-15150152D01*
X14635314Y-15150152D02*
X14597219Y-15150152D01*
X14597219Y-15150152D02*
X14578171Y-15140628D01*
X14578171Y-15140628D02*
X14568647Y-15121580D01*
X14568647Y-15121580D02*
X14568647Y-15045390D01*
X14568647Y-15045390D02*
X14578171Y-15026342D01*
X14578171Y-15026342D02*
X14597219Y-15016818D01*
X14597219Y-15016818D02*
X14635314Y-15016818D01*
X14635314Y-15016818D02*
X14654362Y-15026342D01*
X14654362Y-15026342D02*
X14663885Y-15045390D01*
X14663885Y-15045390D02*
X14663885Y-15064437D01*
X14663885Y-15064437D02*
X14568647Y-15083485D01*
X14740076Y-15140628D02*
X14759124Y-15150152D01*
X14759124Y-15150152D02*
X14797219Y-15150152D01*
X14797219Y-15150152D02*
X14816266Y-15140628D01*
X14816266Y-15140628D02*
X14825790Y-15121580D01*
X14825790Y-15121580D02*
X14825790Y-15112056D01*
X14825790Y-15112056D02*
X14816266Y-15093009D01*
X14816266Y-15093009D02*
X14797219Y-15083485D01*
X14797219Y-15083485D02*
X14768647Y-15083485D01*
X14768647Y-15083485D02*
X14749600Y-15073961D01*
X14749600Y-15073961D02*
X14740076Y-15054914D01*
X14740076Y-15054914D02*
X14740076Y-15045390D01*
X14740076Y-15045390D02*
X14749600Y-15026342D01*
X14749600Y-15026342D02*
X14768647Y-15016818D01*
X14768647Y-15016818D02*
X14797219Y-15016818D01*
X14797219Y-15016818D02*
X14816266Y-15026342D01*
X14892457Y-15226342D02*
X14901981Y-15216818D01*
X14901981Y-15216818D02*
X14921028Y-15188247D01*
X14921028Y-15188247D02*
X14930552Y-15169199D01*
X14930552Y-15169199D02*
X14940076Y-15140628D01*
X14940076Y-15140628D02*
X14949600Y-15093009D01*
X14949600Y-15093009D02*
X14949600Y-15054914D01*
X14949600Y-15054914D02*
X14940076Y-15007295D01*
X14940076Y-15007295D02*
X14930552Y-14978723D01*
X14930552Y-14978723D02*
X14921028Y-14959676D01*
X14921028Y-14959676D02*
X14901981Y-14931104D01*
X14901981Y-14931104D02*
X14892457Y-14921580D01*
D13*
X9736442Y-15322668D02*
G75*
G02*
X9706442Y-15322668I-15000J0D01*
G01*
X9706442Y-15322668D02*
G75*
G02*
X9736442Y-15322668I15000J0D01*
G01*
D12*
X10035314Y-15214152D02*
X10054361Y-15214152D01*
X10054361Y-15214152D02*
X10073409Y-15223676D01*
X10073409Y-15223676D02*
X10082933Y-15233199D01*
X10082933Y-15233199D02*
X10092457Y-15252247D01*
X10092457Y-15252247D02*
X10101980Y-15290342D01*
X10101980Y-15290342D02*
X10101980Y-15337961D01*
X10101980Y-15337961D02*
X10092457Y-15376056D01*
X10092457Y-15376056D02*
X10082933Y-15395104D01*
X10082933Y-15395104D02*
X10073409Y-15404628D01*
X10073409Y-15404628D02*
X10054361Y-15414152D01*
X10054361Y-15414152D02*
X10035314Y-15414152D01*
X10035314Y-15414152D02*
X10016266Y-15404628D01*
X10016266Y-15404628D02*
X10006742Y-15395104D01*
X10006742Y-15395104D02*
X9997218Y-15376056D01*
X9997218Y-15376056D02*
X9987695Y-15337961D01*
X9987695Y-15337961D02*
X9987695Y-15290342D01*
X9987695Y-15290342D02*
X9997218Y-15252247D01*
X9997218Y-15252247D02*
X10006742Y-15233199D01*
X10006742Y-15233199D02*
X10016266Y-15223676D01*
X10016266Y-15223676D02*
X10035314Y-15214152D01*
X10187695Y-15395104D02*
X10197218Y-15404628D01*
X10197218Y-15404628D02*
X10187695Y-15414152D01*
X10187695Y-15414152D02*
X10178171Y-15404628D01*
X10178171Y-15404628D02*
X10187695Y-15395104D01*
X10187695Y-15395104D02*
X10187695Y-15414152D01*
X10263885Y-15214152D02*
X10387695Y-15214152D01*
X10387695Y-15214152D02*
X10321028Y-15290342D01*
X10321028Y-15290342D02*
X10349599Y-15290342D01*
X10349599Y-15290342D02*
X10368647Y-15299866D01*
X10368647Y-15299866D02*
X10378171Y-15309390D01*
X10378171Y-15309390D02*
X10387695Y-15328437D01*
X10387695Y-15328437D02*
X10387695Y-15376056D01*
X10387695Y-15376056D02*
X10378171Y-15395104D01*
X10378171Y-15395104D02*
X10368647Y-15404628D01*
X10368647Y-15404628D02*
X10349599Y-15414152D01*
X10349599Y-15414152D02*
X10292457Y-15414152D01*
X10292457Y-15414152D02*
X10273409Y-15404628D01*
X10273409Y-15404628D02*
X10263885Y-15395104D01*
X10511504Y-15214152D02*
X10530552Y-15214152D01*
X10530552Y-15214152D02*
X10549599Y-15223676D01*
X10549599Y-15223676D02*
X10559123Y-15233199D01*
X10559123Y-15233199D02*
X10568647Y-15252247D01*
X10568647Y-15252247D02*
X10578171Y-15290342D01*
X10578171Y-15290342D02*
X10578171Y-15337961D01*
X10578171Y-15337961D02*
X10568647Y-15376056D01*
X10568647Y-15376056D02*
X10559123Y-15395104D01*
X10559123Y-15395104D02*
X10549599Y-15404628D01*
X10549599Y-15404628D02*
X10530552Y-15414152D01*
X10530552Y-15414152D02*
X10511504Y-15414152D01*
X10511504Y-15414152D02*
X10492457Y-15404628D01*
X10492457Y-15404628D02*
X10482933Y-15395104D01*
X10482933Y-15395104D02*
X10473409Y-15376056D01*
X10473409Y-15376056D02*
X10463885Y-15337961D01*
X10463885Y-15337961D02*
X10463885Y-15290342D01*
X10463885Y-15290342D02*
X10473409Y-15252247D01*
X10473409Y-15252247D02*
X10482933Y-15233199D01*
X10482933Y-15233199D02*
X10492457Y-15223676D01*
X10492457Y-15223676D02*
X10511504Y-15214152D01*
X10701980Y-15214152D02*
X10721028Y-15214152D01*
X10721028Y-15214152D02*
X10740076Y-15223676D01*
X10740076Y-15223676D02*
X10749599Y-15233199D01*
X10749599Y-15233199D02*
X10759123Y-15252247D01*
X10759123Y-15252247D02*
X10768647Y-15290342D01*
X10768647Y-15290342D02*
X10768647Y-15337961D01*
X10768647Y-15337961D02*
X10759123Y-15376056D01*
X10759123Y-15376056D02*
X10749599Y-15395104D01*
X10749599Y-15395104D02*
X10740076Y-15404628D01*
X10740076Y-15404628D02*
X10721028Y-15414152D01*
X10721028Y-15414152D02*
X10701980Y-15414152D01*
X10701980Y-15414152D02*
X10682933Y-15404628D01*
X10682933Y-15404628D02*
X10673409Y-15395104D01*
X10673409Y-15395104D02*
X10663885Y-15376056D01*
X10663885Y-15376056D02*
X10654361Y-15337961D01*
X10654361Y-15337961D02*
X10654361Y-15290342D01*
X10654361Y-15290342D02*
X10663885Y-15252247D01*
X10663885Y-15252247D02*
X10673409Y-15233199D01*
X10673409Y-15233199D02*
X10682933Y-15223676D01*
X10682933Y-15223676D02*
X10701980Y-15214152D01*
X10854361Y-15414152D02*
X10854361Y-15280818D01*
X10854361Y-15299866D02*
X10863885Y-15290342D01*
X10863885Y-15290342D02*
X10882933Y-15280818D01*
X10882933Y-15280818D02*
X10911504Y-15280818D01*
X10911504Y-15280818D02*
X10930552Y-15290342D01*
X10930552Y-15290342D02*
X10940076Y-15309390D01*
X10940076Y-15309390D02*
X10940076Y-15414152D01*
X10940076Y-15309390D02*
X10949599Y-15290342D01*
X10949599Y-15290342D02*
X10968647Y-15280818D01*
X10968647Y-15280818D02*
X10997218Y-15280818D01*
X10997218Y-15280818D02*
X11016266Y-15290342D01*
X11016266Y-15290342D02*
X11025790Y-15309390D01*
X11025790Y-15309390D02*
X11025790Y-15414152D01*
X11121028Y-15414152D02*
X11121028Y-15280818D01*
X11121028Y-15299866D02*
X11130552Y-15290342D01*
X11130552Y-15290342D02*
X11149599Y-15280818D01*
X11149599Y-15280818D02*
X11178171Y-15280818D01*
X11178171Y-15280818D02*
X11197218Y-15290342D01*
X11197218Y-15290342D02*
X11206742Y-15309390D01*
X11206742Y-15309390D02*
X11206742Y-15414152D01*
X11206742Y-15309390D02*
X11216266Y-15290342D01*
X11216266Y-15290342D02*
X11235314Y-15280818D01*
X11235314Y-15280818D02*
X11263885Y-15280818D01*
X11263885Y-15280818D02*
X11282933Y-15290342D01*
X11282933Y-15290342D02*
X11292457Y-15309390D01*
X11292457Y-15309390D02*
X11292457Y-15414152D01*
X11682933Y-15204628D02*
X11511504Y-15461771D01*
X11940076Y-15214152D02*
X11959123Y-15214152D01*
X11959123Y-15214152D02*
X11978171Y-15223676D01*
X11978171Y-15223676D02*
X11987695Y-15233199D01*
X11987695Y-15233199D02*
X11997219Y-15252247D01*
X11997219Y-15252247D02*
X12006742Y-15290342D01*
X12006742Y-15290342D02*
X12006742Y-15337961D01*
X12006742Y-15337961D02*
X11997219Y-15376056D01*
X11997219Y-15376056D02*
X11987695Y-15395104D01*
X11987695Y-15395104D02*
X11978171Y-15404628D01*
X11978171Y-15404628D02*
X11959123Y-15414152D01*
X11959123Y-15414152D02*
X11940076Y-15414152D01*
X11940076Y-15414152D02*
X11921028Y-15404628D01*
X11921028Y-15404628D02*
X11911504Y-15395104D01*
X11911504Y-15395104D02*
X11901980Y-15376056D01*
X11901980Y-15376056D02*
X11892457Y-15337961D01*
X11892457Y-15337961D02*
X11892457Y-15290342D01*
X11892457Y-15290342D02*
X11901980Y-15252247D01*
X11901980Y-15252247D02*
X11911504Y-15233199D01*
X11911504Y-15233199D02*
X11921028Y-15223676D01*
X11921028Y-15223676D02*
X11940076Y-15214152D01*
X12092457Y-15395104D02*
X12101980Y-15404628D01*
X12101980Y-15404628D02*
X12092457Y-15414152D01*
X12092457Y-15414152D02*
X12082933Y-15404628D01*
X12082933Y-15404628D02*
X12092457Y-15395104D01*
X12092457Y-15395104D02*
X12092457Y-15414152D01*
X12225790Y-15214152D02*
X12244838Y-15214152D01*
X12244838Y-15214152D02*
X12263885Y-15223676D01*
X12263885Y-15223676D02*
X12273409Y-15233199D01*
X12273409Y-15233199D02*
X12282933Y-15252247D01*
X12282933Y-15252247D02*
X12292457Y-15290342D01*
X12292457Y-15290342D02*
X12292457Y-15337961D01*
X12292457Y-15337961D02*
X12282933Y-15376056D01*
X12282933Y-15376056D02*
X12273409Y-15395104D01*
X12273409Y-15395104D02*
X12263885Y-15404628D01*
X12263885Y-15404628D02*
X12244838Y-15414152D01*
X12244838Y-15414152D02*
X12225790Y-15414152D01*
X12225790Y-15414152D02*
X12206742Y-15404628D01*
X12206742Y-15404628D02*
X12197219Y-15395104D01*
X12197219Y-15395104D02*
X12187695Y-15376056D01*
X12187695Y-15376056D02*
X12178171Y-15337961D01*
X12178171Y-15337961D02*
X12178171Y-15290342D01*
X12178171Y-15290342D02*
X12187695Y-15252247D01*
X12187695Y-15252247D02*
X12197219Y-15233199D01*
X12197219Y-15233199D02*
X12206742Y-15223676D01*
X12206742Y-15223676D02*
X12225790Y-15214152D01*
X12482933Y-15414152D02*
X12368647Y-15414152D01*
X12425790Y-15414152D02*
X12425790Y-15214152D01*
X12425790Y-15214152D02*
X12406742Y-15242723D01*
X12406742Y-15242723D02*
X12387695Y-15261771D01*
X12387695Y-15261771D02*
X12368647Y-15271295D01*
X12673409Y-15414152D02*
X12559123Y-15414152D01*
X12616266Y-15414152D02*
X12616266Y-15214152D01*
X12616266Y-15214152D02*
X12597219Y-15242723D01*
X12597219Y-15242723D02*
X12578171Y-15261771D01*
X12578171Y-15261771D02*
X12559123Y-15271295D01*
X12787695Y-15299866D02*
X12768647Y-15290342D01*
X12768647Y-15290342D02*
X12759123Y-15280818D01*
X12759123Y-15280818D02*
X12749600Y-15261771D01*
X12749600Y-15261771D02*
X12749600Y-15252247D01*
X12749600Y-15252247D02*
X12759123Y-15233199D01*
X12759123Y-15233199D02*
X12768647Y-15223676D01*
X12768647Y-15223676D02*
X12787695Y-15214152D01*
X12787695Y-15214152D02*
X12825790Y-15214152D01*
X12825790Y-15214152D02*
X12844838Y-15223676D01*
X12844838Y-15223676D02*
X12854361Y-15233199D01*
X12854361Y-15233199D02*
X12863885Y-15252247D01*
X12863885Y-15252247D02*
X12863885Y-15261771D01*
X12863885Y-15261771D02*
X12854361Y-15280818D01*
X12854361Y-15280818D02*
X12844838Y-15290342D01*
X12844838Y-15290342D02*
X12825790Y-15299866D01*
X12825790Y-15299866D02*
X12787695Y-15299866D01*
X12787695Y-15299866D02*
X12768647Y-15309390D01*
X12768647Y-15309390D02*
X12759123Y-15318914D01*
X12759123Y-15318914D02*
X12749600Y-15337961D01*
X12749600Y-15337961D02*
X12749600Y-15376056D01*
X12749600Y-15376056D02*
X12759123Y-15395104D01*
X12759123Y-15395104D02*
X12768647Y-15404628D01*
X12768647Y-15404628D02*
X12787695Y-15414152D01*
X12787695Y-15414152D02*
X12825790Y-15414152D01*
X12825790Y-15414152D02*
X12844838Y-15404628D01*
X12844838Y-15404628D02*
X12854361Y-15395104D01*
X12854361Y-15395104D02*
X12863885Y-15376056D01*
X12863885Y-15376056D02*
X12863885Y-15337961D01*
X12863885Y-15337961D02*
X12854361Y-15318914D01*
X12854361Y-15318914D02*
X12844838Y-15309390D01*
X12844838Y-15309390D02*
X12825790Y-15299866D01*
X12940076Y-15214152D02*
X12940076Y-15252247D01*
X13016266Y-15214152D02*
X13016266Y-15252247D01*
X13311504Y-15490342D02*
X13301981Y-15480818D01*
X13301981Y-15480818D02*
X13282933Y-15452247D01*
X13282933Y-15452247D02*
X13273409Y-15433199D01*
X13273409Y-15433199D02*
X13263885Y-15404628D01*
X13263885Y-15404628D02*
X13254362Y-15357009D01*
X13254362Y-15357009D02*
X13254362Y-15318914D01*
X13254362Y-15318914D02*
X13263885Y-15271295D01*
X13263885Y-15271295D02*
X13273409Y-15242723D01*
X13273409Y-15242723D02*
X13282933Y-15223676D01*
X13282933Y-15223676D02*
X13301981Y-15195104D01*
X13301981Y-15195104D02*
X13311504Y-15185580D01*
X13492457Y-15414152D02*
X13378171Y-15414152D01*
X13435314Y-15414152D02*
X13435314Y-15214152D01*
X13435314Y-15214152D02*
X13416266Y-15242723D01*
X13416266Y-15242723D02*
X13397219Y-15261771D01*
X13397219Y-15261771D02*
X13378171Y-15271295D01*
X13568647Y-15233199D02*
X13578171Y-15223676D01*
X13578171Y-15223676D02*
X13597219Y-15214152D01*
X13597219Y-15214152D02*
X13644838Y-15214152D01*
X13644838Y-15214152D02*
X13663885Y-15223676D01*
X13663885Y-15223676D02*
X13673409Y-15233199D01*
X13673409Y-15233199D02*
X13682933Y-15252247D01*
X13682933Y-15252247D02*
X13682933Y-15271295D01*
X13682933Y-15271295D02*
X13673409Y-15299866D01*
X13673409Y-15299866D02*
X13559123Y-15414152D01*
X13559123Y-15414152D02*
X13682933Y-15414152D01*
X13921028Y-15414152D02*
X13921028Y-15214152D01*
X14006743Y-15414152D02*
X14006743Y-15309390D01*
X14006743Y-15309390D02*
X13997219Y-15290342D01*
X13997219Y-15290342D02*
X13978171Y-15280818D01*
X13978171Y-15280818D02*
X13949600Y-15280818D01*
X13949600Y-15280818D02*
X13930552Y-15290342D01*
X13930552Y-15290342D02*
X13921028Y-15299866D01*
X14130552Y-15414152D02*
X14111504Y-15404628D01*
X14111504Y-15404628D02*
X14101981Y-15395104D01*
X14101981Y-15395104D02*
X14092457Y-15376056D01*
X14092457Y-15376056D02*
X14092457Y-15318914D01*
X14092457Y-15318914D02*
X14101981Y-15299866D01*
X14101981Y-15299866D02*
X14111504Y-15290342D01*
X14111504Y-15290342D02*
X14130552Y-15280818D01*
X14130552Y-15280818D02*
X14159124Y-15280818D01*
X14159124Y-15280818D02*
X14178171Y-15290342D01*
X14178171Y-15290342D02*
X14187695Y-15299866D01*
X14187695Y-15299866D02*
X14197219Y-15318914D01*
X14197219Y-15318914D02*
X14197219Y-15376056D01*
X14197219Y-15376056D02*
X14187695Y-15395104D01*
X14187695Y-15395104D02*
X14178171Y-15404628D01*
X14178171Y-15404628D02*
X14159124Y-15414152D01*
X14159124Y-15414152D02*
X14130552Y-15414152D01*
X14311504Y-15414152D02*
X14292457Y-15404628D01*
X14292457Y-15404628D02*
X14282933Y-15385580D01*
X14282933Y-15385580D02*
X14282933Y-15214152D01*
X14463885Y-15404628D02*
X14444838Y-15414152D01*
X14444838Y-15414152D02*
X14406743Y-15414152D01*
X14406743Y-15414152D02*
X14387695Y-15404628D01*
X14387695Y-15404628D02*
X14378171Y-15385580D01*
X14378171Y-15385580D02*
X14378171Y-15309390D01*
X14378171Y-15309390D02*
X14387695Y-15290342D01*
X14387695Y-15290342D02*
X14406743Y-15280818D01*
X14406743Y-15280818D02*
X14444838Y-15280818D01*
X14444838Y-15280818D02*
X14463885Y-15290342D01*
X14463885Y-15290342D02*
X14473409Y-15309390D01*
X14473409Y-15309390D02*
X14473409Y-15328437D01*
X14473409Y-15328437D02*
X14378171Y-15347485D01*
X14549600Y-15404628D02*
X14568647Y-15414152D01*
X14568647Y-15414152D02*
X14606743Y-15414152D01*
X14606743Y-15414152D02*
X14625790Y-15404628D01*
X14625790Y-15404628D02*
X14635314Y-15385580D01*
X14635314Y-15385580D02*
X14635314Y-15376056D01*
X14635314Y-15376056D02*
X14625790Y-15357009D01*
X14625790Y-15357009D02*
X14606743Y-15347485D01*
X14606743Y-15347485D02*
X14578171Y-15347485D01*
X14578171Y-15347485D02*
X14559124Y-15337961D01*
X14559124Y-15337961D02*
X14549600Y-15318914D01*
X14549600Y-15318914D02*
X14549600Y-15309390D01*
X14549600Y-15309390D02*
X14559124Y-15290342D01*
X14559124Y-15290342D02*
X14578171Y-15280818D01*
X14578171Y-15280818D02*
X14606743Y-15280818D01*
X14606743Y-15280818D02*
X14625790Y-15290342D01*
X14701981Y-15490342D02*
X14711505Y-15480818D01*
X14711505Y-15480818D02*
X14730552Y-15452247D01*
X14730552Y-15452247D02*
X14740076Y-15433199D01*
X14740076Y-15433199D02*
X14749600Y-15404628D01*
X14749600Y-15404628D02*
X14759124Y-15357009D01*
X14759124Y-15357009D02*
X14759124Y-15318914D01*
X14759124Y-15318914D02*
X14749600Y-15271295D01*
X14749600Y-15271295D02*
X14740076Y-15242723D01*
X14740076Y-15242723D02*
X14730552Y-15223676D01*
X14730552Y-15223676D02*
X14711505Y-15195104D01*
X14711505Y-15195104D02*
X14701981Y-15185580D01*
D13*
X9706442Y-15556668D02*
X9706442Y-15616668D01*
X9676442Y-15586668D02*
X9736442Y-15586668D01*
D12*
X10035314Y-15478152D02*
X10054361Y-15478152D01*
X10054361Y-15478152D02*
X10073409Y-15487676D01*
X10073409Y-15487676D02*
X10082933Y-15497199D01*
X10082933Y-15497199D02*
X10092457Y-15516247D01*
X10092457Y-15516247D02*
X10101980Y-15554342D01*
X10101980Y-15554342D02*
X10101980Y-15601961D01*
X10101980Y-15601961D02*
X10092457Y-15640056D01*
X10092457Y-15640056D02*
X10082933Y-15659104D01*
X10082933Y-15659104D02*
X10073409Y-15668628D01*
X10073409Y-15668628D02*
X10054361Y-15678152D01*
X10054361Y-15678152D02*
X10035314Y-15678152D01*
X10035314Y-15678152D02*
X10016266Y-15668628D01*
X10016266Y-15668628D02*
X10006742Y-15659104D01*
X10006742Y-15659104D02*
X9997218Y-15640056D01*
X9997218Y-15640056D02*
X9987695Y-15601961D01*
X9987695Y-15601961D02*
X9987695Y-15554342D01*
X9987695Y-15554342D02*
X9997218Y-15516247D01*
X9997218Y-15516247D02*
X10006742Y-15497199D01*
X10006742Y-15497199D02*
X10016266Y-15487676D01*
X10016266Y-15487676D02*
X10035314Y-15478152D01*
X10187695Y-15659104D02*
X10197218Y-15668628D01*
X10197218Y-15668628D02*
X10187695Y-15678152D01*
X10187695Y-15678152D02*
X10178171Y-15668628D01*
X10178171Y-15668628D02*
X10187695Y-15659104D01*
X10187695Y-15659104D02*
X10187695Y-15678152D01*
X10368647Y-15478152D02*
X10330552Y-15478152D01*
X10330552Y-15478152D02*
X10311504Y-15487676D01*
X10311504Y-15487676D02*
X10301980Y-15497199D01*
X10301980Y-15497199D02*
X10282933Y-15525771D01*
X10282933Y-15525771D02*
X10273409Y-15563866D01*
X10273409Y-15563866D02*
X10273409Y-15640056D01*
X10273409Y-15640056D02*
X10282933Y-15659104D01*
X10282933Y-15659104D02*
X10292457Y-15668628D01*
X10292457Y-15668628D02*
X10311504Y-15678152D01*
X10311504Y-15678152D02*
X10349599Y-15678152D01*
X10349599Y-15678152D02*
X10368647Y-15668628D01*
X10368647Y-15668628D02*
X10378171Y-15659104D01*
X10378171Y-15659104D02*
X10387695Y-15640056D01*
X10387695Y-15640056D02*
X10387695Y-15592437D01*
X10387695Y-15592437D02*
X10378171Y-15573390D01*
X10378171Y-15573390D02*
X10368647Y-15563866D01*
X10368647Y-15563866D02*
X10349599Y-15554342D01*
X10349599Y-15554342D02*
X10311504Y-15554342D01*
X10311504Y-15554342D02*
X10292457Y-15563866D01*
X10292457Y-15563866D02*
X10282933Y-15573390D01*
X10282933Y-15573390D02*
X10273409Y-15592437D01*
X10511504Y-15478152D02*
X10530552Y-15478152D01*
X10530552Y-15478152D02*
X10549599Y-15487676D01*
X10549599Y-15487676D02*
X10559123Y-15497199D01*
X10559123Y-15497199D02*
X10568647Y-15516247D01*
X10568647Y-15516247D02*
X10578171Y-15554342D01*
X10578171Y-15554342D02*
X10578171Y-15601961D01*
X10578171Y-15601961D02*
X10568647Y-15640056D01*
X10568647Y-15640056D02*
X10559123Y-15659104D01*
X10559123Y-15659104D02*
X10549599Y-15668628D01*
X10549599Y-15668628D02*
X10530552Y-15678152D01*
X10530552Y-15678152D02*
X10511504Y-15678152D01*
X10511504Y-15678152D02*
X10492457Y-15668628D01*
X10492457Y-15668628D02*
X10482933Y-15659104D01*
X10482933Y-15659104D02*
X10473409Y-15640056D01*
X10473409Y-15640056D02*
X10463885Y-15601961D01*
X10463885Y-15601961D02*
X10463885Y-15554342D01*
X10463885Y-15554342D02*
X10473409Y-15516247D01*
X10473409Y-15516247D02*
X10482933Y-15497199D01*
X10482933Y-15497199D02*
X10492457Y-15487676D01*
X10492457Y-15487676D02*
X10511504Y-15478152D01*
X10701980Y-15478152D02*
X10721028Y-15478152D01*
X10721028Y-15478152D02*
X10740076Y-15487676D01*
X10740076Y-15487676D02*
X10749599Y-15497199D01*
X10749599Y-15497199D02*
X10759123Y-15516247D01*
X10759123Y-15516247D02*
X10768647Y-15554342D01*
X10768647Y-15554342D02*
X10768647Y-15601961D01*
X10768647Y-15601961D02*
X10759123Y-15640056D01*
X10759123Y-15640056D02*
X10749599Y-15659104D01*
X10749599Y-15659104D02*
X10740076Y-15668628D01*
X10740076Y-15668628D02*
X10721028Y-15678152D01*
X10721028Y-15678152D02*
X10701980Y-15678152D01*
X10701980Y-15678152D02*
X10682933Y-15668628D01*
X10682933Y-15668628D02*
X10673409Y-15659104D01*
X10673409Y-15659104D02*
X10663885Y-15640056D01*
X10663885Y-15640056D02*
X10654361Y-15601961D01*
X10654361Y-15601961D02*
X10654361Y-15554342D01*
X10654361Y-15554342D02*
X10663885Y-15516247D01*
X10663885Y-15516247D02*
X10673409Y-15497199D01*
X10673409Y-15497199D02*
X10682933Y-15487676D01*
X10682933Y-15487676D02*
X10701980Y-15478152D01*
X10854361Y-15678152D02*
X10854361Y-15544818D01*
X10854361Y-15563866D02*
X10863885Y-15554342D01*
X10863885Y-15554342D02*
X10882933Y-15544818D01*
X10882933Y-15544818D02*
X10911504Y-15544818D01*
X10911504Y-15544818D02*
X10930552Y-15554342D01*
X10930552Y-15554342D02*
X10940076Y-15573390D01*
X10940076Y-15573390D02*
X10940076Y-15678152D01*
X10940076Y-15573390D02*
X10949599Y-15554342D01*
X10949599Y-15554342D02*
X10968647Y-15544818D01*
X10968647Y-15544818D02*
X10997218Y-15544818D01*
X10997218Y-15544818D02*
X11016266Y-15554342D01*
X11016266Y-15554342D02*
X11025790Y-15573390D01*
X11025790Y-15573390D02*
X11025790Y-15678152D01*
X11121028Y-15678152D02*
X11121028Y-15544818D01*
X11121028Y-15563866D02*
X11130552Y-15554342D01*
X11130552Y-15554342D02*
X11149599Y-15544818D01*
X11149599Y-15544818D02*
X11178171Y-15544818D01*
X11178171Y-15544818D02*
X11197218Y-15554342D01*
X11197218Y-15554342D02*
X11206742Y-15573390D01*
X11206742Y-15573390D02*
X11206742Y-15678152D01*
X11206742Y-15573390D02*
X11216266Y-15554342D01*
X11216266Y-15554342D02*
X11235314Y-15544818D01*
X11235314Y-15544818D02*
X11263885Y-15544818D01*
X11263885Y-15544818D02*
X11282933Y-15554342D01*
X11282933Y-15554342D02*
X11292457Y-15573390D01*
X11292457Y-15573390D02*
X11292457Y-15678152D01*
X11682933Y-15468628D02*
X11511504Y-15725771D01*
X11940076Y-15478152D02*
X11959123Y-15478152D01*
X11959123Y-15478152D02*
X11978171Y-15487676D01*
X11978171Y-15487676D02*
X11987695Y-15497199D01*
X11987695Y-15497199D02*
X11997219Y-15516247D01*
X11997219Y-15516247D02*
X12006742Y-15554342D01*
X12006742Y-15554342D02*
X12006742Y-15601961D01*
X12006742Y-15601961D02*
X11997219Y-15640056D01*
X11997219Y-15640056D02*
X11987695Y-15659104D01*
X11987695Y-15659104D02*
X11978171Y-15668628D01*
X11978171Y-15668628D02*
X11959123Y-15678152D01*
X11959123Y-15678152D02*
X11940076Y-15678152D01*
X11940076Y-15678152D02*
X11921028Y-15668628D01*
X11921028Y-15668628D02*
X11911504Y-15659104D01*
X11911504Y-15659104D02*
X11901980Y-15640056D01*
X11901980Y-15640056D02*
X11892457Y-15601961D01*
X11892457Y-15601961D02*
X11892457Y-15554342D01*
X11892457Y-15554342D02*
X11901980Y-15516247D01*
X11901980Y-15516247D02*
X11911504Y-15497199D01*
X11911504Y-15497199D02*
X11921028Y-15487676D01*
X11921028Y-15487676D02*
X11940076Y-15478152D01*
X12092457Y-15659104D02*
X12101980Y-15668628D01*
X12101980Y-15668628D02*
X12092457Y-15678152D01*
X12092457Y-15678152D02*
X12082933Y-15668628D01*
X12082933Y-15668628D02*
X12092457Y-15659104D01*
X12092457Y-15659104D02*
X12092457Y-15678152D01*
X12225790Y-15478152D02*
X12244838Y-15478152D01*
X12244838Y-15478152D02*
X12263885Y-15487676D01*
X12263885Y-15487676D02*
X12273409Y-15497199D01*
X12273409Y-15497199D02*
X12282933Y-15516247D01*
X12282933Y-15516247D02*
X12292457Y-15554342D01*
X12292457Y-15554342D02*
X12292457Y-15601961D01*
X12292457Y-15601961D02*
X12282933Y-15640056D01*
X12282933Y-15640056D02*
X12273409Y-15659104D01*
X12273409Y-15659104D02*
X12263885Y-15668628D01*
X12263885Y-15668628D02*
X12244838Y-15678152D01*
X12244838Y-15678152D02*
X12225790Y-15678152D01*
X12225790Y-15678152D02*
X12206742Y-15668628D01*
X12206742Y-15668628D02*
X12197219Y-15659104D01*
X12197219Y-15659104D02*
X12187695Y-15640056D01*
X12187695Y-15640056D02*
X12178171Y-15601961D01*
X12178171Y-15601961D02*
X12178171Y-15554342D01*
X12178171Y-15554342D02*
X12187695Y-15516247D01*
X12187695Y-15516247D02*
X12197219Y-15497199D01*
X12197219Y-15497199D02*
X12206742Y-15487676D01*
X12206742Y-15487676D02*
X12225790Y-15478152D01*
X12368647Y-15497199D02*
X12378171Y-15487676D01*
X12378171Y-15487676D02*
X12397219Y-15478152D01*
X12397219Y-15478152D02*
X12444838Y-15478152D01*
X12444838Y-15478152D02*
X12463885Y-15487676D01*
X12463885Y-15487676D02*
X12473409Y-15497199D01*
X12473409Y-15497199D02*
X12482933Y-15516247D01*
X12482933Y-15516247D02*
X12482933Y-15535295D01*
X12482933Y-15535295D02*
X12473409Y-15563866D01*
X12473409Y-15563866D02*
X12359123Y-15678152D01*
X12359123Y-15678152D02*
X12482933Y-15678152D01*
X12549600Y-15478152D02*
X12673409Y-15478152D01*
X12673409Y-15478152D02*
X12606742Y-15554342D01*
X12606742Y-15554342D02*
X12635314Y-15554342D01*
X12635314Y-15554342D02*
X12654361Y-15563866D01*
X12654361Y-15563866D02*
X12663885Y-15573390D01*
X12663885Y-15573390D02*
X12673409Y-15592437D01*
X12673409Y-15592437D02*
X12673409Y-15640056D01*
X12673409Y-15640056D02*
X12663885Y-15659104D01*
X12663885Y-15659104D02*
X12654361Y-15668628D01*
X12654361Y-15668628D02*
X12635314Y-15678152D01*
X12635314Y-15678152D02*
X12578171Y-15678152D01*
X12578171Y-15678152D02*
X12559123Y-15668628D01*
X12559123Y-15668628D02*
X12549600Y-15659104D01*
X12844838Y-15478152D02*
X12806742Y-15478152D01*
X12806742Y-15478152D02*
X12787695Y-15487676D01*
X12787695Y-15487676D02*
X12778171Y-15497199D01*
X12778171Y-15497199D02*
X12759123Y-15525771D01*
X12759123Y-15525771D02*
X12749600Y-15563866D01*
X12749600Y-15563866D02*
X12749600Y-15640056D01*
X12749600Y-15640056D02*
X12759123Y-15659104D01*
X12759123Y-15659104D02*
X12768647Y-15668628D01*
X12768647Y-15668628D02*
X12787695Y-15678152D01*
X12787695Y-15678152D02*
X12825790Y-15678152D01*
X12825790Y-15678152D02*
X12844838Y-15668628D01*
X12844838Y-15668628D02*
X12854361Y-15659104D01*
X12854361Y-15659104D02*
X12863885Y-15640056D01*
X12863885Y-15640056D02*
X12863885Y-15592437D01*
X12863885Y-15592437D02*
X12854361Y-15573390D01*
X12854361Y-15573390D02*
X12844838Y-15563866D01*
X12844838Y-15563866D02*
X12825790Y-15554342D01*
X12825790Y-15554342D02*
X12787695Y-15554342D01*
X12787695Y-15554342D02*
X12768647Y-15563866D01*
X12768647Y-15563866D02*
X12759123Y-15573390D01*
X12759123Y-15573390D02*
X12749600Y-15592437D01*
X12940076Y-15478152D02*
X12940076Y-15516247D01*
X13016266Y-15478152D02*
X13016266Y-15516247D01*
X13311504Y-15754342D02*
X13301981Y-15744818D01*
X13301981Y-15744818D02*
X13282933Y-15716247D01*
X13282933Y-15716247D02*
X13273409Y-15697199D01*
X13273409Y-15697199D02*
X13263885Y-15668628D01*
X13263885Y-15668628D02*
X13254362Y-15621009D01*
X13254362Y-15621009D02*
X13254362Y-15582914D01*
X13254362Y-15582914D02*
X13263885Y-15535295D01*
X13263885Y-15535295D02*
X13273409Y-15506723D01*
X13273409Y-15506723D02*
X13282933Y-15487676D01*
X13282933Y-15487676D02*
X13301981Y-15459104D01*
X13301981Y-15459104D02*
X13311504Y-15449580D01*
X13378171Y-15497199D02*
X13387695Y-15487676D01*
X13387695Y-15487676D02*
X13406742Y-15478152D01*
X13406742Y-15478152D02*
X13454362Y-15478152D01*
X13454362Y-15478152D02*
X13473409Y-15487676D01*
X13473409Y-15487676D02*
X13482933Y-15497199D01*
X13482933Y-15497199D02*
X13492457Y-15516247D01*
X13492457Y-15516247D02*
X13492457Y-15535295D01*
X13492457Y-15535295D02*
X13482933Y-15563866D01*
X13482933Y-15563866D02*
X13368647Y-15678152D01*
X13368647Y-15678152D02*
X13492457Y-15678152D01*
X13730552Y-15678152D02*
X13730552Y-15478152D01*
X13816266Y-15678152D02*
X13816266Y-15573390D01*
X13816266Y-15573390D02*
X13806743Y-15554342D01*
X13806743Y-15554342D02*
X13787695Y-15544818D01*
X13787695Y-15544818D02*
X13759123Y-15544818D01*
X13759123Y-15544818D02*
X13740076Y-15554342D01*
X13740076Y-15554342D02*
X13730552Y-15563866D01*
X13940076Y-15678152D02*
X13921028Y-15668628D01*
X13921028Y-15668628D02*
X13911504Y-15659104D01*
X13911504Y-15659104D02*
X13901981Y-15640056D01*
X13901981Y-15640056D02*
X13901981Y-15582914D01*
X13901981Y-15582914D02*
X13911504Y-15563866D01*
X13911504Y-15563866D02*
X13921028Y-15554342D01*
X13921028Y-15554342D02*
X13940076Y-15544818D01*
X13940076Y-15544818D02*
X13968647Y-15544818D01*
X13968647Y-15544818D02*
X13987695Y-15554342D01*
X13987695Y-15554342D02*
X13997219Y-15563866D01*
X13997219Y-15563866D02*
X14006743Y-15582914D01*
X14006743Y-15582914D02*
X14006743Y-15640056D01*
X14006743Y-15640056D02*
X13997219Y-15659104D01*
X13997219Y-15659104D02*
X13987695Y-15668628D01*
X13987695Y-15668628D02*
X13968647Y-15678152D01*
X13968647Y-15678152D02*
X13940076Y-15678152D01*
X14121028Y-15678152D02*
X14101981Y-15668628D01*
X14101981Y-15668628D02*
X14092457Y-15649580D01*
X14092457Y-15649580D02*
X14092457Y-15478152D01*
X14273409Y-15668628D02*
X14254362Y-15678152D01*
X14254362Y-15678152D02*
X14216266Y-15678152D01*
X14216266Y-15678152D02*
X14197219Y-15668628D01*
X14197219Y-15668628D02*
X14187695Y-15649580D01*
X14187695Y-15649580D02*
X14187695Y-15573390D01*
X14187695Y-15573390D02*
X14197219Y-15554342D01*
X14197219Y-15554342D02*
X14216266Y-15544818D01*
X14216266Y-15544818D02*
X14254362Y-15544818D01*
X14254362Y-15544818D02*
X14273409Y-15554342D01*
X14273409Y-15554342D02*
X14282933Y-15573390D01*
X14282933Y-15573390D02*
X14282933Y-15592437D01*
X14282933Y-15592437D02*
X14187695Y-15611485D01*
X14359124Y-15668628D02*
X14378171Y-15678152D01*
X14378171Y-15678152D02*
X14416266Y-15678152D01*
X14416266Y-15678152D02*
X14435314Y-15668628D01*
X14435314Y-15668628D02*
X14444838Y-15649580D01*
X14444838Y-15649580D02*
X14444838Y-15640056D01*
X14444838Y-15640056D02*
X14435314Y-15621009D01*
X14435314Y-15621009D02*
X14416266Y-15611485D01*
X14416266Y-15611485D02*
X14387695Y-15611485D01*
X14387695Y-15611485D02*
X14368647Y-15601961D01*
X14368647Y-15601961D02*
X14359124Y-15582914D01*
X14359124Y-15582914D02*
X14359124Y-15573390D01*
X14359124Y-15573390D02*
X14368647Y-15554342D01*
X14368647Y-15554342D02*
X14387695Y-15544818D01*
X14387695Y-15544818D02*
X14416266Y-15544818D01*
X14416266Y-15544818D02*
X14435314Y-15554342D01*
X14682933Y-15601961D02*
X14835314Y-15601961D01*
X14759124Y-15678152D02*
X14759124Y-15525771D01*
X15168647Y-15544818D02*
X15168647Y-15678152D01*
X15121028Y-15468628D02*
X15073409Y-15611485D01*
X15073409Y-15611485D02*
X15197219Y-15611485D01*
X15416267Y-15668628D02*
X15435314Y-15678152D01*
X15435314Y-15678152D02*
X15473409Y-15678152D01*
X15473409Y-15678152D02*
X15492457Y-15668628D01*
X15492457Y-15668628D02*
X15501981Y-15649580D01*
X15501981Y-15649580D02*
X15501981Y-15640056D01*
X15501981Y-15640056D02*
X15492457Y-15621009D01*
X15492457Y-15621009D02*
X15473409Y-15611485D01*
X15473409Y-15611485D02*
X15444838Y-15611485D01*
X15444838Y-15611485D02*
X15425790Y-15601961D01*
X15425790Y-15601961D02*
X15416267Y-15582914D01*
X15416267Y-15582914D02*
X15416267Y-15573390D01*
X15416267Y-15573390D02*
X15425790Y-15554342D01*
X15425790Y-15554342D02*
X15444838Y-15544818D01*
X15444838Y-15544818D02*
X15473409Y-15544818D01*
X15473409Y-15544818D02*
X15492457Y-15554342D01*
X15616267Y-15678152D02*
X15597219Y-15668628D01*
X15597219Y-15668628D02*
X15587695Y-15649580D01*
X15587695Y-15649580D02*
X15587695Y-15478152D01*
X15721028Y-15678152D02*
X15701981Y-15668628D01*
X15701981Y-15668628D02*
X15692457Y-15659104D01*
X15692457Y-15659104D02*
X15682933Y-15640056D01*
X15682933Y-15640056D02*
X15682933Y-15582914D01*
X15682933Y-15582914D02*
X15692457Y-15563866D01*
X15692457Y-15563866D02*
X15701981Y-15554342D01*
X15701981Y-15554342D02*
X15721028Y-15544818D01*
X15721028Y-15544818D02*
X15749600Y-15544818D01*
X15749600Y-15544818D02*
X15768648Y-15554342D01*
X15768648Y-15554342D02*
X15778171Y-15563866D01*
X15778171Y-15563866D02*
X15787695Y-15582914D01*
X15787695Y-15582914D02*
X15787695Y-15640056D01*
X15787695Y-15640056D02*
X15778171Y-15659104D01*
X15778171Y-15659104D02*
X15768648Y-15668628D01*
X15768648Y-15668628D02*
X15749600Y-15678152D01*
X15749600Y-15678152D02*
X15721028Y-15678152D01*
X15844838Y-15544818D02*
X15921028Y-15544818D01*
X15873409Y-15478152D02*
X15873409Y-15649580D01*
X15873409Y-15649580D02*
X15882933Y-15668628D01*
X15882933Y-15668628D02*
X15901981Y-15678152D01*
X15901981Y-15678152D02*
X15921028Y-15678152D01*
X15978171Y-15668628D02*
X15997219Y-15678152D01*
X15997219Y-15678152D02*
X16035314Y-15678152D01*
X16035314Y-15678152D02*
X16054362Y-15668628D01*
X16054362Y-15668628D02*
X16063886Y-15649580D01*
X16063886Y-15649580D02*
X16063886Y-15640056D01*
X16063886Y-15640056D02*
X16054362Y-15621009D01*
X16054362Y-15621009D02*
X16035314Y-15611485D01*
X16035314Y-15611485D02*
X16006743Y-15611485D01*
X16006743Y-15611485D02*
X15987695Y-15601961D01*
X15987695Y-15601961D02*
X15978171Y-15582914D01*
X15978171Y-15582914D02*
X15978171Y-15573390D01*
X15978171Y-15573390D02*
X15987695Y-15554342D01*
X15987695Y-15554342D02*
X16006743Y-15544818D01*
X16006743Y-15544818D02*
X16035314Y-15544818D01*
X16035314Y-15544818D02*
X16054362Y-15554342D01*
X16130552Y-15754342D02*
X16140076Y-15744818D01*
X16140076Y-15744818D02*
X16159124Y-15716247D01*
X16159124Y-15716247D02*
X16168648Y-15697199D01*
X16168648Y-15697199D02*
X16178171Y-15668628D01*
X16178171Y-15668628D02*
X16187695Y-15621009D01*
X16187695Y-15621009D02*
X16187695Y-15582914D01*
X16187695Y-15582914D02*
X16178171Y-15535295D01*
X16178171Y-15535295D02*
X16168648Y-15506723D01*
X16168648Y-15506723D02*
X16159124Y-15487676D01*
X16159124Y-15487676D02*
X16140076Y-15459104D01*
X16140076Y-15459104D02*
X16130552Y-15449580D01*
D13*
X9721797Y-15886024D02*
X9721797Y-15815312D01*
X9651086Y-15815312D01*
X9651086Y-15886024D01*
X9721797Y-15886024D01*
D12*
X10101980Y-15942152D02*
X9987695Y-15942152D01*
X10044837Y-15942152D02*
X10044837Y-15742152D01*
X10044837Y-15742152D02*
X10025790Y-15770723D01*
X10025790Y-15770723D02*
X10006742Y-15789771D01*
X10006742Y-15789771D02*
X9987695Y-15799295D01*
X10187695Y-15923104D02*
X10197218Y-15932628D01*
X10197218Y-15932628D02*
X10187695Y-15942152D01*
X10187695Y-15942152D02*
X10178171Y-15932628D01*
X10178171Y-15932628D02*
X10187695Y-15923104D01*
X10187695Y-15923104D02*
X10187695Y-15942152D01*
X10321028Y-15742152D02*
X10340076Y-15742152D01*
X10340076Y-15742152D02*
X10359123Y-15751676D01*
X10359123Y-15751676D02*
X10368647Y-15761199D01*
X10368647Y-15761199D02*
X10378171Y-15780247D01*
X10378171Y-15780247D02*
X10387695Y-15818342D01*
X10387695Y-15818342D02*
X10387695Y-15865961D01*
X10387695Y-15865961D02*
X10378171Y-15904056D01*
X10378171Y-15904056D02*
X10368647Y-15923104D01*
X10368647Y-15923104D02*
X10359123Y-15932628D01*
X10359123Y-15932628D02*
X10340076Y-15942152D01*
X10340076Y-15942152D02*
X10321028Y-15942152D01*
X10321028Y-15942152D02*
X10301980Y-15932628D01*
X10301980Y-15932628D02*
X10292457Y-15923104D01*
X10292457Y-15923104D02*
X10282933Y-15904056D01*
X10282933Y-15904056D02*
X10273409Y-15865961D01*
X10273409Y-15865961D02*
X10273409Y-15818342D01*
X10273409Y-15818342D02*
X10282933Y-15780247D01*
X10282933Y-15780247D02*
X10292457Y-15761199D01*
X10292457Y-15761199D02*
X10301980Y-15751676D01*
X10301980Y-15751676D02*
X10321028Y-15742152D01*
X10511504Y-15742152D02*
X10530552Y-15742152D01*
X10530552Y-15742152D02*
X10549599Y-15751676D01*
X10549599Y-15751676D02*
X10559123Y-15761199D01*
X10559123Y-15761199D02*
X10568647Y-15780247D01*
X10568647Y-15780247D02*
X10578171Y-15818342D01*
X10578171Y-15818342D02*
X10578171Y-15865961D01*
X10578171Y-15865961D02*
X10568647Y-15904056D01*
X10568647Y-15904056D02*
X10559123Y-15923104D01*
X10559123Y-15923104D02*
X10549599Y-15932628D01*
X10549599Y-15932628D02*
X10530552Y-15942152D01*
X10530552Y-15942152D02*
X10511504Y-15942152D01*
X10511504Y-15942152D02*
X10492457Y-15932628D01*
X10492457Y-15932628D02*
X10482933Y-15923104D01*
X10482933Y-15923104D02*
X10473409Y-15904056D01*
X10473409Y-15904056D02*
X10463885Y-15865961D01*
X10463885Y-15865961D02*
X10463885Y-15818342D01*
X10463885Y-15818342D02*
X10473409Y-15780247D01*
X10473409Y-15780247D02*
X10482933Y-15761199D01*
X10482933Y-15761199D02*
X10492457Y-15751676D01*
X10492457Y-15751676D02*
X10511504Y-15742152D01*
X10701980Y-15742152D02*
X10721028Y-15742152D01*
X10721028Y-15742152D02*
X10740076Y-15751676D01*
X10740076Y-15751676D02*
X10749599Y-15761199D01*
X10749599Y-15761199D02*
X10759123Y-15780247D01*
X10759123Y-15780247D02*
X10768647Y-15818342D01*
X10768647Y-15818342D02*
X10768647Y-15865961D01*
X10768647Y-15865961D02*
X10759123Y-15904056D01*
X10759123Y-15904056D02*
X10749599Y-15923104D01*
X10749599Y-15923104D02*
X10740076Y-15932628D01*
X10740076Y-15932628D02*
X10721028Y-15942152D01*
X10721028Y-15942152D02*
X10701980Y-15942152D01*
X10701980Y-15942152D02*
X10682933Y-15932628D01*
X10682933Y-15932628D02*
X10673409Y-15923104D01*
X10673409Y-15923104D02*
X10663885Y-15904056D01*
X10663885Y-15904056D02*
X10654361Y-15865961D01*
X10654361Y-15865961D02*
X10654361Y-15818342D01*
X10654361Y-15818342D02*
X10663885Y-15780247D01*
X10663885Y-15780247D02*
X10673409Y-15761199D01*
X10673409Y-15761199D02*
X10682933Y-15751676D01*
X10682933Y-15751676D02*
X10701980Y-15742152D01*
X10854361Y-15942152D02*
X10854361Y-15808818D01*
X10854361Y-15827866D02*
X10863885Y-15818342D01*
X10863885Y-15818342D02*
X10882933Y-15808818D01*
X10882933Y-15808818D02*
X10911504Y-15808818D01*
X10911504Y-15808818D02*
X10930552Y-15818342D01*
X10930552Y-15818342D02*
X10940076Y-15837390D01*
X10940076Y-15837390D02*
X10940076Y-15942152D01*
X10940076Y-15837390D02*
X10949599Y-15818342D01*
X10949599Y-15818342D02*
X10968647Y-15808818D01*
X10968647Y-15808818D02*
X10997218Y-15808818D01*
X10997218Y-15808818D02*
X11016266Y-15818342D01*
X11016266Y-15818342D02*
X11025790Y-15837390D01*
X11025790Y-15837390D02*
X11025790Y-15942152D01*
X11121028Y-15942152D02*
X11121028Y-15808818D01*
X11121028Y-15827866D02*
X11130552Y-15818342D01*
X11130552Y-15818342D02*
X11149599Y-15808818D01*
X11149599Y-15808818D02*
X11178171Y-15808818D01*
X11178171Y-15808818D02*
X11197218Y-15818342D01*
X11197218Y-15818342D02*
X11206742Y-15837390D01*
X11206742Y-15837390D02*
X11206742Y-15942152D01*
X11206742Y-15837390D02*
X11216266Y-15818342D01*
X11216266Y-15818342D02*
X11235314Y-15808818D01*
X11235314Y-15808818D02*
X11263885Y-15808818D01*
X11263885Y-15808818D02*
X11282933Y-15818342D01*
X11282933Y-15818342D02*
X11292457Y-15837390D01*
X11292457Y-15837390D02*
X11292457Y-15942152D01*
X11682933Y-15732628D02*
X11511504Y-15989771D01*
X11940076Y-15742152D02*
X11959123Y-15742152D01*
X11959123Y-15742152D02*
X11978171Y-15751676D01*
X11978171Y-15751676D02*
X11987695Y-15761199D01*
X11987695Y-15761199D02*
X11997219Y-15780247D01*
X11997219Y-15780247D02*
X12006742Y-15818342D01*
X12006742Y-15818342D02*
X12006742Y-15865961D01*
X12006742Y-15865961D02*
X11997219Y-15904056D01*
X11997219Y-15904056D02*
X11987695Y-15923104D01*
X11987695Y-15923104D02*
X11978171Y-15932628D01*
X11978171Y-15932628D02*
X11959123Y-15942152D01*
X11959123Y-15942152D02*
X11940076Y-15942152D01*
X11940076Y-15942152D02*
X11921028Y-15932628D01*
X11921028Y-15932628D02*
X11911504Y-15923104D01*
X11911504Y-15923104D02*
X11901980Y-15904056D01*
X11901980Y-15904056D02*
X11892457Y-15865961D01*
X11892457Y-15865961D02*
X11892457Y-15818342D01*
X11892457Y-15818342D02*
X11901980Y-15780247D01*
X11901980Y-15780247D02*
X11911504Y-15761199D01*
X11911504Y-15761199D02*
X11921028Y-15751676D01*
X11921028Y-15751676D02*
X11940076Y-15742152D01*
X12092457Y-15923104D02*
X12101980Y-15932628D01*
X12101980Y-15932628D02*
X12092457Y-15942152D01*
X12092457Y-15942152D02*
X12082933Y-15932628D01*
X12082933Y-15932628D02*
X12092457Y-15923104D01*
X12092457Y-15923104D02*
X12092457Y-15942152D01*
X12225790Y-15742152D02*
X12244838Y-15742152D01*
X12244838Y-15742152D02*
X12263885Y-15751676D01*
X12263885Y-15751676D02*
X12273409Y-15761199D01*
X12273409Y-15761199D02*
X12282933Y-15780247D01*
X12282933Y-15780247D02*
X12292457Y-15818342D01*
X12292457Y-15818342D02*
X12292457Y-15865961D01*
X12292457Y-15865961D02*
X12282933Y-15904056D01*
X12282933Y-15904056D02*
X12273409Y-15923104D01*
X12273409Y-15923104D02*
X12263885Y-15932628D01*
X12263885Y-15932628D02*
X12244838Y-15942152D01*
X12244838Y-15942152D02*
X12225790Y-15942152D01*
X12225790Y-15942152D02*
X12206742Y-15932628D01*
X12206742Y-15932628D02*
X12197219Y-15923104D01*
X12197219Y-15923104D02*
X12187695Y-15904056D01*
X12187695Y-15904056D02*
X12178171Y-15865961D01*
X12178171Y-15865961D02*
X12178171Y-15818342D01*
X12178171Y-15818342D02*
X12187695Y-15780247D01*
X12187695Y-15780247D02*
X12197219Y-15761199D01*
X12197219Y-15761199D02*
X12206742Y-15751676D01*
X12206742Y-15751676D02*
X12225790Y-15742152D01*
X12359123Y-15742152D02*
X12482933Y-15742152D01*
X12482933Y-15742152D02*
X12416266Y-15818342D01*
X12416266Y-15818342D02*
X12444838Y-15818342D01*
X12444838Y-15818342D02*
X12463885Y-15827866D01*
X12463885Y-15827866D02*
X12473409Y-15837390D01*
X12473409Y-15837390D02*
X12482933Y-15856437D01*
X12482933Y-15856437D02*
X12482933Y-15904056D01*
X12482933Y-15904056D02*
X12473409Y-15923104D01*
X12473409Y-15923104D02*
X12463885Y-15932628D01*
X12463885Y-15932628D02*
X12444838Y-15942152D01*
X12444838Y-15942152D02*
X12387695Y-15942152D01*
X12387695Y-15942152D02*
X12368647Y-15932628D01*
X12368647Y-15932628D02*
X12359123Y-15923104D01*
X12578171Y-15942152D02*
X12616266Y-15942152D01*
X12616266Y-15942152D02*
X12635314Y-15932628D01*
X12635314Y-15932628D02*
X12644838Y-15923104D01*
X12644838Y-15923104D02*
X12663885Y-15894533D01*
X12663885Y-15894533D02*
X12673409Y-15856437D01*
X12673409Y-15856437D02*
X12673409Y-15780247D01*
X12673409Y-15780247D02*
X12663885Y-15761199D01*
X12663885Y-15761199D02*
X12654361Y-15751676D01*
X12654361Y-15751676D02*
X12635314Y-15742152D01*
X12635314Y-15742152D02*
X12597219Y-15742152D01*
X12597219Y-15742152D02*
X12578171Y-15751676D01*
X12578171Y-15751676D02*
X12568647Y-15761199D01*
X12568647Y-15761199D02*
X12559123Y-15780247D01*
X12559123Y-15780247D02*
X12559123Y-15827866D01*
X12559123Y-15827866D02*
X12568647Y-15846914D01*
X12568647Y-15846914D02*
X12578171Y-15856437D01*
X12578171Y-15856437D02*
X12597219Y-15865961D01*
X12597219Y-15865961D02*
X12635314Y-15865961D01*
X12635314Y-15865961D02*
X12654361Y-15856437D01*
X12654361Y-15856437D02*
X12663885Y-15846914D01*
X12663885Y-15846914D02*
X12673409Y-15827866D01*
X12844838Y-15808818D02*
X12844838Y-15942152D01*
X12797219Y-15732628D02*
X12749600Y-15875485D01*
X12749600Y-15875485D02*
X12873409Y-15875485D01*
X12940076Y-15742152D02*
X12940076Y-15780247D01*
X13016266Y-15742152D02*
X13016266Y-15780247D01*
X13311504Y-16018342D02*
X13301981Y-16008818D01*
X13301981Y-16008818D02*
X13282933Y-15980247D01*
X13282933Y-15980247D02*
X13273409Y-15961199D01*
X13273409Y-15961199D02*
X13263885Y-15932628D01*
X13263885Y-15932628D02*
X13254362Y-15885009D01*
X13254362Y-15885009D02*
X13254362Y-15846914D01*
X13254362Y-15846914D02*
X13263885Y-15799295D01*
X13263885Y-15799295D02*
X13273409Y-15770723D01*
X13273409Y-15770723D02*
X13282933Y-15751676D01*
X13282933Y-15751676D02*
X13301981Y-15723104D01*
X13301981Y-15723104D02*
X13311504Y-15713580D01*
X13378171Y-15761199D02*
X13387695Y-15751676D01*
X13387695Y-15751676D02*
X13406742Y-15742152D01*
X13406742Y-15742152D02*
X13454362Y-15742152D01*
X13454362Y-15742152D02*
X13473409Y-15751676D01*
X13473409Y-15751676D02*
X13482933Y-15761199D01*
X13482933Y-15761199D02*
X13492457Y-15780247D01*
X13492457Y-15780247D02*
X13492457Y-15799295D01*
X13492457Y-15799295D02*
X13482933Y-15827866D01*
X13482933Y-15827866D02*
X13368647Y-15942152D01*
X13368647Y-15942152D02*
X13492457Y-15942152D01*
X13663885Y-15808818D02*
X13663885Y-15942152D01*
X13616266Y-15732628D02*
X13568647Y-15875485D01*
X13568647Y-15875485D02*
X13692457Y-15875485D01*
X13921028Y-15942152D02*
X13921028Y-15742152D01*
X14006743Y-15942152D02*
X14006743Y-15837390D01*
X14006743Y-15837390D02*
X13997219Y-15818342D01*
X13997219Y-15818342D02*
X13978171Y-15808818D01*
X13978171Y-15808818D02*
X13949600Y-15808818D01*
X13949600Y-15808818D02*
X13930552Y-15818342D01*
X13930552Y-15818342D02*
X13921028Y-15827866D01*
X14130552Y-15942152D02*
X14111504Y-15932628D01*
X14111504Y-15932628D02*
X14101981Y-15923104D01*
X14101981Y-15923104D02*
X14092457Y-15904056D01*
X14092457Y-15904056D02*
X14092457Y-15846914D01*
X14092457Y-15846914D02*
X14101981Y-15827866D01*
X14101981Y-15827866D02*
X14111504Y-15818342D01*
X14111504Y-15818342D02*
X14130552Y-15808818D01*
X14130552Y-15808818D02*
X14159124Y-15808818D01*
X14159124Y-15808818D02*
X14178171Y-15818342D01*
X14178171Y-15818342D02*
X14187695Y-15827866D01*
X14187695Y-15827866D02*
X14197219Y-15846914D01*
X14197219Y-15846914D02*
X14197219Y-15904056D01*
X14197219Y-15904056D02*
X14187695Y-15923104D01*
X14187695Y-15923104D02*
X14178171Y-15932628D01*
X14178171Y-15932628D02*
X14159124Y-15942152D01*
X14159124Y-15942152D02*
X14130552Y-15942152D01*
X14311504Y-15942152D02*
X14292457Y-15932628D01*
X14292457Y-15932628D02*
X14282933Y-15913580D01*
X14282933Y-15913580D02*
X14282933Y-15742152D01*
X14463885Y-15932628D02*
X14444838Y-15942152D01*
X14444838Y-15942152D02*
X14406743Y-15942152D01*
X14406743Y-15942152D02*
X14387695Y-15932628D01*
X14387695Y-15932628D02*
X14378171Y-15913580D01*
X14378171Y-15913580D02*
X14378171Y-15837390D01*
X14378171Y-15837390D02*
X14387695Y-15818342D01*
X14387695Y-15818342D02*
X14406743Y-15808818D01*
X14406743Y-15808818D02*
X14444838Y-15808818D01*
X14444838Y-15808818D02*
X14463885Y-15818342D01*
X14463885Y-15818342D02*
X14473409Y-15837390D01*
X14473409Y-15837390D02*
X14473409Y-15856437D01*
X14473409Y-15856437D02*
X14378171Y-15875485D01*
X14549600Y-15932628D02*
X14568647Y-15942152D01*
X14568647Y-15942152D02*
X14606743Y-15942152D01*
X14606743Y-15942152D02*
X14625790Y-15932628D01*
X14625790Y-15932628D02*
X14635314Y-15913580D01*
X14635314Y-15913580D02*
X14635314Y-15904056D01*
X14635314Y-15904056D02*
X14625790Y-15885009D01*
X14625790Y-15885009D02*
X14606743Y-15875485D01*
X14606743Y-15875485D02*
X14578171Y-15875485D01*
X14578171Y-15875485D02*
X14559124Y-15865961D01*
X14559124Y-15865961D02*
X14549600Y-15846914D01*
X14549600Y-15846914D02*
X14549600Y-15837390D01*
X14549600Y-15837390D02*
X14559124Y-15818342D01*
X14559124Y-15818342D02*
X14578171Y-15808818D01*
X14578171Y-15808818D02*
X14606743Y-15808818D01*
X14606743Y-15808818D02*
X14625790Y-15818342D01*
X14701981Y-16018342D02*
X14711505Y-16008818D01*
X14711505Y-16008818D02*
X14730552Y-15980247D01*
X14730552Y-15980247D02*
X14740076Y-15961199D01*
X14740076Y-15961199D02*
X14749600Y-15932628D01*
X14749600Y-15932628D02*
X14759124Y-15885009D01*
X14759124Y-15885009D02*
X14759124Y-15846914D01*
X14759124Y-15846914D02*
X14749600Y-15799295D01*
X14749600Y-15799295D02*
X14740076Y-15770723D01*
X14740076Y-15770723D02*
X14730552Y-15751676D01*
X14730552Y-15751676D02*
X14711505Y-15723104D01*
X14711505Y-15723104D02*
X14701981Y-15713580D01*
D14*
X9676502Y-16174608D02*
X9736442Y-16114668D01*
X9676502Y-16054728D01*
X9616562Y-16114668D01*
X9676502Y-16174608D01*
D12*
X10101980Y-16206152D02*
X9987695Y-16206152D01*
X10044837Y-16206152D02*
X10044837Y-16006152D01*
X10044837Y-16006152D02*
X10025790Y-16034723D01*
X10025790Y-16034723D02*
X10006742Y-16053771D01*
X10006742Y-16053771D02*
X9987695Y-16063295D01*
X10187695Y-16187104D02*
X10197218Y-16196628D01*
X10197218Y-16196628D02*
X10187695Y-16206152D01*
X10187695Y-16206152D02*
X10178171Y-16196628D01*
X10178171Y-16196628D02*
X10187695Y-16187104D01*
X10187695Y-16187104D02*
X10187695Y-16206152D01*
X10387695Y-16206152D02*
X10273409Y-16206152D01*
X10330552Y-16206152D02*
X10330552Y-16006152D01*
X10330552Y-16006152D02*
X10311504Y-16034723D01*
X10311504Y-16034723D02*
X10292457Y-16053771D01*
X10292457Y-16053771D02*
X10273409Y-16063295D01*
X10482933Y-16206152D02*
X10521028Y-16206152D01*
X10521028Y-16206152D02*
X10540076Y-16196628D01*
X10540076Y-16196628D02*
X10549599Y-16187104D01*
X10549599Y-16187104D02*
X10568647Y-16158533D01*
X10568647Y-16158533D02*
X10578171Y-16120437D01*
X10578171Y-16120437D02*
X10578171Y-16044247D01*
X10578171Y-16044247D02*
X10568647Y-16025199D01*
X10568647Y-16025199D02*
X10559123Y-16015676D01*
X10559123Y-16015676D02*
X10540076Y-16006152D01*
X10540076Y-16006152D02*
X10501980Y-16006152D01*
X10501980Y-16006152D02*
X10482933Y-16015676D01*
X10482933Y-16015676D02*
X10473409Y-16025199D01*
X10473409Y-16025199D02*
X10463885Y-16044247D01*
X10463885Y-16044247D02*
X10463885Y-16091866D01*
X10463885Y-16091866D02*
X10473409Y-16110914D01*
X10473409Y-16110914D02*
X10482933Y-16120437D01*
X10482933Y-16120437D02*
X10501980Y-16129961D01*
X10501980Y-16129961D02*
X10540076Y-16129961D01*
X10540076Y-16129961D02*
X10559123Y-16120437D01*
X10559123Y-16120437D02*
X10568647Y-16110914D01*
X10568647Y-16110914D02*
X10578171Y-16091866D01*
X10673409Y-16206152D02*
X10711504Y-16206152D01*
X10711504Y-16206152D02*
X10730552Y-16196628D01*
X10730552Y-16196628D02*
X10740076Y-16187104D01*
X10740076Y-16187104D02*
X10759123Y-16158533D01*
X10759123Y-16158533D02*
X10768647Y-16120437D01*
X10768647Y-16120437D02*
X10768647Y-16044247D01*
X10768647Y-16044247D02*
X10759123Y-16025199D01*
X10759123Y-16025199D02*
X10749599Y-16015676D01*
X10749599Y-16015676D02*
X10730552Y-16006152D01*
X10730552Y-16006152D02*
X10692457Y-16006152D01*
X10692457Y-16006152D02*
X10673409Y-16015676D01*
X10673409Y-16015676D02*
X10663885Y-16025199D01*
X10663885Y-16025199D02*
X10654361Y-16044247D01*
X10654361Y-16044247D02*
X10654361Y-16091866D01*
X10654361Y-16091866D02*
X10663885Y-16110914D01*
X10663885Y-16110914D02*
X10673409Y-16120437D01*
X10673409Y-16120437D02*
X10692457Y-16129961D01*
X10692457Y-16129961D02*
X10730552Y-16129961D01*
X10730552Y-16129961D02*
X10749599Y-16120437D01*
X10749599Y-16120437D02*
X10759123Y-16110914D01*
X10759123Y-16110914D02*
X10768647Y-16091866D01*
X10854361Y-16206152D02*
X10854361Y-16072818D01*
X10854361Y-16091866D02*
X10863885Y-16082342D01*
X10863885Y-16082342D02*
X10882933Y-16072818D01*
X10882933Y-16072818D02*
X10911504Y-16072818D01*
X10911504Y-16072818D02*
X10930552Y-16082342D01*
X10930552Y-16082342D02*
X10940076Y-16101390D01*
X10940076Y-16101390D02*
X10940076Y-16206152D01*
X10940076Y-16101390D02*
X10949599Y-16082342D01*
X10949599Y-16082342D02*
X10968647Y-16072818D01*
X10968647Y-16072818D02*
X10997218Y-16072818D01*
X10997218Y-16072818D02*
X11016266Y-16082342D01*
X11016266Y-16082342D02*
X11025790Y-16101390D01*
X11025790Y-16101390D02*
X11025790Y-16206152D01*
X11121028Y-16206152D02*
X11121028Y-16072818D01*
X11121028Y-16091866D02*
X11130552Y-16082342D01*
X11130552Y-16082342D02*
X11149599Y-16072818D01*
X11149599Y-16072818D02*
X11178171Y-16072818D01*
X11178171Y-16072818D02*
X11197218Y-16082342D01*
X11197218Y-16082342D02*
X11206742Y-16101390D01*
X11206742Y-16101390D02*
X11206742Y-16206152D01*
X11206742Y-16101390D02*
X11216266Y-16082342D01*
X11216266Y-16082342D02*
X11235314Y-16072818D01*
X11235314Y-16072818D02*
X11263885Y-16072818D01*
X11263885Y-16072818D02*
X11282933Y-16082342D01*
X11282933Y-16082342D02*
X11292457Y-16101390D01*
X11292457Y-16101390D02*
X11292457Y-16206152D01*
X11682933Y-15996628D02*
X11511504Y-16253771D01*
X11940076Y-16006152D02*
X11959123Y-16006152D01*
X11959123Y-16006152D02*
X11978171Y-16015676D01*
X11978171Y-16015676D02*
X11987695Y-16025199D01*
X11987695Y-16025199D02*
X11997219Y-16044247D01*
X11997219Y-16044247D02*
X12006742Y-16082342D01*
X12006742Y-16082342D02*
X12006742Y-16129961D01*
X12006742Y-16129961D02*
X11997219Y-16168056D01*
X11997219Y-16168056D02*
X11987695Y-16187104D01*
X11987695Y-16187104D02*
X11978171Y-16196628D01*
X11978171Y-16196628D02*
X11959123Y-16206152D01*
X11959123Y-16206152D02*
X11940076Y-16206152D01*
X11940076Y-16206152D02*
X11921028Y-16196628D01*
X11921028Y-16196628D02*
X11911504Y-16187104D01*
X11911504Y-16187104D02*
X11901980Y-16168056D01*
X11901980Y-16168056D02*
X11892457Y-16129961D01*
X11892457Y-16129961D02*
X11892457Y-16082342D01*
X11892457Y-16082342D02*
X11901980Y-16044247D01*
X11901980Y-16044247D02*
X11911504Y-16025199D01*
X11911504Y-16025199D02*
X11921028Y-16015676D01*
X11921028Y-16015676D02*
X11940076Y-16006152D01*
X12092457Y-16187104D02*
X12101980Y-16196628D01*
X12101980Y-16196628D02*
X12092457Y-16206152D01*
X12092457Y-16206152D02*
X12082933Y-16196628D01*
X12082933Y-16196628D02*
X12092457Y-16187104D01*
X12092457Y-16187104D02*
X12092457Y-16206152D01*
X12225790Y-16006152D02*
X12244838Y-16006152D01*
X12244838Y-16006152D02*
X12263885Y-16015676D01*
X12263885Y-16015676D02*
X12273409Y-16025199D01*
X12273409Y-16025199D02*
X12282933Y-16044247D01*
X12282933Y-16044247D02*
X12292457Y-16082342D01*
X12292457Y-16082342D02*
X12292457Y-16129961D01*
X12292457Y-16129961D02*
X12282933Y-16168056D01*
X12282933Y-16168056D02*
X12273409Y-16187104D01*
X12273409Y-16187104D02*
X12263885Y-16196628D01*
X12263885Y-16196628D02*
X12244838Y-16206152D01*
X12244838Y-16206152D02*
X12225790Y-16206152D01*
X12225790Y-16206152D02*
X12206742Y-16196628D01*
X12206742Y-16196628D02*
X12197219Y-16187104D01*
X12197219Y-16187104D02*
X12187695Y-16168056D01*
X12187695Y-16168056D02*
X12178171Y-16129961D01*
X12178171Y-16129961D02*
X12178171Y-16082342D01*
X12178171Y-16082342D02*
X12187695Y-16044247D01*
X12187695Y-16044247D02*
X12197219Y-16025199D01*
X12197219Y-16025199D02*
X12206742Y-16015676D01*
X12206742Y-16015676D02*
X12225790Y-16006152D01*
X12463885Y-16072818D02*
X12463885Y-16206152D01*
X12416266Y-15996628D02*
X12368647Y-16139485D01*
X12368647Y-16139485D02*
X12492457Y-16139485D01*
X12549600Y-16006152D02*
X12682933Y-16006152D01*
X12682933Y-16006152D02*
X12597219Y-16206152D01*
X12749600Y-16025199D02*
X12759123Y-16015676D01*
X12759123Y-16015676D02*
X12778171Y-16006152D01*
X12778171Y-16006152D02*
X12825790Y-16006152D01*
X12825790Y-16006152D02*
X12844838Y-16015676D01*
X12844838Y-16015676D02*
X12854361Y-16025199D01*
X12854361Y-16025199D02*
X12863885Y-16044247D01*
X12863885Y-16044247D02*
X12863885Y-16063295D01*
X12863885Y-16063295D02*
X12854361Y-16091866D01*
X12854361Y-16091866D02*
X12740076Y-16206152D01*
X12740076Y-16206152D02*
X12863885Y-16206152D01*
X12940076Y-16006152D02*
X12940076Y-16044247D01*
X13016266Y-16006152D02*
X13016266Y-16044247D01*
X13311504Y-16282342D02*
X13301981Y-16272818D01*
X13301981Y-16272818D02*
X13282933Y-16244247D01*
X13282933Y-16244247D02*
X13273409Y-16225199D01*
X13273409Y-16225199D02*
X13263885Y-16196628D01*
X13263885Y-16196628D02*
X13254362Y-16149009D01*
X13254362Y-16149009D02*
X13254362Y-16110914D01*
X13254362Y-16110914D02*
X13263885Y-16063295D01*
X13263885Y-16063295D02*
X13273409Y-16034723D01*
X13273409Y-16034723D02*
X13282933Y-16015676D01*
X13282933Y-16015676D02*
X13301981Y-15987104D01*
X13301981Y-15987104D02*
X13311504Y-15977580D01*
X13378171Y-16025199D02*
X13387695Y-16015676D01*
X13387695Y-16015676D02*
X13406742Y-16006152D01*
X13406742Y-16006152D02*
X13454362Y-16006152D01*
X13454362Y-16006152D02*
X13473409Y-16015676D01*
X13473409Y-16015676D02*
X13482933Y-16025199D01*
X13482933Y-16025199D02*
X13492457Y-16044247D01*
X13492457Y-16044247D02*
X13492457Y-16063295D01*
X13492457Y-16063295D02*
X13482933Y-16091866D01*
X13482933Y-16091866D02*
X13368647Y-16206152D01*
X13368647Y-16206152D02*
X13492457Y-16206152D01*
X13730552Y-16206152D02*
X13730552Y-16006152D01*
X13816266Y-16206152D02*
X13816266Y-16101390D01*
X13816266Y-16101390D02*
X13806743Y-16082342D01*
X13806743Y-16082342D02*
X13787695Y-16072818D01*
X13787695Y-16072818D02*
X13759123Y-16072818D01*
X13759123Y-16072818D02*
X13740076Y-16082342D01*
X13740076Y-16082342D02*
X13730552Y-16091866D01*
X13940076Y-16206152D02*
X13921028Y-16196628D01*
X13921028Y-16196628D02*
X13911504Y-16187104D01*
X13911504Y-16187104D02*
X13901981Y-16168056D01*
X13901981Y-16168056D02*
X13901981Y-16110914D01*
X13901981Y-16110914D02*
X13911504Y-16091866D01*
X13911504Y-16091866D02*
X13921028Y-16082342D01*
X13921028Y-16082342D02*
X13940076Y-16072818D01*
X13940076Y-16072818D02*
X13968647Y-16072818D01*
X13968647Y-16072818D02*
X13987695Y-16082342D01*
X13987695Y-16082342D02*
X13997219Y-16091866D01*
X13997219Y-16091866D02*
X14006743Y-16110914D01*
X14006743Y-16110914D02*
X14006743Y-16168056D01*
X14006743Y-16168056D02*
X13997219Y-16187104D01*
X13997219Y-16187104D02*
X13987695Y-16196628D01*
X13987695Y-16196628D02*
X13968647Y-16206152D01*
X13968647Y-16206152D02*
X13940076Y-16206152D01*
X14121028Y-16206152D02*
X14101981Y-16196628D01*
X14101981Y-16196628D02*
X14092457Y-16177580D01*
X14092457Y-16177580D02*
X14092457Y-16006152D01*
X14273409Y-16196628D02*
X14254362Y-16206152D01*
X14254362Y-16206152D02*
X14216266Y-16206152D01*
X14216266Y-16206152D02*
X14197219Y-16196628D01*
X14197219Y-16196628D02*
X14187695Y-16177580D01*
X14187695Y-16177580D02*
X14187695Y-16101390D01*
X14187695Y-16101390D02*
X14197219Y-16082342D01*
X14197219Y-16082342D02*
X14216266Y-16072818D01*
X14216266Y-16072818D02*
X14254362Y-16072818D01*
X14254362Y-16072818D02*
X14273409Y-16082342D01*
X14273409Y-16082342D02*
X14282933Y-16101390D01*
X14282933Y-16101390D02*
X14282933Y-16120437D01*
X14282933Y-16120437D02*
X14187695Y-16139485D01*
X14359124Y-16196628D02*
X14378171Y-16206152D01*
X14378171Y-16206152D02*
X14416266Y-16206152D01*
X14416266Y-16206152D02*
X14435314Y-16196628D01*
X14435314Y-16196628D02*
X14444838Y-16177580D01*
X14444838Y-16177580D02*
X14444838Y-16168056D01*
X14444838Y-16168056D02*
X14435314Y-16149009D01*
X14435314Y-16149009D02*
X14416266Y-16139485D01*
X14416266Y-16139485D02*
X14387695Y-16139485D01*
X14387695Y-16139485D02*
X14368647Y-16129961D01*
X14368647Y-16129961D02*
X14359124Y-16110914D01*
X14359124Y-16110914D02*
X14359124Y-16101390D01*
X14359124Y-16101390D02*
X14368647Y-16082342D01*
X14368647Y-16082342D02*
X14387695Y-16072818D01*
X14387695Y-16072818D02*
X14416266Y-16072818D01*
X14416266Y-16072818D02*
X14435314Y-16082342D01*
X14511505Y-16282342D02*
X14521028Y-16272818D01*
X14521028Y-16272818D02*
X14540076Y-16244247D01*
X14540076Y-16244247D02*
X14549600Y-16225199D01*
X14549600Y-16225199D02*
X14559124Y-16196628D01*
X14559124Y-16196628D02*
X14568647Y-16149009D01*
X14568647Y-16149009D02*
X14568647Y-16110914D01*
X14568647Y-16110914D02*
X14559124Y-16063295D01*
X14559124Y-16063295D02*
X14549600Y-16034723D01*
X14549600Y-16034723D02*
X14540076Y-16015676D01*
X14540076Y-16015676D02*
X14521028Y-15987104D01*
X14521028Y-15987104D02*
X14511505Y-15977580D01*
M02*
