%TF.GenerationSoftware,KiCad,Pcbnew,9.0.0*%
%TF.CreationDate,2025-03-11T12:59:44+05:30*%
%TF.ProjectId,LiteWingV2.5C,4c697465-5769-46e6-9756-322e35432e6b,rev?*%
%TF.SameCoordinates,Original*%
%TF.FileFunction,Drillmap*%
%TF.FilePolarity,Positive*%
%FSLAX45Y45*%
G04 Gerber Fmt 4.5, Leading zero omitted, Abs format (unit mm)*
G04 Created by KiCad (PCBNEW 9.0.0) date 2025-03-11 12:59:44*
%MOMM*%
%LPD*%
G01*
G04 APERTURE LIST*
%ADD10C,0.025400*%
%ADD11C,0.025000*%
%ADD12C,0.200000*%
%ADD13C,0.100000*%
G04 APERTURE END LIST*
D10*
X10630039Y-5860798D02*
G75*
G02*
X10807188Y-5924924I28521J-197962D01*
G01*
X10167175Y-14417398D02*
X10268293Y-14316281D01*
X10807179Y-12909857D02*
G75*
G02*
X10630041Y-12973973I-148619J133847D01*
G01*
X16998650Y-10037100D02*
G75*
G02*
X16987851Y-9966900I188640J64950D01*
G01*
X10439971Y-4574796D02*
G75*
G02*
X10268286Y-4518517I-30251J197726D01*
G01*
X11045888Y-12997602D02*
G75*
G02*
X11044065Y-12962351I16812J18542D01*
G01*
X18641809Y-4638652D02*
X18802007Y-4798850D01*
X18075712Y-6214991D02*
G75*
G02*
X18040452Y-6213167I-16712J18662D01*
G01*
X11245253Y-5486860D02*
G75*
G02*
X11181132Y-5309722I133807J148610D01*
G01*
D11*
X11245253Y-13347931D02*
G75*
G02*
X14152750Y-11667400I5103267J-5473789D01*
G01*
X18668236Y-12909869D02*
G75*
G02*
X16998650Y-10037100I5315111J5010564D01*
G01*
D10*
X19555048Y-14130206D02*
G75*
G02*
X19591234Y-14129326I18513J-16804D01*
G01*
X18230177Y-13347931D02*
G75*
G02*
X18294299Y-13525069I-133827J-148619D01*
G01*
X9766868Y-4588146D02*
X9737712Y-4617392D01*
X9768466Y-14248242D02*
X9885788Y-14130919D01*
D11*
X12477150Y-10036400D02*
G75*
G02*
X10807179Y-12909857I-7143563J2229637D01*
G01*
D10*
X9737712Y-4617392D02*
X9737712Y-4846856D01*
X10956252Y-13753112D02*
X11116449Y-13913310D01*
X18519254Y-13753366D02*
G75*
G02*
X18802463Y-14036096I418466J135966D01*
G01*
D11*
X16785695Y-8917400D02*
G75*
G02*
X16837597Y-8967645I-175J-52110D01*
G01*
D10*
X18424524Y-5833103D02*
G75*
G02*
X18426352Y-5868358I-16814J-18547D01*
G01*
X19450526Y-4600062D02*
G75*
G02*
X19553443Y-4702987I-1040406J-1143248D01*
G01*
X18802007Y-14035941D02*
X18641809Y-14196139D01*
X19537718Y-4417393D02*
X19308254Y-4417393D01*
X9884190Y-4705469D02*
X9766868Y-4588146D01*
X9906868Y-4448146D02*
X10024191Y-4565468D01*
X16987850Y-8866900D02*
G75*
G02*
X16998849Y-8797700I210850J1960D01*
G01*
X19737717Y-4617392D02*
X19706964Y-4586549D01*
D11*
X12691861Y-9917400D02*
X12789805Y-9917400D01*
X16987850Y-8866900D02*
X16987850Y-9966900D01*
D10*
X18044911Y-12616474D02*
G75*
G02*
X18080159Y-12614654I18539J-16816D01*
G01*
X11394690Y-12615713D02*
G75*
G02*
X11429959Y-12617553I16710J-18647D01*
G01*
X11185712Y-13103991D02*
X11536348Y-12757354D01*
X18845390Y-12973992D02*
G75*
G02*
X18668236Y-12909869I-28520J197982D01*
G01*
X18284690Y-5726713D02*
G75*
G02*
X18319959Y-5728553I16710J-18647D01*
G01*
X18294362Y-5310101D02*
G75*
G02*
X18230177Y-5486861I-197992J-28139D01*
G01*
X17935888Y-6108602D02*
G75*
G02*
X17934065Y-6073351I16812J18542D01*
G01*
X11429213Y-6219367D02*
G75*
G02*
X11393962Y-6221191I-18543J16828D01*
G01*
D11*
X18230177Y-5486860D02*
G75*
G02*
X15322750Y-7167391I-5103403J5473931D01*
G01*
X12837750Y-9867155D02*
G75*
G02*
X12789805Y-9917403I-47950J-2245D01*
G01*
D10*
X19449641Y-4563871D02*
X19566964Y-4446549D01*
X18424524Y-5833103D02*
X18319964Y-5728549D01*
X19636600Y-13886817D02*
G75*
G02*
X19580238Y-13715723I141420J141417D01*
G01*
X19591239Y-14129321D02*
X19708561Y-14246644D01*
X19566964Y-4446549D02*
X19537718Y-4417393D01*
X19737717Y-4846856D02*
X19737717Y-4617392D01*
X9737712Y-13987935D02*
X9737712Y-14217398D01*
D11*
X15322750Y-11667400D02*
G75*
G02*
X18230178Y-13347930I-2195970J-7154460D01*
G01*
D10*
X10024904Y-14234729D02*
G75*
G02*
X10025793Y-14270924I-16804J-18521D01*
G01*
X17938521Y-12756297D02*
X18285158Y-13106933D01*
X19706964Y-4586549D02*
X19589642Y-4703872D01*
X19034899Y-14260096D02*
G75*
G02*
X18641809Y-14196139I-97189J642636D01*
G01*
X9838829Y-4947973D02*
G75*
G02*
X9895108Y-5119651I-141429J-141427D01*
G01*
X10832808Y-14196545D02*
G75*
G02*
X10439388Y-14259911I-295098J579175D01*
G01*
D11*
X14152750Y-7167391D02*
G75*
G02*
X11245253Y-5486860I2195766J7154314D01*
G01*
X16837250Y-9867400D02*
G75*
G02*
X16787250Y-9917400I-50000J0D01*
G01*
D10*
X19737717Y-13987935D02*
X19636600Y-13886817D01*
X19308254Y-14417398D02*
X19537718Y-14417398D01*
X18320410Y-13105109D02*
X18424964Y-13000549D01*
X11047325Y-5870555D02*
G75*
G02*
X11049147Y-5835293I18635J16716D01*
G01*
X19308254Y-4417393D02*
X19207137Y-4518510D01*
D11*
X12636950Y-8967400D02*
G75*
G02*
X12689005Y-8917637I52060J-2350D01*
G01*
D10*
X11153714Y-5730732D02*
G75*
G02*
X11049149Y-5835295I-976204J871662D01*
G01*
D11*
X16687750Y-8917400D02*
X16785695Y-8917400D01*
D10*
X10024191Y-4565468D02*
G75*
G02*
X10023309Y-4601671I-17671J-17682D01*
G01*
X10440505Y-4574695D02*
G75*
G02*
X10833620Y-4638652I97205J-642655D01*
G01*
X10167175Y-4417393D02*
X9937712Y-4417393D01*
X9908466Y-14388242D02*
X9937712Y-14417398D01*
D11*
X16837605Y-8967645D02*
X16837250Y-9867400D01*
D10*
X19568561Y-14386644D02*
X19451238Y-14269322D01*
X9838829Y-13886817D02*
X9737712Y-13987935D01*
X18358980Y-13913310D02*
G75*
G02*
X18294360Y-13524690I578770J295920D01*
G01*
X9895014Y-13714605D02*
G75*
G02*
X10630420Y-12974040I642692J97209D01*
G01*
X10673423Y-4798850D02*
X10833620Y-4638652D01*
X11185712Y-13103991D02*
G75*
G02*
X11150452Y-13102167I-16712J18662D01*
G01*
X9920381Y-4704584D02*
G75*
G02*
X10023305Y-4601667I1143249J-1040406D01*
G01*
D11*
X12636950Y-8967400D02*
X12637750Y-9867155D01*
D10*
X19555048Y-14130206D02*
G75*
G02*
X19452123Y-14233123I-1143248J1040406D01*
G01*
D11*
X12691861Y-9917400D02*
G75*
G02*
X12637749Y-9867155I-261J53980D01*
G01*
D10*
X18802007Y-4798850D02*
G75*
G02*
X18519015Y-5082166I135693J-418530D01*
G01*
X19450526Y-4600062D02*
G75*
G02*
X19449636Y-4563866I16804J18522D01*
G01*
X10629303Y-5860925D02*
G75*
G02*
X9895169Y-5119065I-91593J643535D01*
G01*
X18294362Y-5310101D02*
G75*
G02*
X18359074Y-4921299I643328J92711D01*
G01*
X10024904Y-14234729D02*
G75*
G02*
X9921987Y-14131804I1040407J1143249D01*
G01*
X19580415Y-5120211D02*
G75*
G02*
X18845009Y-5860744I-642695J-97179D01*
G01*
X19207137Y-14316281D02*
X19308254Y-14417398D01*
X18044911Y-12616474D02*
G75*
G02*
X17940345Y-12721036I-975981J871444D01*
G01*
D11*
X12689805Y-8917400D02*
X12786950Y-8917400D01*
D10*
X11394690Y-12615713D02*
X11044065Y-12962350D01*
X19580314Y-5119652D02*
G75*
G02*
X19636595Y-4947968I197716J30252D01*
G01*
X10673423Y-14035941D02*
G75*
G02*
X10956413Y-13752632I-135700J418538D01*
G01*
X19708561Y-14246644D02*
X19737717Y-14217398D01*
D11*
X16689305Y-9917400D02*
G75*
G02*
X16637252Y-9867400I-245J51840D01*
G01*
D10*
X9937712Y-14417398D02*
X10167175Y-14417398D01*
D11*
X16998850Y-8797700D02*
G75*
G02*
X18668250Y-5924934I7140490J-2227990D01*
G01*
D10*
X15322750Y-7167391D02*
X14152750Y-7167391D01*
X10025789Y-14270920D02*
X9908466Y-14388242D01*
X19537718Y-14417397D02*
X19568561Y-14386644D01*
X18426800Y-12965276D02*
X18080162Y-12614650D01*
D11*
X10807179Y-5924933D02*
G75*
G02*
X12477050Y-8798400I-5472889J-5102429D01*
G01*
D10*
X11429213Y-6219367D02*
X11533767Y-6114807D01*
X11535603Y-6079534D02*
X11188966Y-5728908D01*
X12477050Y-8798400D02*
G75*
G02*
X12487549Y-8868200I-204040J-66380D01*
G01*
X19035458Y-14259994D02*
G75*
G02*
X19207140Y-14316277I30262J-197676D01*
G01*
X19636600Y-4947973D02*
X19737717Y-4846856D01*
X9885788Y-14130919D02*
G75*
G02*
X9921992Y-14131800I17682J-17681D01*
G01*
X19737717Y-14217398D02*
X19737717Y-13987935D01*
X18668250Y-5924933D02*
G75*
G02*
X18845387Y-5860817I148630J-133877D01*
G01*
X19589642Y-4703872D02*
G75*
G02*
X19553439Y-4702990I-17682J17652D01*
G01*
D11*
X12487550Y-8868200D02*
X12487950Y-9967100D01*
D10*
X12487950Y-9967100D02*
G75*
G02*
X12477149Y-10036400I-308890J12650D01*
G01*
X11116449Y-4921506D02*
X10956252Y-5081679D01*
X18519152Y-5081679D02*
X18358980Y-4921506D01*
X14152750Y-11667400D02*
X15322750Y-11667400D01*
X18426800Y-12965276D02*
G75*
G02*
X18424964Y-13000550I-18650J-16714D01*
G01*
X17938521Y-12756297D02*
G75*
G02*
X17940341Y-12721032I18649J16717D01*
G01*
X11181118Y-13525071D02*
G75*
G02*
X11245240Y-13347917I197982J28521D01*
G01*
X19207137Y-4518510D02*
G75*
G02*
X19035458Y-4574792I-141417J141390D01*
G01*
X10833620Y-14196139D02*
X10673423Y-14035941D01*
D11*
X16787250Y-9917400D02*
X16689805Y-9917400D01*
D10*
X9895014Y-13714605D02*
G75*
G02*
X9838832Y-13886821I-197584J-30815D01*
G01*
D11*
X12786950Y-8917400D02*
G75*
G02*
X12836950Y-8967400I0J-50000D01*
G01*
D10*
X11534524Y-12722103D02*
G75*
G02*
X11536352Y-12757358I-16814J-18547D01*
G01*
D11*
X12836950Y-8967400D02*
X12837750Y-9867155D01*
D10*
X11153714Y-5730732D02*
G75*
G02*
X11188968Y-5728906I18546J-16828D01*
G01*
X11116348Y-4921303D02*
G75*
G02*
X11181056Y-5310099I-578638J-296087D01*
G01*
X11047325Y-5870555D02*
X11393962Y-6221191D01*
X17935888Y-6108602D02*
G75*
G02*
X18040451Y-6213167I-871458J-975998D01*
G01*
X18358980Y-13913310D02*
X18519254Y-13753366D01*
X11181118Y-13525071D02*
G75*
G02*
X11116449Y-13913310I-643438J-92329D01*
G01*
X18284690Y-5726713D02*
X17934065Y-6073350D01*
X11535603Y-6079534D02*
G75*
G02*
X11533769Y-6114809I-18643J-16716D01*
G01*
X10956252Y-5081679D02*
G75*
G02*
X10672942Y-4798689I-418538J-135700D01*
G01*
X18642622Y-4638246D02*
G75*
G02*
X19036041Y-4574875I295108J-579194D01*
G01*
X19451238Y-14269322D02*
G75*
G02*
X19452120Y-14233120I17642J17682D01*
G01*
X10268293Y-14316281D02*
G75*
G02*
X10439970Y-14259998I141427J-141419D01*
G01*
D11*
X16637605Y-8967645D02*
G75*
G02*
X16687605Y-8917645I49985J15D01*
G01*
D10*
X18075712Y-6214991D02*
X18426348Y-5868354D01*
X9920381Y-4704584D02*
G75*
G02*
X9884186Y-4705472I-18521J16804D01*
G01*
X10268293Y-4518510D02*
X10167175Y-4417393D01*
X9937711Y-4417393D02*
X9906868Y-4448146D01*
X11534524Y-12722103D02*
X11429964Y-12617549D01*
X9737712Y-4846856D02*
X9838829Y-4947973D01*
D11*
X16637605Y-8967645D02*
X16637250Y-9867400D01*
D10*
X18846127Y-12973891D02*
G75*
G02*
X19580235Y-13715723I91603J-643499D01*
G01*
X9737713Y-14217399D02*
X9768466Y-14248242D01*
X11045888Y-12997602D02*
G75*
G02*
X11150451Y-13102167I-871618J-976158D01*
G01*
X18320410Y-13105109D02*
G75*
G02*
X18285162Y-13106929I-18540J16829D01*
G01*
D12*
D13*
X14416250Y-7773400D02*
X14481250Y-7838400D01*
X14481250Y-7773400D02*
X14416250Y-7838400D01*
X14994250Y-7773400D02*
X15059250Y-7838400D01*
X15059250Y-7773400D02*
X14994250Y-7838400D01*
D12*
X9997218Y-14730152D02*
X9997218Y-14530152D01*
X9997218Y-14530152D02*
X10044837Y-14530152D01*
X10044837Y-14530152D02*
X10073409Y-14539676D01*
X10073409Y-14539676D02*
X10092457Y-14558723D01*
X10092457Y-14558723D02*
X10101980Y-14577771D01*
X10101980Y-14577771D02*
X10111504Y-14615866D01*
X10111504Y-14615866D02*
X10111504Y-14644437D01*
X10111504Y-14644437D02*
X10101980Y-14682533D01*
X10101980Y-14682533D02*
X10092457Y-14701580D01*
X10092457Y-14701580D02*
X10073409Y-14720628D01*
X10073409Y-14720628D02*
X10044837Y-14730152D01*
X10044837Y-14730152D02*
X9997218Y-14730152D01*
X10197218Y-14730152D02*
X10197218Y-14596818D01*
X10197218Y-14634914D02*
X10206742Y-14615866D01*
X10206742Y-14615866D02*
X10216266Y-14606342D01*
X10216266Y-14606342D02*
X10235314Y-14596818D01*
X10235314Y-14596818D02*
X10254361Y-14596818D01*
X10321028Y-14730152D02*
X10321028Y-14596818D01*
X10321028Y-14530152D02*
X10311504Y-14539676D01*
X10311504Y-14539676D02*
X10321028Y-14549199D01*
X10321028Y-14549199D02*
X10330552Y-14539676D01*
X10330552Y-14539676D02*
X10321028Y-14530152D01*
X10321028Y-14530152D02*
X10321028Y-14549199D01*
X10444837Y-14730152D02*
X10425790Y-14720628D01*
X10425790Y-14720628D02*
X10416266Y-14701580D01*
X10416266Y-14701580D02*
X10416266Y-14530152D01*
X10549599Y-14730152D02*
X10530552Y-14720628D01*
X10530552Y-14720628D02*
X10521028Y-14701580D01*
X10521028Y-14701580D02*
X10521028Y-14530152D01*
X10778171Y-14730152D02*
X10778171Y-14530152D01*
X10778171Y-14530152D02*
X10844838Y-14673009D01*
X10844838Y-14673009D02*
X10911504Y-14530152D01*
X10911504Y-14530152D02*
X10911504Y-14730152D01*
X11092457Y-14730152D02*
X11092457Y-14625390D01*
X11092457Y-14625390D02*
X11082933Y-14606342D01*
X11082933Y-14606342D02*
X11063885Y-14596818D01*
X11063885Y-14596818D02*
X11025790Y-14596818D01*
X11025790Y-14596818D02*
X11006742Y-14606342D01*
X11092457Y-14720628D02*
X11073409Y-14730152D01*
X11073409Y-14730152D02*
X11025790Y-14730152D01*
X11025790Y-14730152D02*
X11006742Y-14720628D01*
X11006742Y-14720628D02*
X10997218Y-14701580D01*
X10997218Y-14701580D02*
X10997218Y-14682533D01*
X10997218Y-14682533D02*
X11006742Y-14663485D01*
X11006742Y-14663485D02*
X11025790Y-14653961D01*
X11025790Y-14653961D02*
X11073409Y-14653961D01*
X11073409Y-14653961D02*
X11092457Y-14644437D01*
X11187695Y-14596818D02*
X11187695Y-14796818D01*
X11187695Y-14606342D02*
X11206742Y-14596818D01*
X11206742Y-14596818D02*
X11244837Y-14596818D01*
X11244837Y-14596818D02*
X11263885Y-14606342D01*
X11263885Y-14606342D02*
X11273409Y-14615866D01*
X11273409Y-14615866D02*
X11282933Y-14634914D01*
X11282933Y-14634914D02*
X11282933Y-14692056D01*
X11282933Y-14692056D02*
X11273409Y-14711104D01*
X11273409Y-14711104D02*
X11263885Y-14720628D01*
X11263885Y-14720628D02*
X11244837Y-14730152D01*
X11244837Y-14730152D02*
X11206742Y-14730152D01*
X11206742Y-14730152D02*
X11187695Y-14720628D01*
X11368647Y-14711104D02*
X11378171Y-14720628D01*
X11378171Y-14720628D02*
X11368647Y-14730152D01*
X11368647Y-14730152D02*
X11359123Y-14720628D01*
X11359123Y-14720628D02*
X11368647Y-14711104D01*
X11368647Y-14711104D02*
X11368647Y-14730152D01*
X11368647Y-14606342D02*
X11378171Y-14615866D01*
X11378171Y-14615866D02*
X11368647Y-14625390D01*
X11368647Y-14625390D02*
X11359123Y-14615866D01*
X11359123Y-14615866D02*
X11368647Y-14606342D01*
X11368647Y-14606342D02*
X11368647Y-14625390D01*
D13*
X9671442Y-15026168D02*
X9736442Y-15091168D01*
X9736442Y-15026168D02*
X9671442Y-15091168D01*
D12*
X10035314Y-14950152D02*
X10054361Y-14950152D01*
X10054361Y-14950152D02*
X10073409Y-14959676D01*
X10073409Y-14959676D02*
X10082933Y-14969199D01*
X10082933Y-14969199D02*
X10092457Y-14988247D01*
X10092457Y-14988247D02*
X10101980Y-15026342D01*
X10101980Y-15026342D02*
X10101980Y-15073961D01*
X10101980Y-15073961D02*
X10092457Y-15112056D01*
X10092457Y-15112056D02*
X10082933Y-15131104D01*
X10082933Y-15131104D02*
X10073409Y-15140628D01*
X10073409Y-15140628D02*
X10054361Y-15150152D01*
X10054361Y-15150152D02*
X10035314Y-15150152D01*
X10035314Y-15150152D02*
X10016266Y-15140628D01*
X10016266Y-15140628D02*
X10006742Y-15131104D01*
X10006742Y-15131104D02*
X9997218Y-15112056D01*
X9997218Y-15112056D02*
X9987695Y-15073961D01*
X9987695Y-15073961D02*
X9987695Y-15026342D01*
X9987695Y-15026342D02*
X9997218Y-14988247D01*
X9997218Y-14988247D02*
X10006742Y-14969199D01*
X10006742Y-14969199D02*
X10016266Y-14959676D01*
X10016266Y-14959676D02*
X10035314Y-14950152D01*
X10187695Y-15131104D02*
X10197218Y-15140628D01*
X10197218Y-15140628D02*
X10187695Y-15150152D01*
X10187695Y-15150152D02*
X10178171Y-15140628D01*
X10178171Y-15140628D02*
X10187695Y-15131104D01*
X10187695Y-15131104D02*
X10187695Y-15150152D01*
X10368647Y-14950152D02*
X10330552Y-14950152D01*
X10330552Y-14950152D02*
X10311504Y-14959676D01*
X10311504Y-14959676D02*
X10301980Y-14969199D01*
X10301980Y-14969199D02*
X10282933Y-14997771D01*
X10282933Y-14997771D02*
X10273409Y-15035866D01*
X10273409Y-15035866D02*
X10273409Y-15112056D01*
X10273409Y-15112056D02*
X10282933Y-15131104D01*
X10282933Y-15131104D02*
X10292457Y-15140628D01*
X10292457Y-15140628D02*
X10311504Y-15150152D01*
X10311504Y-15150152D02*
X10349599Y-15150152D01*
X10349599Y-15150152D02*
X10368647Y-15140628D01*
X10368647Y-15140628D02*
X10378171Y-15131104D01*
X10378171Y-15131104D02*
X10387695Y-15112056D01*
X10387695Y-15112056D02*
X10387695Y-15064437D01*
X10387695Y-15064437D02*
X10378171Y-15045390D01*
X10378171Y-15045390D02*
X10368647Y-15035866D01*
X10368647Y-15035866D02*
X10349599Y-15026342D01*
X10349599Y-15026342D02*
X10311504Y-15026342D01*
X10311504Y-15026342D02*
X10292457Y-15035866D01*
X10292457Y-15035866D02*
X10282933Y-15045390D01*
X10282933Y-15045390D02*
X10273409Y-15064437D01*
X10568647Y-14950152D02*
X10473409Y-14950152D01*
X10473409Y-14950152D02*
X10463885Y-15045390D01*
X10463885Y-15045390D02*
X10473409Y-15035866D01*
X10473409Y-15035866D02*
X10492457Y-15026342D01*
X10492457Y-15026342D02*
X10540076Y-15026342D01*
X10540076Y-15026342D02*
X10559123Y-15035866D01*
X10559123Y-15035866D02*
X10568647Y-15045390D01*
X10568647Y-15045390D02*
X10578171Y-15064437D01*
X10578171Y-15064437D02*
X10578171Y-15112056D01*
X10578171Y-15112056D02*
X10568647Y-15131104D01*
X10568647Y-15131104D02*
X10559123Y-15140628D01*
X10559123Y-15140628D02*
X10540076Y-15150152D01*
X10540076Y-15150152D02*
X10492457Y-15150152D01*
X10492457Y-15150152D02*
X10473409Y-15140628D01*
X10473409Y-15140628D02*
X10463885Y-15131104D01*
X10701980Y-14950152D02*
X10721028Y-14950152D01*
X10721028Y-14950152D02*
X10740076Y-14959676D01*
X10740076Y-14959676D02*
X10749599Y-14969199D01*
X10749599Y-14969199D02*
X10759123Y-14988247D01*
X10759123Y-14988247D02*
X10768647Y-15026342D01*
X10768647Y-15026342D02*
X10768647Y-15073961D01*
X10768647Y-15073961D02*
X10759123Y-15112056D01*
X10759123Y-15112056D02*
X10749599Y-15131104D01*
X10749599Y-15131104D02*
X10740076Y-15140628D01*
X10740076Y-15140628D02*
X10721028Y-15150152D01*
X10721028Y-15150152D02*
X10701980Y-15150152D01*
X10701980Y-15150152D02*
X10682933Y-15140628D01*
X10682933Y-15140628D02*
X10673409Y-15131104D01*
X10673409Y-15131104D02*
X10663885Y-15112056D01*
X10663885Y-15112056D02*
X10654361Y-15073961D01*
X10654361Y-15073961D02*
X10654361Y-15026342D01*
X10654361Y-15026342D02*
X10663885Y-14988247D01*
X10663885Y-14988247D02*
X10673409Y-14969199D01*
X10673409Y-14969199D02*
X10682933Y-14959676D01*
X10682933Y-14959676D02*
X10701980Y-14950152D01*
X10854361Y-15150152D02*
X10854361Y-15016818D01*
X10854361Y-15035866D02*
X10863885Y-15026342D01*
X10863885Y-15026342D02*
X10882933Y-15016818D01*
X10882933Y-15016818D02*
X10911504Y-15016818D01*
X10911504Y-15016818D02*
X10930552Y-15026342D01*
X10930552Y-15026342D02*
X10940076Y-15045390D01*
X10940076Y-15045390D02*
X10940076Y-15150152D01*
X10940076Y-15045390D02*
X10949599Y-15026342D01*
X10949599Y-15026342D02*
X10968647Y-15016818D01*
X10968647Y-15016818D02*
X10997218Y-15016818D01*
X10997218Y-15016818D02*
X11016266Y-15026342D01*
X11016266Y-15026342D02*
X11025790Y-15045390D01*
X11025790Y-15045390D02*
X11025790Y-15150152D01*
X11121028Y-15150152D02*
X11121028Y-15016818D01*
X11121028Y-15035866D02*
X11130552Y-15026342D01*
X11130552Y-15026342D02*
X11149599Y-15016818D01*
X11149599Y-15016818D02*
X11178171Y-15016818D01*
X11178171Y-15016818D02*
X11197218Y-15026342D01*
X11197218Y-15026342D02*
X11206742Y-15045390D01*
X11206742Y-15045390D02*
X11206742Y-15150152D01*
X11206742Y-15045390D02*
X11216266Y-15026342D01*
X11216266Y-15026342D02*
X11235314Y-15016818D01*
X11235314Y-15016818D02*
X11263885Y-15016818D01*
X11263885Y-15016818D02*
X11282933Y-15026342D01*
X11282933Y-15026342D02*
X11292457Y-15045390D01*
X11292457Y-15045390D02*
X11292457Y-15150152D01*
X11682933Y-14940628D02*
X11511504Y-15197771D01*
X11940076Y-14950152D02*
X11959123Y-14950152D01*
X11959123Y-14950152D02*
X11978171Y-14959676D01*
X11978171Y-14959676D02*
X11987695Y-14969199D01*
X11987695Y-14969199D02*
X11997219Y-14988247D01*
X11997219Y-14988247D02*
X12006742Y-15026342D01*
X12006742Y-15026342D02*
X12006742Y-15073961D01*
X12006742Y-15073961D02*
X11997219Y-15112056D01*
X11997219Y-15112056D02*
X11987695Y-15131104D01*
X11987695Y-15131104D02*
X11978171Y-15140628D01*
X11978171Y-15140628D02*
X11959123Y-15150152D01*
X11959123Y-15150152D02*
X11940076Y-15150152D01*
X11940076Y-15150152D02*
X11921028Y-15140628D01*
X11921028Y-15140628D02*
X11911504Y-15131104D01*
X11911504Y-15131104D02*
X11901980Y-15112056D01*
X11901980Y-15112056D02*
X11892457Y-15073961D01*
X11892457Y-15073961D02*
X11892457Y-15026342D01*
X11892457Y-15026342D02*
X11901980Y-14988247D01*
X11901980Y-14988247D02*
X11911504Y-14969199D01*
X11911504Y-14969199D02*
X11921028Y-14959676D01*
X11921028Y-14959676D02*
X11940076Y-14950152D01*
X12092457Y-15131104D02*
X12101980Y-15140628D01*
X12101980Y-15140628D02*
X12092457Y-15150152D01*
X12092457Y-15150152D02*
X12082933Y-15140628D01*
X12082933Y-15140628D02*
X12092457Y-15131104D01*
X12092457Y-15131104D02*
X12092457Y-15150152D01*
X12225790Y-14950152D02*
X12244838Y-14950152D01*
X12244838Y-14950152D02*
X12263885Y-14959676D01*
X12263885Y-14959676D02*
X12273409Y-14969199D01*
X12273409Y-14969199D02*
X12282933Y-14988247D01*
X12282933Y-14988247D02*
X12292457Y-15026342D01*
X12292457Y-15026342D02*
X12292457Y-15073961D01*
X12292457Y-15073961D02*
X12282933Y-15112056D01*
X12282933Y-15112056D02*
X12273409Y-15131104D01*
X12273409Y-15131104D02*
X12263885Y-15140628D01*
X12263885Y-15140628D02*
X12244838Y-15150152D01*
X12244838Y-15150152D02*
X12225790Y-15150152D01*
X12225790Y-15150152D02*
X12206742Y-15140628D01*
X12206742Y-15140628D02*
X12197219Y-15131104D01*
X12197219Y-15131104D02*
X12187695Y-15112056D01*
X12187695Y-15112056D02*
X12178171Y-15073961D01*
X12178171Y-15073961D02*
X12178171Y-15026342D01*
X12178171Y-15026342D02*
X12187695Y-14988247D01*
X12187695Y-14988247D02*
X12197219Y-14969199D01*
X12197219Y-14969199D02*
X12206742Y-14959676D01*
X12206742Y-14959676D02*
X12225790Y-14950152D01*
X12368647Y-14969199D02*
X12378171Y-14959676D01*
X12378171Y-14959676D02*
X12397219Y-14950152D01*
X12397219Y-14950152D02*
X12444838Y-14950152D01*
X12444838Y-14950152D02*
X12463885Y-14959676D01*
X12463885Y-14959676D02*
X12473409Y-14969199D01*
X12473409Y-14969199D02*
X12482933Y-14988247D01*
X12482933Y-14988247D02*
X12482933Y-15007295D01*
X12482933Y-15007295D02*
X12473409Y-15035866D01*
X12473409Y-15035866D02*
X12359123Y-15150152D01*
X12359123Y-15150152D02*
X12482933Y-15150152D01*
X12663885Y-14950152D02*
X12568647Y-14950152D01*
X12568647Y-14950152D02*
X12559123Y-15045390D01*
X12559123Y-15045390D02*
X12568647Y-15035866D01*
X12568647Y-15035866D02*
X12587695Y-15026342D01*
X12587695Y-15026342D02*
X12635314Y-15026342D01*
X12635314Y-15026342D02*
X12654361Y-15035866D01*
X12654361Y-15035866D02*
X12663885Y-15045390D01*
X12663885Y-15045390D02*
X12673409Y-15064437D01*
X12673409Y-15064437D02*
X12673409Y-15112056D01*
X12673409Y-15112056D02*
X12663885Y-15131104D01*
X12663885Y-15131104D02*
X12654361Y-15140628D01*
X12654361Y-15140628D02*
X12635314Y-15150152D01*
X12635314Y-15150152D02*
X12587695Y-15150152D01*
X12587695Y-15150152D02*
X12568647Y-15140628D01*
X12568647Y-15140628D02*
X12559123Y-15131104D01*
X12844838Y-14950152D02*
X12806742Y-14950152D01*
X12806742Y-14950152D02*
X12787695Y-14959676D01*
X12787695Y-14959676D02*
X12778171Y-14969199D01*
X12778171Y-14969199D02*
X12759123Y-14997771D01*
X12759123Y-14997771D02*
X12749600Y-15035866D01*
X12749600Y-15035866D02*
X12749600Y-15112056D01*
X12749600Y-15112056D02*
X12759123Y-15131104D01*
X12759123Y-15131104D02*
X12768647Y-15140628D01*
X12768647Y-15140628D02*
X12787695Y-15150152D01*
X12787695Y-15150152D02*
X12825790Y-15150152D01*
X12825790Y-15150152D02*
X12844838Y-15140628D01*
X12844838Y-15140628D02*
X12854361Y-15131104D01*
X12854361Y-15131104D02*
X12863885Y-15112056D01*
X12863885Y-15112056D02*
X12863885Y-15064437D01*
X12863885Y-15064437D02*
X12854361Y-15045390D01*
X12854361Y-15045390D02*
X12844838Y-15035866D01*
X12844838Y-15035866D02*
X12825790Y-15026342D01*
X12825790Y-15026342D02*
X12787695Y-15026342D01*
X12787695Y-15026342D02*
X12768647Y-15035866D01*
X12768647Y-15035866D02*
X12759123Y-15045390D01*
X12759123Y-15045390D02*
X12749600Y-15064437D01*
X12940076Y-14950152D02*
X12940076Y-14988247D01*
X13016266Y-14950152D02*
X13016266Y-14988247D01*
X13311504Y-15226342D02*
X13301981Y-15216818D01*
X13301981Y-15216818D02*
X13282933Y-15188247D01*
X13282933Y-15188247D02*
X13273409Y-15169199D01*
X13273409Y-15169199D02*
X13263885Y-15140628D01*
X13263885Y-15140628D02*
X13254362Y-15093009D01*
X13254362Y-15093009D02*
X13254362Y-15054914D01*
X13254362Y-15054914D02*
X13263885Y-15007295D01*
X13263885Y-15007295D02*
X13273409Y-14978723D01*
X13273409Y-14978723D02*
X13282933Y-14959676D01*
X13282933Y-14959676D02*
X13301981Y-14931104D01*
X13301981Y-14931104D02*
X13311504Y-14921580D01*
X13378171Y-14969199D02*
X13387695Y-14959676D01*
X13387695Y-14959676D02*
X13406742Y-14950152D01*
X13406742Y-14950152D02*
X13454362Y-14950152D01*
X13454362Y-14950152D02*
X13473409Y-14959676D01*
X13473409Y-14959676D02*
X13482933Y-14969199D01*
X13482933Y-14969199D02*
X13492457Y-14988247D01*
X13492457Y-14988247D02*
X13492457Y-15007295D01*
X13492457Y-15007295D02*
X13482933Y-15035866D01*
X13482933Y-15035866D02*
X13368647Y-15150152D01*
X13368647Y-15150152D02*
X13492457Y-15150152D01*
X13730552Y-15150152D02*
X13730552Y-14950152D01*
X13816266Y-15150152D02*
X13816266Y-15045390D01*
X13816266Y-15045390D02*
X13806743Y-15026342D01*
X13806743Y-15026342D02*
X13787695Y-15016818D01*
X13787695Y-15016818D02*
X13759123Y-15016818D01*
X13759123Y-15016818D02*
X13740076Y-15026342D01*
X13740076Y-15026342D02*
X13730552Y-15035866D01*
X13940076Y-15150152D02*
X13921028Y-15140628D01*
X13921028Y-15140628D02*
X13911504Y-15131104D01*
X13911504Y-15131104D02*
X13901981Y-15112056D01*
X13901981Y-15112056D02*
X13901981Y-15054914D01*
X13901981Y-15054914D02*
X13911504Y-15035866D01*
X13911504Y-15035866D02*
X13921028Y-15026342D01*
X13921028Y-15026342D02*
X13940076Y-15016818D01*
X13940076Y-15016818D02*
X13968647Y-15016818D01*
X13968647Y-15016818D02*
X13987695Y-15026342D01*
X13987695Y-15026342D02*
X13997219Y-15035866D01*
X13997219Y-15035866D02*
X14006743Y-15054914D01*
X14006743Y-15054914D02*
X14006743Y-15112056D01*
X14006743Y-15112056D02*
X13997219Y-15131104D01*
X13997219Y-15131104D02*
X13987695Y-15140628D01*
X13987695Y-15140628D02*
X13968647Y-15150152D01*
X13968647Y-15150152D02*
X13940076Y-15150152D01*
X14121028Y-15150152D02*
X14101981Y-15140628D01*
X14101981Y-15140628D02*
X14092457Y-15121580D01*
X14092457Y-15121580D02*
X14092457Y-14950152D01*
X14273409Y-15140628D02*
X14254362Y-15150152D01*
X14254362Y-15150152D02*
X14216266Y-15150152D01*
X14216266Y-15150152D02*
X14197219Y-15140628D01*
X14197219Y-15140628D02*
X14187695Y-15121580D01*
X14187695Y-15121580D02*
X14187695Y-15045390D01*
X14187695Y-15045390D02*
X14197219Y-15026342D01*
X14197219Y-15026342D02*
X14216266Y-15016818D01*
X14216266Y-15016818D02*
X14254362Y-15016818D01*
X14254362Y-15016818D02*
X14273409Y-15026342D01*
X14273409Y-15026342D02*
X14282933Y-15045390D01*
X14282933Y-15045390D02*
X14282933Y-15064437D01*
X14282933Y-15064437D02*
X14187695Y-15083485D01*
X14359124Y-15140628D02*
X14378171Y-15150152D01*
X14378171Y-15150152D02*
X14416266Y-15150152D01*
X14416266Y-15150152D02*
X14435314Y-15140628D01*
X14435314Y-15140628D02*
X14444838Y-15121580D01*
X14444838Y-15121580D02*
X14444838Y-15112056D01*
X14444838Y-15112056D02*
X14435314Y-15093009D01*
X14435314Y-15093009D02*
X14416266Y-15083485D01*
X14416266Y-15083485D02*
X14387695Y-15083485D01*
X14387695Y-15083485D02*
X14368647Y-15073961D01*
X14368647Y-15073961D02*
X14359124Y-15054914D01*
X14359124Y-15054914D02*
X14359124Y-15045390D01*
X14359124Y-15045390D02*
X14368647Y-15026342D01*
X14368647Y-15026342D02*
X14387695Y-15016818D01*
X14387695Y-15016818D02*
X14416266Y-15016818D01*
X14416266Y-15016818D02*
X14435314Y-15026342D01*
X14511505Y-15226342D02*
X14521028Y-15216818D01*
X14521028Y-15216818D02*
X14540076Y-15188247D01*
X14540076Y-15188247D02*
X14549600Y-15169199D01*
X14549600Y-15169199D02*
X14559124Y-15140628D01*
X14559124Y-15140628D02*
X14568647Y-15093009D01*
X14568647Y-15093009D02*
X14568647Y-15054914D01*
X14568647Y-15054914D02*
X14559124Y-15007295D01*
X14559124Y-15007295D02*
X14549600Y-14978723D01*
X14549600Y-14978723D02*
X14540076Y-14959676D01*
X14540076Y-14959676D02*
X14521028Y-14931104D01*
X14521028Y-14931104D02*
X14511505Y-14921580D01*
X14873409Y-15226342D02*
X14863885Y-15216818D01*
X14863885Y-15216818D02*
X14844838Y-15188247D01*
X14844838Y-15188247D02*
X14835314Y-15169199D01*
X14835314Y-15169199D02*
X14825790Y-15140628D01*
X14825790Y-15140628D02*
X14816266Y-15093009D01*
X14816266Y-15093009D02*
X14816266Y-15054914D01*
X14816266Y-15054914D02*
X14825790Y-15007295D01*
X14825790Y-15007295D02*
X14835314Y-14978723D01*
X14835314Y-14978723D02*
X14844838Y-14959676D01*
X14844838Y-14959676D02*
X14863885Y-14931104D01*
X14863885Y-14931104D02*
X14873409Y-14921580D01*
X14949600Y-15016818D02*
X14949600Y-15150152D01*
X14949600Y-15035866D02*
X14959124Y-15026342D01*
X14959124Y-15026342D02*
X14978171Y-15016818D01*
X14978171Y-15016818D02*
X15006743Y-15016818D01*
X15006743Y-15016818D02*
X15025790Y-15026342D01*
X15025790Y-15026342D02*
X15035314Y-15045390D01*
X15035314Y-15045390D02*
X15035314Y-15150152D01*
X15159124Y-15150152D02*
X15140076Y-15140628D01*
X15140076Y-15140628D02*
X15130552Y-15131104D01*
X15130552Y-15131104D02*
X15121028Y-15112056D01*
X15121028Y-15112056D02*
X15121028Y-15054914D01*
X15121028Y-15054914D02*
X15130552Y-15035866D01*
X15130552Y-15035866D02*
X15140076Y-15026342D01*
X15140076Y-15026342D02*
X15159124Y-15016818D01*
X15159124Y-15016818D02*
X15187695Y-15016818D01*
X15187695Y-15016818D02*
X15206743Y-15026342D01*
X15206743Y-15026342D02*
X15216266Y-15035866D01*
X15216266Y-15035866D02*
X15225790Y-15054914D01*
X15225790Y-15054914D02*
X15225790Y-15112056D01*
X15225790Y-15112056D02*
X15216266Y-15131104D01*
X15216266Y-15131104D02*
X15206743Y-15140628D01*
X15206743Y-15140628D02*
X15187695Y-15150152D01*
X15187695Y-15150152D02*
X15159124Y-15150152D01*
X15282933Y-15016818D02*
X15359124Y-15016818D01*
X15311505Y-14950152D02*
X15311505Y-15121580D01*
X15311505Y-15121580D02*
X15321028Y-15140628D01*
X15321028Y-15140628D02*
X15340076Y-15150152D01*
X15340076Y-15150152D02*
X15359124Y-15150152D01*
X15578171Y-15016818D02*
X15578171Y-15216818D01*
X15578171Y-15026342D02*
X15597219Y-15016818D01*
X15597219Y-15016818D02*
X15635314Y-15016818D01*
X15635314Y-15016818D02*
X15654362Y-15026342D01*
X15654362Y-15026342D02*
X15663886Y-15035866D01*
X15663886Y-15035866D02*
X15673409Y-15054914D01*
X15673409Y-15054914D02*
X15673409Y-15112056D01*
X15673409Y-15112056D02*
X15663886Y-15131104D01*
X15663886Y-15131104D02*
X15654362Y-15140628D01*
X15654362Y-15140628D02*
X15635314Y-15150152D01*
X15635314Y-15150152D02*
X15597219Y-15150152D01*
X15597219Y-15150152D02*
X15578171Y-15140628D01*
X15787695Y-15150152D02*
X15768647Y-15140628D01*
X15768647Y-15140628D02*
X15759124Y-15121580D01*
X15759124Y-15121580D02*
X15759124Y-14950152D01*
X15949600Y-15150152D02*
X15949600Y-15045390D01*
X15949600Y-15045390D02*
X15940076Y-15026342D01*
X15940076Y-15026342D02*
X15921028Y-15016818D01*
X15921028Y-15016818D02*
X15882933Y-15016818D01*
X15882933Y-15016818D02*
X15863886Y-15026342D01*
X15949600Y-15140628D02*
X15930552Y-15150152D01*
X15930552Y-15150152D02*
X15882933Y-15150152D01*
X15882933Y-15150152D02*
X15863886Y-15140628D01*
X15863886Y-15140628D02*
X15854362Y-15121580D01*
X15854362Y-15121580D02*
X15854362Y-15102533D01*
X15854362Y-15102533D02*
X15863886Y-15083485D01*
X15863886Y-15083485D02*
X15882933Y-15073961D01*
X15882933Y-15073961D02*
X15930552Y-15073961D01*
X15930552Y-15073961D02*
X15949600Y-15064437D01*
X16016267Y-15016818D02*
X16092457Y-15016818D01*
X16044838Y-14950152D02*
X16044838Y-15121580D01*
X16044838Y-15121580D02*
X16054362Y-15140628D01*
X16054362Y-15140628D02*
X16073409Y-15150152D01*
X16073409Y-15150152D02*
X16092457Y-15150152D01*
X16235314Y-15140628D02*
X16216267Y-15150152D01*
X16216267Y-15150152D02*
X16178171Y-15150152D01*
X16178171Y-15150152D02*
X16159124Y-15140628D01*
X16159124Y-15140628D02*
X16149600Y-15121580D01*
X16149600Y-15121580D02*
X16149600Y-15045390D01*
X16149600Y-15045390D02*
X16159124Y-15026342D01*
X16159124Y-15026342D02*
X16178171Y-15016818D01*
X16178171Y-15016818D02*
X16216267Y-15016818D01*
X16216267Y-15016818D02*
X16235314Y-15026342D01*
X16235314Y-15026342D02*
X16244838Y-15045390D01*
X16244838Y-15045390D02*
X16244838Y-15064437D01*
X16244838Y-15064437D02*
X16149600Y-15083485D01*
X16416267Y-15150152D02*
X16416267Y-14950152D01*
X16416267Y-15140628D02*
X16397219Y-15150152D01*
X16397219Y-15150152D02*
X16359124Y-15150152D01*
X16359124Y-15150152D02*
X16340076Y-15140628D01*
X16340076Y-15140628D02*
X16330552Y-15131104D01*
X16330552Y-15131104D02*
X16321028Y-15112056D01*
X16321028Y-15112056D02*
X16321028Y-15054914D01*
X16321028Y-15054914D02*
X16330552Y-15035866D01*
X16330552Y-15035866D02*
X16340076Y-15026342D01*
X16340076Y-15026342D02*
X16359124Y-15016818D01*
X16359124Y-15016818D02*
X16397219Y-15016818D01*
X16397219Y-15016818D02*
X16416267Y-15026342D01*
X16492457Y-15226342D02*
X16501981Y-15216818D01*
X16501981Y-15216818D02*
X16521028Y-15188247D01*
X16521028Y-15188247D02*
X16530552Y-15169199D01*
X16530552Y-15169199D02*
X16540076Y-15140628D01*
X16540076Y-15140628D02*
X16549600Y-15093009D01*
X16549600Y-15093009D02*
X16549600Y-15054914D01*
X16549600Y-15054914D02*
X16540076Y-15007295D01*
X16540076Y-15007295D02*
X16530552Y-14978723D01*
X16530552Y-14978723D02*
X16521028Y-14959676D01*
X16521028Y-14959676D02*
X16501981Y-14931104D01*
X16501981Y-14931104D02*
X16492457Y-14921580D01*
M02*
